<mxfile host="65bd71144e">
    <diagram id="BblJWORKMhU5Ae_fbCFH" name="第 1 页">
        <mxGraphModel dx="763" dy="523" grid="1" gridSize="10" guides="1" tooltips="1" connect="1" arrows="1" fold="1" page="1" pageScale="1" pageWidth="827" pageHeight="1169" math="0" shadow="0">
            <root>
                <mxCell id="0"/>
                <mxCell id="1" parent="0"/>
                <mxCell id="5" value="" style="shape=image;verticalLabelPosition=bottom;labelBackgroundColor=#ffffff;verticalAlign=top;aspect=fixed;imageAspect=0;image=data:image/png,iVBORw0KGgoAAAANSUhEUgAAAggAAAEZCAYAAADynt3AAAAgAElEQVR4Xux9B7xdVZX+d255/aX3QoBA6IQAwUJR0VFHR3Es2LDrX1GqNOk1CXVUxoJlHGdGRRDLIKBiwToqCiICIb2H1Je8vHLfbef8f3vvtfZe59xz27uvBchvRiDvvHvXWXv18m0v8IMAHsyfQP8fPM/+CxDov9H/p34aBOpfAniep3+m/lM9rh4I+Pfg6cfNzwLzmfQZ5r/MD/VHqJ/p7zCfQR9m/p3JCgRN5pOr0OTRZxq6A3oH/Yn61wXdnqfeynxkhO6qNPG7MN36hccaLx0fS853uHjJ5ytkYGzzkmVUiUYluRxKXipdcjJXVi5HmJeD1RWn40PAS7Itle2O1PEwL63dYXPCOj4Yu1NWx9kWlreXQ8FLZwMryGXDdmfs8TLwhsuGV9HxIeRlWX+o5ZJ802D9YVW5VD6afHojvPR9n8yU8tnWY5sXIANPlky7T3blypFHnzEE0TP6/ZXjJaPqGYUywYehXAuBfEa7avOMMp7m4yjYUD8Rv+do0uEK+Z8qNNngR74bK3gZugVN7iwN3Sa4oXexztbRTQ8MPS9DNFXmJUU+L/KynFw2wMvw+Rp5Hg65ZD0spyvPB7kcK7wM252Ijtdxvhz6DdpejkG5NMmWs5fV5HK4eOl8iHUl1q+wMyuvK/XZyyGTyzHiD6NyWY2Xnh8EOtBhh60/wCX55AhVNEclBl0pGNwzNlggi2aiRFsoYJXg+oAIIqhoYP6GKg/DQVP43bj6YEIUfn8KWuLotnwhZzFMvFRaWjNNthbDAdlY4aWTuVgZELxUB26CMToFUjbNhQblshFehnRlVOWyEi+lvGrrPmhemnJceTuwX/KSbYqoWNrkJarj+vUblzk6gaHjZSW7M5Jy+SIvjW9kT1bFNtXqD0MekhJmmxQM8/l6gaogWP/H5XtqD6hX1Zk8l/SprKarB/wMlWzkM1KJ2KZQ+GlaDfR5zMCyz9gSBrUKlH0TNLkaivnMSjRxa4TbDLrTwDWRBmjSp2deQPPpecBLFTFWPF/LN9cJGllexsgcRa2jIpfUnLK6IuTyRV5SQFGrjpfhpW5tVpNLbXfIq5MeDolcmr5rDTpeRi6pxsnV6yGhydodMt9Ru8PF4IZsuOOlMdXUXm7QhpflZR02fHh4WcaGDwcvh8gfDjcvPTWDoAtpok/B+qB79SJ71nMH5IXJxduY0fpdkeaRPLmIyv46ZcB6FoAUz5aveBbC0cQ0cIVPhDGldFOmb38nUhJx0w7czuCRBk5PXavFfp+gW88pCL5ImiiPa5iXzGaZMg8PL90pGuvn+n41nS+FtjZituMhHABWOF8KEoeGl1zgsaGsy2VCNFELjP4uSrd25qS49ctlmJd160ojvBRnF6cr9cnli7xkPaiLlxG7Y+a0XuTl0PCS2hoUpERtU6m9FDbctmrYdVXQcVsnLud7GtTxMnbHJczD7w+1O5Q+WlaYdXs/7A+9IPD1xJ7JdNygoR0qVOVsmi2QWTrZJKMWhp+m/OYm4UJlee5L8DO2f6+VKDKrQBUIpila6uc2g6Nb9KIoumWaaCJAVBdEeBFHNw1T2kFIqm1zabEcTWFnPpZ5yfMdNIfBhszKgOzrUb+O+FQXLznj4PPl8rSaL6lyvsPKy9D52ilKK7uV5JIrRbG6ItpfsXJJmhenKyYbqiCXw8pLkofB6PjzgZdyRqpuuaxgd7gPy1VN4Vti7WVDvOTAN8buVJVLatvF2MK65XLEeOl63KPJy3r8YZSXQ+kPS+3l0PlDL9B/uDJOFQPePqD0mMv6HH24SW8qReuohJ1JdBCRqv/cO6FNCLspwYOIVE2wbkuXsaP9Tu7tU5jBdNMApNExajVYmtxgDZf2rO4Kw+wGKElhSAZ5SJI3OBxN3NsVvX0OlmQ2MSK8pC+O5SW9//7MS3m+tnpjNmlsl8oOwdKcil3EqVcuh4aXUlfi5dIN7Y6oXNbDSy1PDei4lbnqumK2oGjriWyJTje4yl1Rx8cAL21ltYxcjiYvdZIXz0ud1pXRlVGTyxcEL51/K/U9VKWO+swyNtwWqsr6Q6qVUkmLB03N+VbWcR0guNUEtwYoV4yiw0nkQk3ZQBAtB5joBzbpDE2YiTHE0PyfnELTFpbLHWy0I2uQYojIPMuzEvbbQ4NANdMU+m4xGSc+Nvx9rnEx5nhpM/cXeSlXZ51syfMVaV5ItGs53yrPWF2RhTVZspTyXgdNnLWxbIb0oBa6XRBeqr+2dOSEhyMyOdQX08axFTjWJfs1tdD0Ii/rspd2eJSEoB4Z2C/lUm7Bl9GVsjZ8GHScfeCY5uXg7I6eQYiMh9tPsrPyVGa3gQIbT9lesCUqN4PIDlv/upgxMEfk1h1NMELVC2uTxMHb73MzEaaFHfeMa3nwuLadPHZVXPOjKE0sOyLQcBkqWzge1mEhFXRroSxPt6u2uzK7DIJsuawCL9kuu9Lai7wsOV95rlV4Kc+3RC65KsZDqPYAuTXBXnmY5dKKnguAh0Yua9CVUeKl1BVjfwXGiLA7det4I7xk9R5xu0NE20EkqorZ4eja7U4lG944LyvYcBsoDrOuVLXhY5WXY9MfUoDgUmNVUHCDCrzXHQYcsgM4sr8WBUoSIEimdMhBgElGTEsiHijJnLGLQpzhjpQV6BFThpTAEA68iecXbDmCBvHsqqbc3KIhDRN7WCAGCl6q0CTH5znEGgO8DGXN2rCK85XRyX7ES7dmO7JyOZS8lCAqckA0Ti5LdEXMC1TVlSpyWRcvo6Bi9eg4zybJCXhZ6GtALhvipabB2aaKdifCy3rsTnThyqybCoC2RnhZEjwNXsf3D15GQPoq2PCqvicqlyPGyyH0hw3JZRVeqjVHG3RZJMFSwCHW6/KgRBHAoQgoEQ2HC0ALmhSVA4rlgJJ0IBJDk63KknerBt5UFSipGk0EkMTgTRaPgCoCDJ5kwhXR36FgiEt/PN/AQVAJ3S/y0gJRES+NHR8GuawDkKYEwGvQcln5fF2iaCJwu2VUt67QfIxFM60MKtawjo9BXg6d3akPCMvwshKwXBUdr4eX0u4Qtszg7OVI2Z3GeFkN3EebCgvIZ5JHBuCrCtJXqw2v6nueD7wM4Kn4gNceQi0FW9WT5XAJNGDC/xJgCDqYODAlXQwXsMkhoCQdBZrwww5tCEfLYwvhZ0S5SLYPomAVVWji0pqZPg+jPVvX3wjdQ8xLuy/SCE1RfnN7xC4YD+58q/NSnK8WJwGWVUYGbOYe6t6UymWczLn2AznbCMjXi7w0LapqfAqB+5TRpyHhJQ9NsR0Yk3I5vHbHjJWIQWyLD1BdV0ptuLCpo8FLfpPQWIm08y9sXo51f2iAkmiC2IH9iH3yyF0KZl/QNPB5utFOwYqMmFGiCKbRtQwiMyVaF3j1jUuOJc8IBDgtT4z3LvqS1JSvTJMpJ1qaIs5Q0yEmO83TXHt3DtPwyYSQYuTFDkk6R1WN7hd5GctLzRYykHGIinJTxawImGZVjFyaU3MVppGVy1rPt5pcuk2U2vRJyGUVXoam2KO8DOkKK+cLiZdR/a0sl43wsj67w9phe5lk16h9a3q4zjYN2oYPpVw2yEsb3ERpKpXL/YKXEb9iK12D8od1ymUdvNQVBNkDpZE3d9ED8z8G+IOOyoIpsbPn0kI5cB8bENQIlKSFnYfNOBI1X2LAfexaDC1WSCAjZoZ+3FQIOBAyZSc7CEERgARK4vUp94zJtOIBLbgnGQ86RQsVRHcURGXEeMm4mO7aALYyw8zL8ECcBOeKAyWqzMsogBe/givpclZsw4MaALzqlssR4yX3CWsAFYsBHgvxsoKu2Dke1hViq60wWFvMEXx5QJqh5GUJ6BS16sqCoVXU8THCy0p2JwLuM5y8bMTumAypRnCf4ZTLIeRlJbvDK7fsKKJy2QgvK/kVk/sIILuG/KHFNKjJH1YBSqoEokK5NV+sFAFKss7X7E7x1Y62N28yPsr+7BSEHROmHzPwB9/4KJ6nQa14gCdBNw/i2YHKyiAbYbrt5FAYb8q2ImT9wA01VqUpAqKib7bkyDEOsIQDmSHhJcWDPJjFWyNlwbLK8JKrK+R4qwOWvLB4yVjVZuir9Hzt0CwXGezwXgzwmNUfCopt6YrkT8xCMJaAG6gcvFzyjXPaPI2iXDbCyzAgDfHPDqKFAdq4JOj0V9gdm5BwohEHhlbeXu4vvJRgd3YANrS1IasXo2nDzVkOqVySEzauqdbzZXDBajbcYQWNPX9YnpfmsiYe49C+3JUQLeohX4ErURWpV2iubRZDesLh6AO0WwO8lUAG05bzyz/D2OvcAnGZjBNSN5Uv6A7RJCf36U0pmrUQlxSslNw0ydExGwf+XLqLgG+jtAOJdnCFN0cHz0sumVsUy0Hz0lU/jJ7TnIW4GsvSHzlf23IRLaAwv/nsjEI5p8c3coqhzjK8jA4NlfCyEk1V5DJ8vlxdcjJgK0GVzjdEdykvub3hEEJpOLUqLyPOxJ7vKPGSh2rL6Pio8LLM+ZbK5Yu8LLHh1HYbWhvO/qF2Gx53e29dOj6CcmkLEfudP3Qtxfr9IdkbuT4l/KG9zTH8c7dvbbsbtEroyvJhEBUukZhYhCf45WIYr/RwQcEM3ISC+XCzwg0M8vQ/j1NxtYITKBuUVKfbQTBzNkZGP45u27+1tVVLk8zU7OCknSAuxYIIOZIGeamFgEnSgVoFXlIwFHe+mu5GeCnxSuy6kC3A0RaHHBGQdLuB0OHkJZdBy8nliPFSgIrZgUBRSg7NsjTAS5ryJaQRGgYbIrkcKV5SD1DcnGjHS0SfirIecTEc26Zh46XQlUbt5fOfl25zy+UOvLAetjv181IaHtfuGm4dHz25HEVeNgSU5GawbAhjMAQ4mbQIBjFASeyY2anXDrLBM2m1ASURabXQZOcbnIlxK2fskQWgRRRIh9oEroTkfic0XcwMinQoaMaulJec4VLPm7smthBi199q4KWNLESp0B6aXbew4YcNqFw1u7bzrcpL0Xri0h7vsQjI0FheUmbJGxNuAp/IriSXzwdeir1vE3fsB7ysE3RqxHS8Hl5WBEoqN68knNlQyeVQ2h0z8y1msRqwl8PGyyhNnISUAburoOP2N0OGfXBgdyVT6mPSH0blsj5e0nXPLh+VaxfsiBhIhNcUzTBTBGChAlCSSyVpx4A8oSvphOcUzCEKmigfYjsYTk1peUDQFKXbJOzuSmdTWnZgShIcxHUfBgOUZLY7bFgg1hCf/7zk0j37KzMAamKP/YOX4vJvmgCvUy5ZbkkEHJAOwxE63pjBs3JyGeEl426MAC8lTe5my8Hpimg6cWgr9LCKjg8BL62d0O0bbg+5a7EalUt5T4RdGdAMlCA4dE21HegbBl7azEI4zkgVytBEP6cKJtvwEntp34EssdTfGnlZ2Ybbi24iNDF2gOtWjjovpQ23lr02XoZAp2y3udQW8vaVm7UMPzN4f8gyX97uVNVxDZTEmMPiTjl5ca6xY3yph1AwoRWmvGcMqpEnMXNAwunqCdFnSHCZiTaTtHk3xQbh1TcuTYd7WmGzxFWGWJokgEYZus1OstsVVy8nr5HiTQr9DF84RVsU4QBIBA7yAhyehB8BXvKp0CmZuzelrpal21Umyp7vCPHSNbBYZsRlM6PNS7ZrfOlQrD4J0JZKusKGqQG55MusqsslaeaQyqXaPHK6YoPmGH2Klcsxy0uOccQcFCcw1tPy7bhcDGRr6mxTNXsp7Y5JzCrw0m4SmM9nu8O6Yr91zMnl4HgpwyDbAq/ge4aClyUnOBS8tHIT7zNr8T1Ox4eJl77v85aZ2/oPlZMJc8D6e94kCEerxumImxx10mRnYkXwwEONFGmz4MeA5NjP1F7JWAytlqKUYzJUQZNN1iRWQgzAEx+Oft7RbTINUsYKNMU/w9deEy9CdFMAIYsMERwGDqCivJQ0meCeest2GPP5zcsQFkX0fKvJpT7P+PMdTl6aSLm8rpjr1J1chnTF7OEOi1w2wstKND0/eUkJbsgOOB2vaHeEXLpqJZuxyuc71LzkyqtcrRZRhK2W1WvD3dp4LfayEV5SyFNGn8aqXNbjD42rMMbN2AYOfZwdKOsPRZuoqj8MYX7L+TuTBEd56ekAoQxQks2KXehARs14OZuJaoctUMxjAYfYiVEuIaquhhmiqWA+WGAWcHDAA29RoCQJSEOslutj5FQNwRIoibw1fV8pUJJ4p2o06UNyFQ7mneOTCBC4uiIinTDAUzVecq3w+cpLmkqXIxEcIIpihpQZOehkS79igNPEr40CYdUvl6ZlF9UVUWFjGagol5xhUKk8Tlc4RRcibX0UVyxJBc0ITA00RcDQbM9opHkp9bcq3TzQReaU3lW2J13F3GXcxuBUOd+Ijps5CQcApK2gsDtsHzldcABtfFhEq7R+NJ8kRoVCtlB/VsReRjoARtTl1pM1E7bObac+wzY8KpcRXtInjwYvWX+H34YbH2NHFGg+yrkI4Xsakcv9hJfiNkf22A6USLaxOLpgaWW9M6iGYYcmn7HCWvJMFGTDGG+yYQ5dkRUwApTEqiX7Z1Ga5GfVTpMQDnYorjlEk9VkFGJo4s0AK8hcMRBLHA3xMoYmnoh2gEP7GS9pOyXkgGza4wy31EcxoiJdI8fh+rel+ef2l7nbwPwxdysIsCy/COSLCPr7MTCQRXrSRKRa0nXJpQnCfWR270JLWye8lhYECSNA7n85m3IeydJk10+ZSBcZyU+wmQLjmdpiBX2LBQXj36J3pqCJHQ3rL+up6wxSUZUqamV1nHSjhJd2EFcC6Qy9XFpHKoGwrEOMs03xdkcCptmNrBhAGvO64cuQwnYH8Ht7kdn2nD7xYroV42fPBFIJIchm6yjftQcD3XvhI4WmSRPRMqEzLJf0Hjaw8EmK+F3JWhqHRtKu7HEhj94NW+B5PoqJFDpmzkKiKW2quLb/UOP5jiov2R9EwH2q0lSbDa9kL9mmlgPpszack05r54fWHw6dXA6Ol16g/nC5nS6Gse5elkBreIYDCtcDE4aQDLPFMiDjbJ04CznvPoe+T1QX6qWJHYWAnHXRqANe4mYIL+JpdlKZpxTrQQQyFekWZrVeum0mYhMbY7sZB5+zBGrrhIKr4aLJ9sNt54+8ThgwZbC81LqmgT2dU3OyxO4+AIraUpIVoMpAKKvmITEPnnLOyYRZBSXj7vIkrtsY+dr1tz/j2a/+J1qyPnIFD7M/+lHMO22xTJgYADrG3ZNhUHTlB/DsbUuxZ/MudB61CAe8/a0YN2NyqKXAr1pCE8uJiWjtJTOB76N37ToU+jI2IJIVFPM0hyASR9LFT+pvi4kk2g+Yi5Zx42g2SrQ56DvNJUPxsltWxy3wuvNBZrTJunAOA8mtuQ65pFu/B1/KZTNlQ2ModwvtSAso6lBYaPNjd9+EvfHF2RQLZhXCcynVcW4plLOXmr5cFuu+9EV0/+lRFBNNSJ7yGhz34ffCS1OA4PlAIoWgrxerbrkV/WvWoC85Hod++gJMPXaBOSxeK1BizKuVfhED69dh345uTD7+GO3wOeSTw8DqV4vd2/HEuZchlQ+wt70Tx994HcbNnGo6XtZ+1HK+IsSW/OaksKINl9g4YV6GWmu1+JWGbLipRhqdJ9wWDbA00jZ8/+QlXdZkTJFFfCNHZA19WUAac3KcPXB9LQruU9I/YMsWAzhEGsLHWZ0mxk6wEx2cFbrsMA7cx9LNIbWtBkhwH+eDpDkzfKKXIKNCtpUU2t06yMHI6PGSDXYN5zucvAwVAlwIQW0vYyb8Ip7+z2+i+6mn6WkyqtQ/GEg04dgPvw+7fvlTdK9YF74tz/lB50C9BPrTHTjxorPRVMij0L1HOCf3C+rjEwHQlOnFxq99A8G+DIIgASw8AXPPeA2K2kgn7C1eLL7KYeRTLZhw2HzKEAH4AYKtG7H6ss/AGyhid+tkHL3sBnTMmcpFJXhFclx2DMGWqErfgpyEcjyrblmC7JMr9Ofkk0kUKZOUATnrjy3AEBR5Ml9Eykuit6kNcz91Nma/7CTXchGVlCjQitsGs2gfdi7XYN6TAc5kkN+2XfMt39qK9plToVim+NG/djWKfX2WND4Ez0uipb0TiQkT4LW2w0sltSMle06zI0BxoA/7Vq5DUulokEDQ3ILOww4yn2+nbB0QlpKjzNq1KPbltRwpXnUecjCSXhH57TuRKBZRSKTRMmemDh61hmh/IeWyVMepmOJ03EQz6iWN/fQD7Pvdr7H5rv9AOpfT2XvTwkXItraQT0yiN92KhR96B/of/RO23PVVtATAQNM4tBy3EL6XgK8+i+StkGzFQe88Ax0zJyG3cS1WXH09irkUkqe8HEd96H1ItLfaaMy0iU1w7e/ZgWc+eTGa83nsaR+HI5ctQcesaVQ6d/NLmtEct7Czpx5JnA1nQDwtAHH2UgRfg+elaAU2KpfRXgz5OA5QTBXA1oSsfJpfq99ehnQlRi71p0rIaXYadfOSY0MJGMjBJKW4NfvDSLUl4g91BUHyzfycnZ/IYrgaKkopbqXPlUGdmgkQJM6FuI4anZ43v+TEy9TMagJKkr3n8nRzJha1v1XorgaURIxj08kl8tposm3AEvAXW96yJivCyxBQUmQToYSXJg2Lo4lLpaakGv8MG05+xmW1kbkRDphoAIDzE54rCp0veQhDkzKulNMX89hw+63I/uUJ/bUq2UJCFewNh3tTLTj40kvQ++N70f+P5bJpZRsK0gslggS6mzux4MbPoPvnD6PrN7/VgYD6QmUX+Q9nhEkvoZ2Hmvr3/CT8JOAnqFiBhDbgBnvezJP4iSR6xs3E4n+7Aan2FjM8mh/AuttuQ/GxJzVDM80TkX7ZiQia1DsmdLsh8KnMTfV8rlY5ilIIZs7GUW96jfE/yqjkM9h4040o/GMlCl4C7a/7Z4xbfBwCKCbJl5FlZPP3yaKPzV+5C97uHuxLj8PMc8/GnFNOCDlGd751yqXiVb6Ilbffjv5nnsW+pg4c+ulzMeOoBYbJxRzW3roMfU88HekKqRdLIYlmFJJJoHUcgpnTMenkEzDrFScj0drCUgE/24/lV12D4uZdSAZJ7Gttw8Kl16Bl1hQtA3pdUeiK370LT196FRJ7s1Cs3jtzNk659XrAK2D1N76JzG//iGyiCTM+8AHMffXJIbdmZpREscfWV8uA++jvLcDzi9j3xz9j45e+gpb+vKrVaAFWZ67+10cSxUQLulvH4+hzzsKWr38Vqa4erep+4MNTskceRgU0gZ/Swe38Gy7DhIOnYcN370Hv/z6ENj+JAS+NnrmzcdgnP4bx8w9QJyzaVz787m1Y8amL0JztR1fbBBy+5BZ0zJlhqyguSqZWiatj8844Va7COs4D4lZvKgK0hW046wxNR4QA2mqzl4O04dqdcV1YUd6AvdRxpKgUstWRkSM7fRo4rM0fVgO7G0V/SB0GaVdFPT/qBIQdtlUAWdsl0bGBAP2M/XDMcJUTVi7ph74+Ul93ZLrC5QjTVMu7kZO27ybYUkI3a1u5JLKW76vlmXpokrRE69jyc4y+WSEJPVoLTfoZ5eCU2nnwillsvGMZso8+hQBNGFCOAz6ailkkEaAv2YZ5l6kA4R5knlwJ30uh0NEOP5XQZKh7SSXPVca5r7kdx1xyHvb96Q/Y/ZfHdIBg7aGKP4IAiYEsii1tZNDdLaUqGFDfm+gdQLG9DX4ipU095Re6d9w3fgpOuOxcpFqbEQR5FLasxdrLlyLd128CAuXbdZamAguKNrwUOXb1Web9naArY5FC7+EnYvH1F+nShi75F1SAcJMOEHzPQ3bqDCTGt6EQcIBA2a+O9x0j1FenfQ+JrZuBbBHdqU7MPPeTJkCgr7VBnIyYapBL/S2FLHZ8+zvo+skvkFeB1ytPx5Ef+yASuueuAoQBrF+2FLm/qaqQqQAo+hVn1derE1aZqR8kUPQSyKRSyB2yAIee9U5MOuwQ46yLBez90X3YfvcPoYK+/nQzmt99Fg77l1cDSZ4h4TAvQP+Tf8WaG29Ba5BCLplC7rRXYtHZH9Hnm9/+HNbcuBTJbd3YO2kyDr3kAkxYcLArckbLMUJhS1RBM0BVDnxsu/9+7P7Bj5DqzWAgmcK4U09Ecl83sn97FkEiifThh6Fl4THIrFyB/tVr0LSnF/lUKxLHHoYpRxyCPb/4OVI79iGbSKH1n05B09QZKCSbMfXUl6FlUgeCTAY7H34Y3T98COmefuxLNqN34TE49JUvR27zFh2GmAP1kMh0Y99DP0HSz2Eg3Yr2V74GyfGdLkALkuhJt+KwM14HL61keozYcEmHRNmtIpeDszvCVsT5p7FoL+uhqQb95Ucq2XC9xcBG1RbVLMcpN6YxWf1zLi7EPGPWaMI3L1qkN55BoGEaq848JKZfXvRcRRHDZjcUqTncBratpkRoERwljoKgiRnh0OeYVqJGtEsc3VQss3S7Ep1VLHt7JBlmTQ41IQbFS+oV7k+8jJ5vzbwUmwV+DptuvRkDf30GuaZ2zL36SjSNb0XPg/+L7p/9Aj2pdhx02UXou/+76P/7OmSaOzDn0xfoLMpk2tKSmBPwEx5Sba2mkhoEyHXtRq5rj87oWqZNQ7BzE1Z/8WuYsPhUTFi8CK0zpyLZ2goEPvJdO9D96F+w7sFf4pBPfBITjzgYfdu2wM8X4Cea0DF7jukF6wAlQJDpwaY7P4+Bvz4Nz0+g4CXhJ4rwUdCBSBpFpPwUCh5Q9FLwPVVOLlJkLMBXkELvYYvw0usvhpegfmlhQFcQik+uRj4JJI47AemDD9AVFmM3qGZDQsmsUNl1olhA78M/Q6o3iz1JDhCOD5dXa9Jx2cNWX+ojt2EV1l9xIxIDBeydMxuLltyIZCeVvilA2LjUBAiKlpyXRmH+oQjSaa3vyUwfsKcLid4MUkEO8JLIohk90+dg0TUXo2XaJBWel0kAACAASURBVP1++dXPYNWV1yPtF3Vg2H34STjpugtdgKDPV1UTCth1zz3Y9f0fIokkupvHY96nL8CU44+gUlAOvb//Nbbe+Q0TkCx6CY6/7FwgkXAzsnY0iaaxqtmdQhHrblWVr78gl2pB0ymvwIKPvAfZ9auw7ro74LW2YeDoY7Do3I9h3zN/x/bv3Qd/zXZkDzgIR159EVLtaey6917s+dEjKLSNQ9uZb8G8fz7dBEemaGVMdDGP3j8/io3/dS/62ydh4RUXYssP70HfL36t+cIzHyqITQQFLRU+EsipmQfqJig5VMHYls4pOP3Ln0WyNUXyQyt2lexlVRtuWg9aEukSP+7eNGLDzWdU8j1ReymGj6kdwjS5GgCvD5LNqMWGh/AmaDupRn9Y4ntGiZfSR0d9pvPdwh8qqGVT2XJDK7ZgJwCUTJbB62elwB/OQw8GKIlyHlrUtSNWZUCJTEmRr27m+EasbcmQSAu8o9uIA3ttN7RC8UkJwJNt5VQAb+JWi50vG2ZeSpri6NYcsbyk3HTM8pJDRVVrzWLT7Tcj++jT6GtpxxGfvQPNE5ux6757sPv7D6I32Y6DL70YfT++B/1/X4velg4ceM2VmHTYPHOiDPUqYgWXXZj+7OYf3Ifd9/wQ/ek2zPjEp5DYsRK7fng/UlnlvJpRnDYVB/3Ta5DZuR3df/gD0v296E2kkD3x5XjZB8/EyiVXI79pB3aPn4qX3LwUbZMnUD3aR8+jf8TWz34JiUIBfalWTHrLWzDhhGONvBWzyPzhEXQ/9GcEng9//lGY+8EzESQo8xMInAiSCNpaMH7uDCutKlPXLYYnV6GYAHqnzUEwsUO3aGT1IVJ/05qgnEVy7To0FwN06wDhbMw65UTZwHKl10o6LkovOp7I57DhlluQ+/tyDKh++7veicPO+BcESQ6iVdKewfqly3SAkPAT2NXcjIWf+zxap4wnQxGgsKcbm//nHmT++HskfVWeTyLvtaH7iGPx8qvPB5qS8DLdeOq889G8p1e7uq4JM3DCnbch1WZaO1YP8v1Ye811KKzZCM/3sHfOgThh6fVItDXZZ9C7BysvvhSJ3Xt1S2TWRRdixgnH2rJ3OTA0MiW0AifsTuAj8/TjWL7kNjQlmuAdfiyK6TyS2QFgzWY0z5iN/PjxKCSVjcqhPZcDVm9CftZsFCZ1wvMDtOzdCezuQ376NGQ7OtFx2imY/7KTdIBIPk7/0/ML6N+yWwt72+zJWP+Nr6HnF79DUrUpoIKCpG5VpIMigqCgA2E1u6OC0USQQgIqYPWxtX0qXv3lzyHZoio5ogxYCexODPlVtzsuuYwDlivLSxuuOJqivqcRG15KN9UD2V5aJP1Sf6h4Ln3PmPGH5NLYj5s0Pd4f1s3LikBJup1Js8OcknA9kqJaV9gjsnhKVgQdxnizEsvoshwwRCXAoTBQkjlwsapm3X85upli926anTF068+uC5SoAt0VeVkfTc4gDj0vK4L7RGSgLnCfGngZ6ABhKQYefQbFZBPSp58MNDcBK55FsGot+hKdmPeZS9H3wD3I/H05MskUpr3j7WiepRwp31LpGgAq02yed7AZ0FKi5hew/b670fvd+zGQbMOEcy7E7JcciULXTuz99S/R9cAv4A/kadgLSAZpYPYMzProh9F++CHwigNYdcUlCDZ1YceEaTjhliVomzJBa0hh5zasuv4GpLbtVEV97Jt/JI6/5lJ45Jg8P4tdP7oHu+5+WEto/oSX45iLPwmoAEHNJfCWhYnubDZovIIq5eewQfXP16zXPzdjDC7QlYFBpGFherDU584nUpjxjndgxgkLQ7veHGAZ++y2e4yWlOqK+szMiiex7tpb0VJMYdf4aVh4y9Vomay2I5R5UpMjKugbgK4gPPGM/ugdzW1Y9HkVIEx0AZ36gv5+7PrZj3X2nyqoQcUkelom4fBl16Ft7nTAz+s2w47v3KtxJfoT7Zh10aWYuvgYk5sQP3JrVmDtdTchPZBFwWtC6k1vx/yz/lU/YLPaoIieR36KbXd9A4WgBfuOXISTrr4QXipFN9OaM6gKhmbtToAgn8Wef/wdXd+6B8WN2+AnCijqdUiToRtobXMyeu5GxYw6s09o524y/gRSqi3iJeC97a046swzzFyLqrxs24qVP/k1Dnv7GUh3dJqzQ4Dsrl0o9NAAqD6pAEFPFzYuvR1NxTx6WjpxwDnnoXn6RDuroX6zkGjCuAPmIKFkL3S+Ytizig0vAUoK6XjUFsptGRFAkk3ZP2y42K6qyR/Ww0szhxAKTq3vqeIPTX5vRwKHkpdmi4GrLKEyPefZ4aEMrTdG3o0OWeEyg25GGeKfsT8Y5DMUKFElQ2Iv8AuMPE3ilQlimuLbscZLtvsupXZnp6fR3dlRED+y56sr1gPYcPsy5B59ShtLlSkrctO6zxuYFsOllyHzwD0YePIpPXOQS5hpfvNaSdIUk1VnUh2Y+O734ZA3vcbMDgRFbL/v2+j9zv3IJtsx/mNnI79tLQaWPwNs3IRiroBccwrts2eh2NMLf3cXkl4Suemz0Lb4JMw4eSG23nm7DhB2TpiORTpAGK/nCLY/8jC2/+e30JzJojfVibkXnIfpJy2kaQClEDls++5/oecHv9COIveSU3HMpz8JtSwRbQKbYJVL5kW9fpnvzsBT2XWBWhKiu8ZHZ85NHDDpmQTf1V+WTMNPtKB13gGYMH9uaGCsVv0Nghx2fu8e7PveTxCoiserX4cFn3iv3Syw7rA4gI03qxbDM7pLvru5Dcd9/vNom2JaBxyPqHYF+nux/sZrUVi1Hh5UK6YTTR98Pw56wytMwLF3M1acdwmSmTyKaEHX4lfipRd/DAm9iaDevYid3/8+9t77Q3iBmrfowIFXfgaTjzqUrKdq6ZBx6t6BtZdcimJXHns7puK4O25E0+RxsfbL2R23Tmn5ZHyyceSFXqy88mp4qzdhIJXGpDPejKYZM0wbxGZ0HMCaoFD90Xsbql3z+GPo++NjyKtNjbefiaNVgAAfuZ1bseHOryK3cjNyCxbgoPe9E+MXHETBA38OW6IAxX078cwnLkBrbgBd7RNxxNKb0Tl7SkhMTI7JiH2u8D5yNryUl2J0ZkT9yn5jwyN+tZJcDhUvBVCS8SDuzgXXY5HAPjqcIMx29iq87sRtBvPfRL6IEKk7ZUuCIahEHWDKqJ1LFDxSTIVUXhPhzIosTJhuMq7cShArPG5OgXe0uXcrAyEHzKFjRgt/KWiiEzAJnzk5075zz4wKL7ngPAS8rHS+cTIgz1duPdjPqcBLbWOLWaz60hcw8MRyUzLNZJDMZ7UhK7RNQk+6DYec+3EM3H83Bp58FgobIJek0rE2wGZnK6VK6ipASLSh86wPYt6bX6VBY+BTgHD3/cgmWjHu7E8h/9gf0POP5cCESWg76kjMeNWp6DjoAPiZAez645/Q9cjvEWzZjr2Jdhz56Q9ix39+GdiiAoRpWHjzTWibPN6IvZ9H79NPY+V/fwvB7ENw/Dn/z60+6tJwDpu+/mVkH/4LCl4B+Ze/Bsdc8FE9sKdHNEV7RHpOL8jiqaVLMLB8I5Kqf6zlq0jAONaf2aBdTuCb+ICyVtsMVuNsSQReOzre8E84/N3KCZH7krpaQce1XOezWH/TUhSfWoUBNGHK+Z/CtFNPEm0Lap0UM9hws2oxPKNp3CUDBKkrJiJC7yM/wZa7/gNJP4kgaMXe007D4vPMgKFywKs+cw0S67bpz9rQNhWnfH4JmiepIM20cTYvu123M1Tvfffcg3HC0iuRbGsWMRjda1DMYOP11yH39Cb0pTow9fxzMOvlC0ttU0ifqJ4S5VMRJtAr9mPVFVcjsWYjBhJpjDvlFKQnjTe1FC5dc2RBn8uLlepsi2ueRf/Tq3WjwH/7u3UFQc1UbH74IXR953sY3+sjg1bsmzoF8z78bkxT1RM1O0GBIEWVKOzdgeUfPx+txTx2U4AwbrZas3UZsJUNmcFH7CUHqtIOhG04C63bnClrw2PtZQQASd4FQhgaXCg3pqMG30MbWc4gG4prs+HOF3DkKm24s/PCP9RCk12Ld71P6utTkCaybXYkw+YPuTgWz8tSGy6AkkJEs7OjcqONsmoCHHJdUXaa5pBEpFoJZMNWOeMBLaoBlkggDk6qjJk0B2EdeRS8SXRzWencPuzQgmw4OXC9rhDdkYuTrA3gUuVo8DIE3lSFl0YnnTkM7RaX8pKNmz8wYNYbfR+7/vdedN3/AHJoxZzzL8K4hUeo5BfbbrkR/U+sRa/nY/Jb/hXN0xUIEWVSgY+Bxx5D/1//ilyiFZ3v/QgOPOOV5Lh8bLvvW+j99v0oJNNoee0bMa4zrfEKEjOnoNikdxFp7s/Tq2teIYdgyw7senYTZpx6Arb/7w8Q7N6HHZOmYeGym9A6VfXSiwi69+nVyKCQVbVjoEWVlo3T01min8e2b34TA//3BPJeHsFLTsf8j5xlS3G2gsOBteoUJxNItrejb8tzQDYPr2gCA335EhtziiZsFTCSJ8b+p864k/AmjEP7tMnGYpTY+spyiUwPnv3keUj3ZLAn0YLDlt2AzvlzbbDBlUXltDdQBUH93e6mViy801QQTFuFddzwKb9lBVZffDXSeR/FoAk7Fy7CqVddTJgKRey6727sufchJH0fPel2zL7yckw59lDj/PbuxLMXfgbpvf0YSLag9R1n4uAz3yC6Zty6UUdTwI6vfgH7fv5HZBKtyJ36Kpx4zvv1GqqjyTVu4sCb2F4a36fkpR+rLr8a3trNKKhB01QTcmpVVi86Go7oNVvaXdEdGCT0BkK6GKDDz6ApSCCnzuJt78GRKkDwigiKeez705+x/ovfQHvODHpuP2AeTrvpMiSbmo2cWQHyUdi7G8s/cT7aCnns6RiHw5fcjI7ZU4VRptNRv0OtF9lWsivK1exlVMepxcA4MeHzrcxLBsKytcwIsFwlexmqYpfYcJpvi2LuUN3cVc8J90BWxWnt1Ka7JQBepOJlQcUETkFVXlYAb6oC8FSPP9TiZ+O56v7QszOKOsoVZiqCKsbgEab1Rc+RgDgADVPijIJsyHaE6cExOAMpIxsKJ+WU99RIEykoeyPTjwkfjqSbzt0+Yww59zElTU6nOLKSAYOtmBC1Ll+rke5h4GUJ8AeXoms932q8DJ1vZZANC6Qjris25pHzJgYjMUqsVrk2/eQnyCKBea98Bbp/8SD2fO9HyHrtmPmZyzBl0VG6yrBl6fXof3IduhJNOOS6azD5sAMp4E9op77jB9/Dnvt+gBya0fGeD+PAt7zKfGdQxHPf/zZ6775fO6eBhMosi3q3Xhlx5TbVEBcbbt27TxSR1MCNKW3mU/r9fewYPx2Llt2EtqkTgIFePHPdEvg7e+AHOSQCnzJ99Rvqq9WOO9Dan0WyoHrj0IA5Rb3rr/J5h8vAqqU40t3SgRNvuBatkycCuT6s++JdGNi8nfbqVWGay8SB/k61QqiiK8VLNaPACbrSa12lCAK9/z/z3WoG4Vi9Qmmmu90cD2eZFXVc9Xa2P4flF1yCdCHArqY2LPr329Gs2y3cZ6fKe3GAKggqqwe6mjqw8M7PoXXqBAuGZpAbTfKQ37YGqy+6Eqms6uCnsGXBMXjlTZfTNgfgb9uIVZdeiUQmj7zXjtSb3oLD3neGDhD6fvNLbPryN5AqFrGvZTIW3HgtOg6a7miiKFvLpV9A18P3Y8d/3AugGdsOXIBX3PwZDdbkdJyjL7YlEZtCumK6OqqCkcGqK65FYs0m9CeaMffcT6Ft/jwLRiTXSV1ZWwmX8Ur5Xz6I5+5/GDn1tW83AYJZg1XViQL6V6zAuju/ioHWCTjs/I+j7+nHsOexf+iAmkPGBApI5wcQPLtGy2ku2Qpv3nwUWpp1sMEhu2rZ9I+fhBMv/BQCvcFhTz7Whhv7KOcoXCbqEAor2cvaeGlseAzYXQmIG/fdRV2kJrA7opGz+hBQknOY+lPHjD+M2ssYXloEYuNfbTjWIC8N1LINQInZBARDliMyHh63QmLaEW5NkcM4BpXhuSfK46NDhfR9PKilxV22KSy4hdw6kDXZCN3cFqS6rT72EDQr9XhpfcZ+nyHP1BokWAqHKzXQVC8vbeROQYqhdah4SWZXnK82wyF+y/IWvTtllA6Ahmkioz8cvFQrWV278OxFF6IrCyxccguyj/4MXd/7MQqJTkx893vRtGAuJh40D8/9283o/9sKdCdbcfAN12LS4QosRh2eCRB2/eA72H33D5FLtKHjrA/hwDe/imK5ANt/+xvs/d0fLZqBAdoxv53qGwDWrtXt8L62CWg5eI5CGRKpj3LlRpb72jtw5Ec+hJZxHfD6+7Dioivg7dytcmDSXuIVuT6Np6AcqwcU1N4/hSOE4CDyHqPceS+B7pZOLLzjZrROmwAv24v1116PwtrntPNpOuYIBCrAUP1qFNCS6UPxyeWAX0Bu3GQkjjxU06Em2tVQXNPm9Shs3oa+dAemnvNJzDz1RJPV8qZSaAVELqG7KXorl8oXrnoKK69cpoOn59rG4eQv/xtSna22pWHKwcqxZbF+mdliUH+xs7kDx3/uDh1YlcyJq9XSNf/AmiuXaewGtRi694TTcOLFH4WXMEN8alhz4823IKOAl7w09sxbgBNvuhzJlI91Ny9B4amV2uHvmLMAL7npUiRbFSSxgtwODzMrIKP+R3+LjXd8BSk/geemzcTJdyxDoqWJ0hSXZdvrsjmMidpLCm4CP4PVV10Pb816XUEYmDYVibRZn1StJAoXST5MUGeHufwEWvZuB7p7kFODjW//AI4680169sLALZnkq3flKuSDlJb5jV+/C/0P/59GmOTATIFB6W+iErVGBDVe18g8ATKplsb2GXPxsn+/Rc9I6Cfi7A5V/pzKx9lwaS9de7kWG16rvSxrw5lu9hlDbMNL7CVPA3KEx40b2vIjM96ADScfRyuV3KpvlJcGIdX4zHp4GQkQ2EFQLmwrBDxQQs7EbjbIL3TOVdS7Qgh+LirjzzGiy87YTPoqneGMwtpasectIZRD3ySLOMSEKE1S6SkWsJlWdZocNUQ3x2myWiGrfbKpUYGXhgeEZmiqfjZQaZiXjKUgiLd5UAjKNIaXIYGqwkuTKlPUXZ2X4SdMBuR37cSqCy/A3lwCRy27BQN//qkOEDyk9S739pZmvOS2Zdj7tS+i//GV6Ek348CrrsDEQ1Vp2+T/yhnuvv9edN2jBhFb0HHWB3Hgm083ylEMUOzPUIneQSeb+x98dP/8l9h27326/D7hjLdi+htfI3AGmD/OmAapFBKtTUAuj+VfugvY263mw6numDRzD8ST9K4uYNtzurKgsnsVAKQOPFivM5agIeopgyT6m8fh2I9/WAPleNk+bLjmWhTWbkN/qg1zPvweYIpprajKiNe1Czu+9k0kswXkDzoEM846U7sWU/ouIvPIL9D7p8fRm+7EtE+djVk6QGDzI+IE27owFjBWLtVa31OPY8ONn0OqEGBT+zic9pXPIdmuxkkVPdzQM1sMG26+GdnHzRbDruYOLNIBwkTRJCFrWyyi60ffxe5779cQlmoQMfHWd+HQd72eMmn16T66Hvwxdn3zHh0cdaU7sOC6yzB+egfWXHQJkr0Z9HmtSL/9PTjira83swHCiTgp95H52/9h3c3/jpTvYcvUGTjtjlv1ecp2T0hXOPyJ0XHD5z6suPoGJFevQ8FLwz/kYHhtbUh4gcZcUBgP+kiMt6cAzdSuVHsqtXUjsGUT8l4Swds/gCPP/BcKINwAw55/PIWmzglonzUJ679/D/b87q+EwKiktoiW7r3wCqqkkMJAykNxfKsGamKgLlWvSupEx8eeyTPxqpuu0nMMxmkMod2pZsMr8DIql5y02SBIoiFSbGSy5up2p8SG22Fy14B2QUs1f8ifRr9b0V5GfZ2xeawr8Xa+Rn84jLysHSiJlKw8UBKvMpYBSrKgP1xM5FUXWlGkCHmoQTbMoPBgQTZM1O5ANpwI2ohOK5Uoc7HAVgJKepGXRuc576HKTLFrO1adfwH2FpI4aumtyPzlJ9hz7wM6QCh4RWxt7cDLbluKrq99CRmFUOel0T9hPIIkrZLpk/LRmulFqj+DAa8Z7bqC8GrzTds24y83LNNOzWTPBb1OpzCVE56P1t4+pPIZnbHl2zuQbzIIj4S0rw28KuOrbQlfTe4ffChOuPxcU51Q2wUlg2jUTitksOmOzyLzxDP605TryyoHctIpOFoN4GnEyMgfHXsnkFCwu8qr5Hqx4ZprUFyzDdkggX0pyggT5h6JZj+HzrzpcWfSTehtUt9iPJlqi7RnM2gqeuhpHo8Z6i4GhYMgy6s0K6GvpiY7Wwo8RmVmP4C/+mmsvXIJUgUfG1vH4eV3fR7pThXsOH3W/14YwPpblmFAAyWBKgifQ9u08SYuI3es1ahnL1ZeeTkSW1UlJoV9Ta045OqrMP6IgyzipHIe+c3rsOLSy9GcK6I/2YzUW9+KQ46eiw033oZk0UN3xwwcfvP1pkrB3VDtlMVKn55V+T+su+0LSBUDbJg0A6/6/O1ItqTNeWq15nkl0nGutlinFIHtLfZh1dU3ILFqk6Zr1tkfRdv8g4FkAQrbwg7l2KMmDAtVMSgGyP7iYex84CHk1erhW9+HI9+hAgSzeaEAjtSq58qblqFv3XPITp6K2e/8V8w68jAKSIsobNuMdUtuhden7ppogfeKl+GwD7zbCIjGwzMDNmZ7woeXSCPZ3Kz/2g7yRewlF5lsPYxaDWFe1mDD6+Al9eXK0lROLtnOh24WtZVZWmWnxX17vnYIQbaRDKuoWeYA+BoASpKFunheDp0/1Al2jcCBVXlZDigpVH60O+YC9U6om3WbZUE2rNe0pVQTpdnTMQ6DetUUW4V2Qm0sFwGrYGvGwa+rPbCVo9+MfJ8rydmwmdYUHU3swhhcwgigGN5iUFuaoYjdC2Y+WePC+/qyjSKjX2mduXJTShMrEcVVFXjJxQhJt+FwPPCHW4obcl5qiF1hWkLgTeqSGRUgXIi9+SSOXHobso/+RFcQ9MbBG/4F6flzMH3RcXjus6rEvFzj15vNBeaPgx1Wf5f1mtDx3g/joDNeZTZ0tqzHM5dcrvvmhUQKecqwU16AJn1DZAK5pMnw1WerXrbKtnIJhXxoZDjt+0iryYViEgOHHYGFS65EwJNnWlCcPOnfKBaw84EfYfd3f4RE3kchoXF/EOQLyKTHYfJ7z8Ss179a974px3CRE/+NYlquHxuuvgqFtdvR39SB+ed9DJ4azlRVahXC7NyO5+64C34hj+Khh2He2R/V0M+6tl700ffjB9D1u9+jp3kcZnzyE5h9ymKTxcbKZVg3S3RFKe/2LVh13kVI5IvY1jZetw1apqg1QXYWlCj4A1h38zJkKUDY0dyJEz73WbROU8OdVD5U/zLQh633fg97HnwYTUUFu5zCtrkH4lQ1iKfuubBzKyroyGL9jTeguHwFsn4a+SMXYsac8eh++FcIvGZkjn4JjrvyPOMM9dmwc5D6VMTuhx/Arq9/R8vG9nmH4dRbroWXStSs48wlqrXoasnKq2+Ct3qDgXXWsyie9s22ny3WqFTgmVDVH51JKjyEJFJBETk1KKmGFN/xZg1wpP6oACEY2IeVF10O7NqLfS2dOPzGa9E5b6b+ud+/D2tuWYrCsxv17Eb/jDk49trPID2pE8Wd27HtZ48g0zYeh5zxBni6paACD1XVoDkWzr6rACVJ+Y7acBPxS1wFsT2gf2gyYvOdJpp24D4RuyPk0gYMQ2LDS21qOZpClQzZjmvYH3LUynY/3s7zGqzBImqAl2JGrm5eMtSyNmvch+RpTau/RgU4ojL/4YY4+JB5OJFbYiwE/LwBcKAmCJcvQ2mXGIJh42iDBlf+klDLjdBkbj9zYBb6uGwvSQYvoW+x09c2PaEpU84QXuQlla7r4KVOkPY8h1Xnfxp7c826xdD/6EPY+70H0JPqxJxLL8GM445UnhWbl96EvieehZ9oBqZNBczyQagqoc4y67ViwpvejHmvXGz20LasxfJLrtAVhK1tk3DM2R+ElwyQffxxdP/y9/quh45XvwJTjz9KryXueeAh9C1fi8RBB2HGm98IrykJf/sWbP/Wt4FCE7ILjsJxS65wACU2MyRwRYWo+MRj2PTvX0RTXxbZRBrFRYswbdZE7H3wISSCNLrTLZj+vrMw+zWvRKJJVULMbX6U/JNZNQHC+muuRXHtJjVxgGDmFATNae3MVIjUlBuAt2mH3qgotLUhP2sG/KKanzCtq/Tu3Uj0q8uaVAXhE5h18gmuxUBVsKiO27kdYQesjmd6sPqcc+Dv3Ye96U4suOlGTDhEzYK4GEnbAdViWGYCBHVKXU2tOO62O9A8daKpChQKGNi0ETt//nP0/Ob3usqhKkZ9nRMw/VMfx8wTj9KbBe6P6q8X0ffrR7Dty9+AX/RQHDcZqWQRwd49yKj1zfe+Fwe95XQ7BOloEnJZzOO5//oa+h78NfJeEwZOPh2Lzv+QjTV5Ar+ijosER5+XX8Cm7/8vCurGSOThbV2P7KoNyKMFOPhgNB8w276GsnQKHMnbsAGFdWv1/RuFOYeiZf5c5D0PrSe8BAecpNYuKf3yCxhY/jesXfJZqHGMfXMPxeKbVUCj2jhFdP38Qez872/BK6bQ0zYeB3ziY5h60vEY2LEFK5YtQdvWPuxp7sBB5/w/THnpIgpCxRQIyUB1Gz5M9pJ5WdavUJUjYlOiNjzW93CDukbfY/WgxB/ybYz7uz+snZdmi4H6NzZiofovO8vQTrvo/0iHWsszUtnM7wpwJYovXVWBIs64Z6gkJvtOtqQinHz9NInSjDSK0a5kGbodDSRIJo4yRp6hquWe7mB5GQLDCfeK2QK5eWvxNxxsMU06g6TcTPTwRoeXqoKwba7cQwAAIABJREFUBavP+zS68q1mBuHRB7Dn3gfR1zQOsy66GNMXHaXREDfffAP6n1iNfU3tmH/1FRpqWfbwyPrRX6ksUpX/PWDzWqy45Eok8x5WjZuD13/pBuRWr8DqWz6PxEAOhcMW4qjLzoWXTiLIZbD9v7+Nnt/8ERkvhakf+gBmvfY0DKxfjnVXXQuv0IbcoUdh4ZLPmEzV7pjTsEk2i67f/Qpbv/4tNBfVXQxJ7J0yFYtuXYJEOsCaJTchWLFG07031Yrxr38j5r/zLUi0KjQ/9RnkzPis8wNY+ZUvIfvcTipVc5PGmLOmgRySm7dqb5JvaUd+9nT4nspODSqhajgkgyIyyXbMfec7MP3Yo4ylr0Mu2Vvpd83nsPbmG5F7YrmelJ943vmYc/KJFCwx/ioFCAoH4XEVICR15SaYcSCCZEHv+Gf37EGqvx8tvoeUCgTUDZzpdox/59tw8Jtfa9cOdd1Jl01V3u2j+Nx6rL3wKngFNTHp6cxfpeq7OqZh4dKr0aKAgWICVFO/CuAVM1hz3TUIlq9Hb6oDUz55PuacRo6T18oEi/XvcHbMusL/XQzQv3ULgqJqHwWAajep2x1//St0P/ywDhDGv/GfMfkVp9iZFjObkkfPr36Jrod+BngppF9+Oma8TbUV9BCKhmAOOscZrI3CALbceQd6//w48l4r/NPfiKP/37vh+T4yy5/CxltuRqovg97mcWh7/Rux4P3v0BUCL5fB1i//OwZ+/3e9NrprxjSceP3lSNmNEy6nk8WoYgfCNjxsL02SG65U6qpBrA2nSsOo2x2yz1yhEjNppf6Q2gBDYcMjiXFj/nD4eOkF6rImmywPI1CSLJFIr0mpkrGDtQJaUJma6JYAGjw8HQfeVC+4j40TywEl8R6wpVv4qeEEnXoe8lKvae3aitUXXoR9qoJw01L0/eVh7L3vAQwkW9H5pjPgt7SgUCyibflj6H9qFbqb2nDQ9ddi8mEHhHrZJrQUWbjeA/MQbF6NFZdcpQOEtePm4KWfeBe2fPULaNnbpy9WKnRMRLGjCcViDsVCAW0DPlKZPnNlcOtEzP3QBzBxznisv+oqJIotyCw4GsfddDmhIVI1yvdR2LUL67/6H8g/9bTu0eeRwN7WZsw/5zxMX3ycJiy7aS1WXr8ELd09esgsm2pG34ypmP/+92HiwmOAlBpypCABAfatWY3df/4LTUQkXTykr6724XV3IfPrPyNR8BFMm47UyccTTLiqSpjn9TXWqmXS3I4DX/dqNI1rdSuOrpRWFZBGYwIUfez68X3Y+T8/QBoJ9J7yahx33ofJoTtwM3Wbo8FBUDMIaqJfL5aqhUZdTTQzHepPGsVkGt3t7TjgQx/A9JedaGYzqGvDOm6rdGrt89rr4K9arwsR6lOKiTSyJ56CIy8+G0iF4aoNaiAPfQFB3x6sOv9SBHu7sa99KhZ+7hY0Teg0/XqO6KkmxSVoY6piwH3yGTz16YuBnX1I+WquxUPS8zRWQ+Cb1UI/YW6x5Aab/jtPXd4FJIpqsVfd+plGLmUaF7qPHDQj+4rTcOInPohi926sOO98pDIZ7GnqxKGXX4WJR89H/rmtWHvzMqS2KPAoD7njT8ERF3wcXlurSU4CH4Vta7Hm8muQ6k8gk0ii/7jjsPjyC60MGfNFZX/mE2UJoiNi5IJ3T0K764YnVe0l6yVl5pKXIRtuXQEDeJnvrQkoKQ6kry57Wd6GNwKUVOJ7qtFkanE1AjwNpz8kIATbE5K5mASrsKV47iSFAYe4xiv8PL+i3Ws1r8yrinFAOs6oy1I/deVJb6m1YQEtaEanDN0cqInqkjFIYoJfrmeWgPuQvTBtA6KfsjsXV4XbLSPHywhsPvOAVpMMYEm4bVIrL7nMFgZvchsnnFw1yksDkKIypjw2f+t/kH3opygWEvDmHIDUvu1IdvfpSYGBZFoPbw0cdDRmN2WR+cdyjSUw5QPvR9ssAvsRlR7uC6scOj1lMibOnoFgi6sgrJ44D69ddinWXH8lEs/tRi6pNsibdbbjJ9XUOc1oeEW0FvIIis3omjQNR737zdj+pTuRKqTRd9hCLFxyOWH855HbsBnbHv4N+v74FzT1dCOhtiY8D3taOjD9/e/CvNe+isrlRV0mz65ag9W3fRZNe3bTTHsKvck2NB1yMDqPW4hJJx2PjjkzNHDT1kd+gU3/dS+tZJq6AO0o6Kw67efQki3qYEFdCtTblNbDlhp+2g7nmVPtaW3D4huvQ8eMyaH1X4vnTmBo3GOP1RX4yK5fgVWXXYXmQgo7Oqfj+FuuRYvC/NfZPl1sU8xi9a3L0K8GNNVgp83C2dGm4KeSSEybifEvewmmnfpStEyfDk+9NA1M8liHmzP3NS5A7x9+h9Vf/iq8or7RAPlEM6Z/7GOY/aqXm0w9VscDBH6A7l//Cjvv+gaKanDziONworqLoSkVajHG6kqJPqlgKYsnr7oGhZ29ukrT4heQ6uvXwYHK4tW1zdlWdWGSwLvQJ1FEcyaP5lyfPv/epjYUNDYGt8xSCF7+Mpzwkfch87fHsHXp7Xqldd8BC3DcjdfC792N1bffDqxbrwMNL5lGcvFJ8KaruyuKes7FLwwg1b8PwYqVKO7t0zc59qfHY/IHzsLs151qKj5ybVlsuIZtoQTy4cHtBm245WVlG16XXEbBmyKAfI3Y8BBYVq3+0A682rrm8PjDYeKl5wd+YKYe2fGKmw95B5ZE1qxlyLVECrZ5nZohW10jyHWGKSIVkA9mcEd7GDH+zSuD+q9EMCBLV6ICYaEwuW/LWRcD+ojIxZa65CAOl9i5gy1psg1AV7C3qynRcppc0YzyMoammnnp+hPDwku+jMoMDEkQK9qLVt86Erws5LH26qsQKBx+GlLzvCyaNAiMj3xSIcglMLBgMWYk+9H/1NPwE0lkEwbkyJleZ17Vv2USCaRe90ac+IEz4W1ejWdVBaHgYeWEeXjDF5dg95//D3tWrEbHrJlIjJ8Ir7kZbePHoaWjBcnWdn0dc88Tf8eGr9+NztNfiUkzJ2LHN/4Dnt+E3sMXYeFNl+pd/7Xf+CZ6f/07NOd9pBQwkp9HTl04NH4iDnj/WZh+2sv0ILumjsCMdDtg80asu/ML8NdvoQxf5cK+noLfNvcgnHbFeUh7Poq9/fBV0KH1gHfb2ej4wJ692PCFr2nkRxw4Hwd++Cz46iIoJc86k2Ql9fQAYGLKFJ1lpjvaTFZoIj1avWIdt/VW9+tSxws5bPnCZ9Hzu8fQn2xHx1vehkPfo0rkJjjQDtYvYM+qZ5HrVk7QIDiS1dD/SDY1YcKMGUhPnqz38TXWk8tTDU1CLk3iSl4gn8W2J54wm6UKyCqRxOQjF6C5o11UAigR44kEZVd6uvHsJZehadde9KY7MP2Tn8LMk49DoO5MCNnCSMm8nN1R4lck3fGzyDz9FLZ94avw9+3Wq5oDJy7GwvM/CaQJR8PSkse+H9+PXXffi6LaannNm3D4B99JVXzacEik9NPbvvZ1ZH7+iFmi/afXY8FH34d9f/wtNn7xy2gpqH0Vs+arKmHq31P6dkd1KZQZclR/q3iphh6LSGO7ChJvW4q2mdMoO2e4Gx4gtLUC0ScN85IythG24TTwWbMNZ88Z3lIo73tozX5Q/pArHaW8pH7XsNjwWHj/IfKHVYGSGGDBRpP2XgPj2DkzN+VQh4DFk1bczy4PgiSyUrnFUAGUyKA10pS0qAZwGZVCDleiZRQwC7dJQbO2NVG6yXxZoKRywB88Q+EqIvp7K4BOjQ4vy9NkcdPHAi/9IrZ+8U5kHvm7Fh2VBeeVzUsnUWxKo9DRgclHLED7sYuQ/eWPkXniWTo7s4oY90et9w2oFck3vhkLP/g2BFtXY/kll+sAYfV4FSDcYgYctVHlP2ZHnMulxX178cSFl6KjN6vpSRdzaPKLKHqt6Ft8GhZe+hEN29vzm19j613/qeGQ1X/nkkn0zzsEiy+/Ap66lpknuEMyRw5+IIP13/42dv3yV2jJF9EUeOibMB1H3ngVmqa24LHLroW/bafYmTbOXL61oqmlaCB9c4k0BpKqlhB5SvXvdQafRBat6Hztq7Hwg2+loIXWGzV9XM4tr+M05oTs1g1YecnFuqLSO/kgHH/rtUh0mPsxDJXh4VG7MhxacaQJDgbw4hChnFxqOxOuNrrzdxOe0jbpcEUPEvro/f3/4bnPfUlftd1/zGIcd9VFJm6xpXa2IFV0PJSdBihk+rDq7m8h//Ofo3VA9Q6S6OqYhaNvugJtc6a7thCdi7qOuev+76Pr2/fpwdO+f/4XnPChM4lxVP0LikB3N/5x8eVo392HnlQzpp3zccw8dTG8bAZrLr0K/pZtyBGWgQ6m1OyBCpwViJYOFFTgpSKvHNL5jK62qGA7e/o/44SPv48r5yW20CGhlrOXZPCcD7a3klpfYKIIiiUocBSD59ZeCpmLArRFfY/pUFTyPcNjw6vZy0r+sISXOjcWvifEJy7qDBJ0qgIvSQ2sjlfj5QgCJTnQB5rLtTpdP1CScexlAS1IJN3GGRcLzT9t0ELBRa1gFVEnZOsK9jbBCjQNKehUHbxsBCiJXBAnbbaxb83+EPIyCLDrL4+hd+1WTJo/D6mJ4/Q9BImWFqRbW+Cl0xYBcsPDP0X/xu1IULk6fC7GbZqwQRVxPTQdcSQOPuUEYMt6PH7pxUgXPawZdwDO+OKtSDSpsjevocmiMrXSCkUsv+NzyD7+lO7nJhU8seejp7UDR376Ykw8+hATgRWz2PXTB7Hh7u8hN24GDvnAezF54UIDpKQJKg+EpZsFhRwGtm7Exvt+iK3/WIHDP/wJzDx5sdpfw5rv3498d08oiClxiPovlJejzJPOjh20ybyN3KhFTTUH0HH44Tj4tBMddoEYGONGYiW6tekv5rDrRz/Ac/f8AL7XhsJLX4oT1Aom37DIMlQVkIaMvuiB291xZylMHkw97Hi5jDgHmhnQOh4EKGzfhJXX3IKmXb3YPr4Tx1xxKcYdOlfIQFia6tFx5fAHtm7Gc2q49Ynl6OuciCMuOBcT9G2SERkwzMOOB76PbXf/EL7fgtzrXofFH3qXa4FS9d/P9mPv35/Ejp/9FmtXb8Urbr4abTOn6PfZ/vs/o3fTVrRPGY/2SROB1lZ9bXVCzbAkU0imUxoISf+/52P3z36CTQ/+HsGhC3D4h96NCQebzZNaeCmB7Gqx4Q3ZyzpsuNu2iehvVOZ4PUi2IkdJLscqL912ouFlyW2O0WSM7IqDBA37Wqe6AkCDqllRGQrdWW1/GD5T8QzldLbk78QtTJNovojPYlunhce2CljqxGfVRTfnmXIAggwSVw7CawshHRkemqx6V+B3Y7zU31Azn2rht8sqxHSTbWjaapMYKuP0y5y9uLaX0mibLUatErVIkEzA6+3Bjr8/rgfaMslOzFm80BhOqlrTSTp5MTUxDGzbgf7dCrzHQ0JlZ6kkOmfOQKKjnSbbDZySn81i29/+genHHItEW4upKtpVqXiZkxUngxxURH/XPrQpY6+n+lW2TPjqPJRrKwOu7kFRiMvWRIAQ0Ryb12s+6w0MysYHoSuqn6+QGtfc8W/Y87e/o6elHQeffQ4OWMxbEkZXeODSyZKQgUHqeF1yqRpVuX6suOsr6P/TE8glWzDvIx/GrFe8xO3uc7tTfzALVu12x2S6PrxcAdv++je0z52LjrkGp8DImKv5mHP3MbDjOWS2bNFDmomp0zF+zixbaQhXI9V10j76urr13RwKyyAU/BE8PP+ybNNQ/q4Pudi9B9ufWYtZJ54IL80tXmHDapKBiJLVYsM1A2rnpZWOIbc7VeylprNWeyn8QCwParWFw2/DB6vjFCDQwYVwmkWvT1s68xJ2kpXCe7cSZ3qFxtqI4TiNPuX6Rtak2cslzHS1NXB8ODLKYyGhz7aekA0mvb0dZhJgSqZsSNEQC6mlybwjlx813XzmEZrEJ2hSjaOK0C0NHd96abXYrjxQKdNFWhYD3bZ8h5KX4fK7dfSxvJTna15Snm+Ul+ZnDoe9Vl46Z0aGKZaXYUXV3BosL23uzbxwjlVOtzvJjTlfB/Zts604XjokwWq8pDJ5VFfYjobkMmKQI/8py/jlnow+YzlRRlfMXAIFKDbLiuiK9qNG5/2ePuxbtxZQk/jNbZg6f67GaDL/E6fjQyeXle0O6bi6KnugF91r1iOhSu9NrZh4yIG0dcHVFQYNijhM1hU5zGer63w5nWtHuGC2go6Hztcge6rZASviXEnhcI4HjkMNNdsH1dUB/mPkktcK3CfaqpANWEp1vDovycSznS9jL0t0PGrD6+GlsOG1yyXZJvZGtsrrIpXabLhpuYWUfqj94VjmZX1ASZRtUJTF6GCmcuNucbT6FBo+FFkolXpiwUgI9YyjZ84m7XBgHCgRBxPVwJu0rXADkVxx4r+LpVuAbIRpCpf5eUPWxiAlIBuUlFBQwUtFZD0t0lpNvAwBf1AfS6CTsduVsNX6qaEE/hhWXoYdeHUAr0py6c7cxkS6f+mCBdcXL+WlMfE8tc1OXaRDVuYaAFGphZeRZ2xBXvcbqddvb0V1LZOhlctSXsqNHe41h4biWS65ildGnyjidvc4cH/B1jtcqaii3SnHSyprcpPF7IG4dpTFOajEyzpoijrIUmA5yUvj3E0AzAOobqiOJdAkMCIrFegb2nFy4YOiaXsnRojuOmx4FbnUiVIM1kSc3eEZnHiamHoTqEXPlwN3m441YMPdbJxY66QEs7quRHV88Lw0yZb0R+IiwhjbNFT+sF5eer5vagLa4FAJLFxhqQ1Ao35QovJASa5aIwYAueozguA+nDFLSGijFHEAT/Lvh5eXZhgmnA2XA516PvDSwreyDNQB7lNNLnVga6tV5gueV7zkLR0ygo3w0rWDKGxySw4WMnewvKScgy3RiAF41aXjUV4OFuiMe7B8JjGf04hcjhovqSXnXG8FfdofeamCF/2ObP/j9cAmFBXON4QyHBridDXAcIjofHSoEzbM/tAAJXHJJGREyHByqTz6DK8fcRjJQh+p4hJMozHCVOo34TK3Sx3IhnlGMEigWpkfkfkRjA99Togm/hy5Smm+2NIUHVqRdVgxeEhWyyUFlk/c7GC6yR2H3s2KiynZW6AR8f418tIOtgyCl6X8Hou8rEITlWWNgojSqeR3OV6GZI5LytQMq1MuG+NlhG79LmxojPCXDM0OSi4b4OWw0cT8djpe2Q7E6FNVXXn+8tJkkXH2srrdCbVlQ46L6ihRfRo2GRgbcjnqvCxrw6O2qZKuDD8v9QyCLrvJS5BsuYvWj8hD8kogg9vYyoMciArtCtPwky0r2ua9iRDs7VhutTkEimL3qakUKEAwDNuIbmplhLLlcjQRv13ZWNLEPTkerHLr4+YrzDfw/fD09W6wkgFmauIlERK6FtXxW7/x85mXQua4hSCn1in3qFEuw7ykMDA8nT/WeUlBQLxc1qErjFLHJUwxtlibjg8dL02mxWXZyjpOrs9CHMg8atTszojy0rUAozLQiN3h+Su2l6PGS7bHIyKXL3BeSn9I7X+5Cm7aVCbJsm2bWB+t5zgU4LcDSrKXX1DFwILkiN1A17un74kBSpK4B0yMyYBNAUq72jJASVzKZKAk25cnITP9QnrBKLgPD/cw0hWnKBYhzKVjFjumLMCTncCx1YtKQEmW6dRHC/OSesXcKKTBl1p4aW8D4uOksxgcL2kffLR5WRcQlhvatEOFFsnMwfrWxEsxYNS4XA6el3x2dhDUpdKloERcMbG1xYhcvtB4abFLYsB9xH45J8HGz4upnzJ2h0vHtQO01SOXkRslJU3aSotKpz3veIA2Oz1ckkSY1mPI7nDZv6zdobmbWBtux82NqkSficql3fxwbenh4KXxG5RC1A3SR1VcloFQ9VA4zlgbLkDjYv1h7bzk6e8hkUuqKsWC3UX9YYRutwsTc76Kt4H+E1oiC10sFFKtEOAQIx3ygCczh29s5IGvMqAPduMhDoxEXoUs+zxikIP2+7WOSGAIGz3RFLYVbP5MN3VvZKROurlyYXvV5YGSTDvDDbmNDi/DQEmWJs7s2HSSbgwPL6MAKdHzrQ5IY4SfeEmRAF+eY4oR4ipyDhq1bNR5vhXlcnC8NKM9dL0tbwcIULGqICp2KIsvvpEyN0K8HIyuvAB4ae4HqFMuB8VLuzZhYaxdElajXNqiKwPasbOMt+EjLZfleOmCkxgd3094WRU4sCF/6BL1OH8Y2jws8YfCj8fwUgcIPD7g/il6Wlx6KOn72xSda/R2/4VnBfSn2JYrR2e22GVyWDGzECmwuxU7KpPYwQX+RTGvYPx8ebrlKJr9TpmRyzW20NiCm3UWgT2Rwk0NC4JgW31jhpcMKmNX1SSfXIFJzn40xsvw+YaStciVSjYRGILzdXM0g5VLCiR4ziVOLhvhpd2BDw/9VpbL/YCXMvGV081Cn2J1vAZeumEwajiwnOxHvLRrr5x+2wTDzS1ZexnlJVcWRoiXcgh1LMrlYG24hfvlZLAGHbcFvZBf4cZneEjd2kshl3G8rMUfjpS9rJmXagYhHhjClbd4BckqLBtPUXaSg7m8iWOHryhQcCUq6jiGBmMoPLD23ZV7pEMPDSqWAbSwumj6GG7qVAx78WGFaLIBhws0OC6yWSBHCTyAwKtGFYGSauClWLWtxksWXofBw6ubTPeLvCx7vkLhhf11+Bdc87dDt2OAl5T5yUGz8nLJQbegO1KKDukT4ZGU1fHICrjYlA0FyVV5yZUcPXtEiUOoZUZBgHSGpL+uFcTPhGeD6CONGYucr51rkdhmoWSnwvnaBEakLmVpcll5LC9FflRCUwzdFXU8ystK5ysHu6MgSMTOsL0kKXue8JJlw8mcq+Y5QaxRV4aVl4O34fb4h8EfhoGStMN3wB+uLWpCW11qsOVdWzWl+CIC7iMANEymaFJYZ9h4xLEURMXIpotCzH87EKbQRK6tvEnAEm5R0XdGrFcY3McWPsy3SuAP0berSlME+MOUxUafl8YGPM95afuIMeA+vLVCMiDPt165LOFl3QBeTi4lII0dtg2BTgm5JOx645vsor7Vp4q6Uq9cDhcvpf5aTx51+IPT8dHipYE0qaDjI8VLm3ZyqVnQJFNhMgNRul1LP2zDOeJy9jJsw/XQq53xbkwuK9GkfU8lXsolsuG04cPIS3e1+yD8YVXQKekP6+SlWnN0hXJGQIwBq7CzYCRlJYAWERCVKLBLBBjCbk7YoMMoWwnIhkWai1ypHOqMDI4mN9Tm+sMmSBC3S4ZoogFLiatPJUO+3nZ0eWlH1uvipan0cANncLw0SixlgEKqunnJ6I2y8zVUchlDU1m5bICXw6ErdcmlKyAa4/8iLx0YWnjziZs4zu5EdXyUeBkBQ3P2MkYueejbhCvGjcUBDg2HXNYI0GZa7IPhJYMnmXfTdqoiUFJlu2Mm93lrzwWojrrh0BVKLaQtHKw/tL6nMi8No6J+vH5eGqAkzuxDJRQuNTHDJKynE1LO7mU2ZgfKQmU18x968MVO8Bsumcl0PiL3DLstnvEKP8NlSrPN4KodXF8opVsMv1IBmXaKLU1mEK4STZQzmKSPvCoXIO27CUUNtwuGhpf64F9AvLQVEJankNNrTC7L87L8+ZaVS9km0oIySLm0E9ouWK0mlzbEqyKXjfCSPA9PHQsYbqp2lJXLRnhJOeoo8JIrtnG2KdT2GIRcxvGS7Y4pdpXT8RcIL6lqbCu3MkuWfkVM8JtZg7ANN4sV+wMveTVzsP7QbcnUanfifKZJ9Jzd8RTUso6ZSQ8NEIfZjzS8lU6N+zdmqIAaBu7KZy5lhyK8kDklS+JwbjjaDTUVhMKZ8y9PE0+2G4J5r1NcBRqiyXh0B5TEwxEUSUYm4c3TXJejXMPyiaAc5JwlBTujyUu3Skrv9DzgpTHUTga0wrMzjp5vRC5DbYE65bIRXpLy8Hh4FV2pJpduSt3uxHPyU3K+leVyKHlpptwZH6Sarsj8USQYQ253orwMB2m20mXpFg2aenlJ9rEmu1NFLhvjJaVp+xMvRUXBDebVqOPDaMMdaBmZnCHzhxG5rOBX6tbxEl66TIXS8vL2sgovqwAlWX/uem2UGZEuWZx6LlHXCu5jBh5rBFHhq51jgJJKgD+oAhDaPRDDG1G647YsHHBPucGjeLq5jxYPSPM85KUwSG5a22Q/JsMSgCUcfLmmJQ2PDoaXbmjM9oDLyKWdvpAyUIHuuuTShK61gftUk8uKvIwCJdUul66IWh0MjVH6ODsu0RX+sLjzjQFaGTpecrDr+G0SFyo5U8Zt6X6RlxXkcjh5GQGWs6X8Uh1/PsolhQBDJJfleakDUsZ/YCVlgytaPmybwrpiMQ1qBUoyJQIHSiTAX/giGK6l07yA7G/pLCsOlMiukoTqb5G9Ro7ubb3CZorGvzDwBw9u2CYatRRcedkMKlE2UJYmkeXYkpXcMOAZCLGeoUmL0Mc7+XKtUqxDjDleRs7X2Pch4iX3f+wQKsN/7t+85N69G/C0iCwhXRkRXlrMhHrlUq4gDI2OW2AX/dFO39g5V9UVYciidmdUeCkrUHaY15WqzY2tjeiKgFqnQCYOoM0G2KHNjip2p0Fe2vtcqtnLcjoelcth5yW3j92cVBhwiCveZtg8VK6uZsNHjJdhfygmCai0Tzo+RnjpKaRlE3DztqNjPhsD05OIoEhxiY76FdTlEZsj9Kk8VGFTOXLktpwfBn/h1JPxFt2lRGJlUQhmCOnRKqDpocTT7aJZsRdl6XbgIKLC4dJh23/Vam9vz7MvR22dUealveXNcNOdr6MzhGpZ5nxN8Ee85OEncWunlprSvbeGeWmLDHbUkvr5NZ0vX0Hs6DalDMbkqFMuh42XEWTNMctLjtntpE0ZXroLyqh0JMCrhlZXSuUOYyO2AAAgAElEQVRy+HjJQC52+E/qE1WtjJIJXSlrL8ceL21iRevg5XSFVzftsBfbBdOgDoE3ifJhyF6W8NLG3FQLMgMDDfOymg13oGpDK5f18ZJrKLX5QzvwY5Ngm0LTPBqjig4tL02AQEP7NsiqBjhE5VIJAczlREO2WBe0tSReYSLxEYGDDVBrANLRZophSsXqqGkVcLQvmEf965poshPAIm/UcwX8h9D8LL+o92evWjUAGrEAQPSShk+CvkHwUgdFliZ3+2AsyEYFQJoXJC/F7KA+hZHiZSVwH7mjb4NRd8BuMp3ngtxAL4eALHOy8mFdutQ1Tkpr0BVRGqRszPX4SmgaRl7auYFB6Ao7PGuOK9odE06X5WXE7jRiL81Utu0Qu5lFIrQeueTbR+PsTlTHxyovXQBf3Ya7ATljR1llrO9pQMf3B17aiIAb/A34Q+FGqCccsTv1ACXRqkGo6ur6HGI4yvZF2IGGL2qxVXt7srzFIDsMcmLITky6EEJ+SMkesERw5G0MG/q7b7WrJuIZSRMnrhKcT2BByIjYbTXIEpKLEm0pSbYsohVE6meHNx9EpEk9b54+dUBJrCeuHKpDiDhAGmMDZW5OhZQ4uhsApInIgP5G7g1Hy3/OOpjzrQY6FQL3YYsaf76VeBmlyR4HBXAl51tCd5iX9sdi3kFGcoMGpGmEl7ZDVkYu9wtelkRQoQvSSGRqA0oaNl6W6krIlAg/5uaearM71oqGFGgEwH3EC7CdrwgsV4+OV5TLanbHxQSxoFP7gQ2vSrfAdigF6RtKG16Zl+a6Z5vdcI8n7JRkeSmUeNhsR/SE6I6EkPOyTtX1820iY6cSOPXmqNDlyNKPhqYzaDYilqaI1bBgD9Hv0w6TVNC1mcmul9IUT7eYVHuRlyYLe5GX4YKWNFoiSKxJLkXsY7TihSKXYd3UowA2wRFYJUJ/beu2nG0aQl7WY3eq0d2QvXRDYBHXGD+zUqsNHwpeRjwJeSMxYUf2cth56aJ3W4BwfkXo04u8DPtDfd2zKM9z/9eNIJHzjOyei9qAzUb5GknNYznwQ5rtfofXtlht3HeYBJejYznCQQUknuDkMhJNM7u+dcSF253yGJokGAnrUoRu2xarQBMHWHaLjqT9BcdLnqDdj3gpz1dLWEh2TSnfnm8VuQzPl7nh16iu2KG3Mnzi2Q67tBujT0Mhl26ZWei4nu8xulKvjg8ZL2UYUMXujF1e8u79UPBSBdzOFnL9z9kdngWKsZdDyUtbyDHlkDg7Pxi5NEBeApUx4sL10HclXWEQsRpoMslLbbxkj0FvG6awUbncX3ipcRC4nFEJKMn68vLgL5qhAtCCD8KUp1ioeHiMat2DAUoKD2e7a6MpNjCCS/gNXM+jNkSIJqplS2CI2gFpSMhCAE88KGLeTQStVIRhmrgsPjheRkFUDGcHCTq1H/AyhEXBbSF7vvsnL/WJaatH7TXG0KAA2RznYICSKstlI7ysRJOWwQi4T2W5rKQrAufCQp8LXYnIQEW7E9VxbtPVYHfiAdMc3fa6+li7U1kuR4uXxrMPzu7wGqwDhKMQ9kVehkYhBELQyPjDkkJReV1xo1DxMhCVS4OkKHtH7GtIvh1Mq2gjUEPKRlZy5YkMRRj4w+UjnGXZYRnxfbYMJ9qlrh8t2h8SvIl+n2vaYZpi1hr1u5Lpso01+7LGKNtn6gVRcduXonPhXrmEbh7cJKAqBgCiQSrj98NXnMp8ZGzzslFwH8dLE2hJEBUJHxyRSwb9GmFemqMSoGIV5VLIVRx4U4lcDicvq4GKUeWuJl1hT8n6JK4hjo4RVNDxRnhZCjgUNWiDo8nmR8IZujS6VoC24eGlSYjC4HPcYY3nZTkgnbBcjm1eDt6GV/I9L/LSVgsIqrnkNkcLUed6yeyJbMYjn6FMh8tCPNqrz8+BMvDqiSsJ2tTAev7yA2rm+0yWEj/EZrAH7IABOXr6C3mjYy00ife1d2nrNokwgA7Kr8JgXS28tHUxsjcimBpJXjJfNMbDcPKS+sgN8VLKHDeVRbuK/rWszNUiA3Wcb4lcjgVeaodRbuCznP6OPi+NYxN018FLO0Rdy/mW6HgFuRwlXto2bwO6Mvq8tL1gl2WPlFzawqpp9hpI/8Hb8HK8FDCFjdtwKZdlB7ar+8PyNNWn416g/nBZky6ysHGkbBfU8AwjNrneu1A6/dluvoB3UTnRMpUv3gnlmMFkz9FnuLRXC902+aRJCVtTEO9Wnm7qQctdX8JgqEY3XwpSjpdaYCvwuxIvzXaURYqw++bVaAoFO8Tv4eNlFOluOHlJ69biMhi3b2oCMNnjtHyyt4s2zkv5fUMhlxV1hdpaBhhM7HI3qCuU1JNtEX3amnSFgNeZJmo3xumvplv0YKNyWTcvRbwTquEQ3bXbHZaTxu3OaPGymt0xt+KWgjfJtgPnWWOKl1wlaVTHGbsmRleicvl85GXUH8b5J2kv6bImabxFuZ2dkFXoMAiD27ohhaKsy/ZWBfiLm3OQ2hwxcGJAkE22RUfkcnsVmqoDlkjYz1LwlxDIhqmB0B9jMAl20o5wMeCQCR0FWAVP65SjOwQ4JFcAKwPS2Pkd/kKrzeV4SeVHMgy2jcNVFQk6xUukNQOWjBIvJUhLLIAXn8VY4qW77VI7RJq6iteVYZTLcO3ZAWENAtxH6ko1uQytjLoOhNCn2u2OLRFT+42zpcHxMgLbXUHH7aCcmDsyu7uiFVgWoK2yjlfipRt+puoizVWFEVoGZ8NHj5cCyK5uu9MAL9mmUyBbIpfChtfve6I6Hg/Q5vwEOY2qNjzqe+rRlcYAvHQFgXxHyR4xT9k5cB/K7KWmsKNiSXPFHBuUGjYwuqDJ30JgJJZPJPLUyggBf8jIVwJDcFdBbGKUTAeSUIgNRKKasiQGLKkEohKhydh4GY279kdtQEkjxUuTqtUComI7NLXwUpYr+HylDDTCS21zy9M9ZHKp+VKPXNbOSxtXDlZXxgIv7UuQglbScW0LK4CKlej4aPCycbszaLkcLV6SnZI23AQ0YrKtHhtuZeBFXg6djjfOSz7fSjY81o8LubR1VgngpVsM4v4GikPdFcz/n73rAJOyutrvbKWDgCi9KohIs/du7CVNjbElGqPYewFURBFsMSZRY0tiNPnVxMRobIk9FoogCEhTLBTpdfvO/M+995xzz/fNN21ndllUnuSRMjtz5/1OL+8Vilot4dzbd55XM/glMSlEtH1Sv0aVggNnUj+hh518eu9zfWYOlClxZdz4K/idSJf48LyEVDCCDtUFN5J7CxDa6UoQmDOWgXSqAVgGLI8KBL7BWOqALyAD32FppT2sc8Exl3CzzemA7gtqkaK/z13Ht6xcJmGQjY7r6godXxvcjDpecLnMZHey1PGUNlwlNWnsZe5YUms5pJtZY5mDDVcFHEY/hX3OB0u1GbSFsAz66Gh/GPbjLhCkQDwLfxiFpb3umSNKGY+TJ+n5CNxnOQIcPesheQOXzDVJjmby4xkEJjXheQRmcrOWjQSeLg+xn8MVCaWdbviKpE+tivkhRcWjQNmoENKoM3m2QepS2n9TN+XRZKQVDzk37+TyRTX+3NKQsOemmYtGwZJGbqLO5MetifLa7bU3NywDZ9L84nJLn3+++WHJK7bBG9CEnYw3cJoRlm5XW507SVd4SInvHFHPt0mxzEFXtpBcZsYyjd0JY5mD3XH6ls5ehuWy4VgG7Q7ZhhT2MhcbTsbXX3yUjw3fKrEM2XC5fZhcZg7+sKBYMl0/VYFy8Yc5y6UmSuKBBff1DcEiO2IqgaQhUfFRQzSBhmQ21NUPk2zYz6QeQDqipMBVylIK18t/fsRGvKI6twsv1RhOWnIfmgTnAc2MJBvcG4smeNJ3jdvvmIKQJiOWGUg2gliS+VDkIPx8tySWLjhLxsmeicvR3Kenyo7IJWsbt6q2Sizp20SRiqnBQ4qbQ8RjQblsMixVmSETSU7UuRtPLhuOZU52h1uKqgXnCy8hqh8u7afS8UJiKXfSpNAnHkPPdCbJ/FLZcD8Qm/n5pia7czpO7dkGYBm24br8lbdcNhmWXHmPlt2mksuMWDJREoUEwfZ9gHCIa27BK5op95ZhPh4UChAOWefPQDD5C69hKaHWjFmpyJuoUqEZMfnWRj6EPpMmhnClMv5X3qiwhxNCi/C5Ayxe6kzpSFSSsJSQJBVRUtSZPJHOVoElV322ciydeISClyaUS1fNo6pPA7Bkw+uq5Vztktjbz4BTgSaVrkiPWjEq0o8IwVMmucwLy9DckNfxZF0J67gOPBsVS32PRYN0PBu7o6tEqcjQ0pBO0WVkLNbOsdN1yBG28Dssc8PSb3/kK5fN0x8KUZI1J5qgh3uZTEdsrQOBwD3OHF8jE7861mBDFcoWObJJPhMZPXUroh561JUKP5SR+tz+TCleI70Jbm1F4ETVFt8Damosg5+XZLipatJ0WNLTC8tJA7GUu0KUrMiiVsHl8huEpQ1sqF3BlTP2AA3AMsAzoAaNRecyPV/eOFGzPtF2p7F0PA+5ZCz1zFIzwZLroVuXDVflexrrt99jC8vld1hyFuyQoMuavMfmqW4XcbJxCRIeWUpVj2QyKZGOUKn3GCiDaikgUpOkbCMgKVHEENFn8glgkHDIrZYln5s6dgHGQrevyCGKjtoD0Yw0K3zGySsVLnIqGJZi3LM4k3SFos+tz+RJpxoBSx3A5YwlbYhI3zqMpSJK4vdO8XzlvgHFSJn18y0gliJPvF5F5dxs5DKSAEi3aML6xCO7QkijJmeT5PJbjqUtKWer481ELgPPVxMAJdudTDpeULncQlg2lQ3PB0t3BYH3D8kEfJRtN7Y/zGAvk7DMhSiJOwV+dpZCPrXXnZKQRogp9CCiO633A0SUpCsTeZK/0Jwhda0pKpIvEiZvCs4+cpk2G0KaXEk2vsOSeBsKQFiSF5Y0uS4VCd6t/04u/dxD1kRJzIBYaB2nbamsSHJy1HFra9juFJh0SpH75EbQxv17boNym6EQ9rLhWHrSK36+IXsZwNL32PMlu+MioZv3SH6+3A7LigwtD6Ikl1zR3SlsH2S9l7xYSl0JnnuLYUk5biosfcvRtaFicpljeJUvFZGO/QAGQxFDeDdPcwzuNbIeJYuIXD50/+guAKHXSk5O9yGkO5PcrcV77OpMPPWtX8OH4eNTPYs3t+1sAm9EyJAYZ+zuvwxqYOVR4xQ4E4c97gcF+BSkU5QQui0KH9b7C30iz7R1Yck97IJhmeb58hZAc8VS1YJoslUEzFWzSAbCchnUlQLKZRNiqXn8klaIU+pTbnbHz7F60ilh2Y20Ow3BMnSmLOxO4eRSsT6mtDvqNdru5GjDI7HkonMzwjKzDQ/bS+/lqRmnGFdDa5GF9IdUSXD2MJMN3zJyyVg6qmWpQJIy8TAfbzF4GkQpxbt1CV/6txsPwsono6AhQiT1Gl+gV6/xexR8UUhw7kFP0QZ7qxZmGUKknwrsgHrCBiZt4jaKPzdHMeZziL6Xp+r5u6kghocebW+fQ4A0WNqbJJscS3U5TWCGhHvtdAlSqnPLsJjep414vtSS2hJYuufIbJ7p5DLq+XJu5y/F4rUxN7PBMkcuXeHkZ19SYJnuTGql183BKJlrJlgGV0FdyzH98204llp/GXcTDIltaiiWtG7YJHKZQldkKDClvSysXDYtluTmCm0vmwRLJihKreOpsPRT+WnsTjodj5TLpsVSbpLli+0i7E4oQHARjRRDqAcrcYJeD7TBszGg7Iy9kPumQSrCIdWM4SqDZPTGMfub6ilQ5VFJPyvAZ+MXBItPIfIX/jzK41mYqTbtKgJ5nsmNdHiDRoFE42BJzyibc6c9k6I7TUXwJIoafr5bEEt1JudA/PN1yVEuctlEWKYlLGlMLKkal8Xz/Q7LDHaHM/UGYOkKmFu5XNL+cWHsZcPlUg+lczEkPdld0+h4ersT1HHZMsrGhmfyhznIpQtssveHdkjRg+wpH3nfkYcLnd3NhfhDbuiVAwXJXxThkAwhNIwoyQYUij1OFrxC5E2y5kuC7r5bOiIdc3R/pgC0EYQ0cg+4Pcs3G0tZ406LpSZ/CWLJ7Qa3vJKBdKrRni8pbYCUqHByyRF6JgKvjFhy6ToVqRgFyVsvlpkIaZyMROuvqcq5Ur+sPkusr3r52RK0pcMyRJTUeHYnR7mk5MgVUTNhmZsN93lT1JloRqIhcrk1YsmLw0TS16T+UMtlBqKkgsqlIUriYMBfPOKMOU/nBwmHgsY8+BoqkYQMvnRRyJlYR8uvUa2GIN+rjL5zt4vexpM3SRAT/jxF8JTyNVx5CBCWhL6bfQ3xPiS1EDhcoL15Iv5ofliqWQgZAqDfZINTNq/5DssC64qSqYgAKlmfkitXTnSpMqZ5koVPtQE6npOuZNJxyQr8DAbXbbORucBr0tmdbLH0IatvuabX8XBgm5O9bAiWXOjUOKWyO02JpbbhEsWpoE1VeVPJ5bcPS+1XUuhKc8CSqZbdfB5P0/kBDd6pJ1fpB+h4opNaBJachIb8pCLBwkulfNeL0/1rz6jlZMgPFMnn0QyAH2biGwSdQjud8ROkPEAoXAD6TNSr5kAo8jXqEiZ9JllT4VKh/m4pzu1iim8oliGc/FXd/HwVUxg7JW4UcV9KY8mTnE2NZbozhc7NswnRupKHXDYmlipTy07HXQbqlCtZdtPq+LcNyzR2x9kmj6W3e4ptNZ29bIZY6ptytQ0Vcq6QDZcQkDcHrEjxvI2ny89kw78dWKr5ugi7E8SSPGUDsAzobxb+0G0xUF/CBgjOLrhHzdScjUJK5HtybI8C65MsbIp6V0IIdZtj4cibQj0iij7sYKFsaNAJwoRSNPsqbQ6+5rqRsAwwxZE5TyJB4nlclXUkPV9L8ESbr6o35b9HbjKQjnTKbWk0DEs7rPYdlqKXWwrLTERJuchlWl1pSrmUtERV2qJI45gMTeQw2V7kYi+/wzJElBRFvJUlSV8msrutQy6bpz9MIkriqUMr/gGiJD/BzIRDnv4gmZTIqVuWhEORFMYqSmEnaJ2237X224CeBCndmTISJYXIfaRGwY4tI8ETr82oyUsZ4tSkU998LMPkPvliKQRPwvStV2R5kjgLAq+tUC7zwzINuU8YSypppiJvCpBO5UqE1VQ6zvVE7lBSlmWDfNlz9LYpN7lsGixzOxPVT32KydPEzmrmYy+/wzKAZSbiwLS+J4wl7bU3hlxq/c3VHybruCkhqIuZZP+aDWmgTEZ9SzU3zm0BP2hFE0LkGJ2MqmE1W4GmTNJ3G6R95+XcvY9dM+Od8FAWqs+tZ9mTz0QGITAN6sk+XLcgzZmklcuvCZ/J721sOSzTnIkM49aBpa8y5IQltXxkPk1KtDwjm4tc5oslt/8py5S4MShzel5Fzp2LrmSUy++w1Pe05KfjWyGWoeqIS/qyteEuydmScmkRV5t0NuFMY8N1AMjLAal9T446nheWakWcSvRZyyWV173sZucPw368oVjGEom4XcBmlijXS6Z9ZnbI3CsjquLgxoCaZ+Sumx9CkAiM1ww8IQX1o3hwUYanyIiy06YQSJen+QKlAJ0xGUu/q838S2xFeeXSXxAgc5i6W6gHurgvLiQZqvcTLpmr6sJ3WAZ6VH6thvoEVgbSPF/d48qIJbO4MM2FjxD8nG2jyaW/kdO15HjeV1FDp5BL1gNn80L3qPJ8cLZy+R2WnpMlVyxzsDvJcsnzBBH2Mkku09idvO0lb00x019ILqllk429TCeXHC3Ia3wf2ul4obCkVrfjjaFer33/hthwX83Nxvdwb92zJuaCJbXmw/prj04XZPGEDznRbM6Uu71UcpknlmmJkoSjnNcbVTWAsx/Pg+DL5sFBxEyEQ54rQRvKdERJbiAySxIVGdZmIpx0hDS+7MFBUOozcc8oO5INR/riz60rK42LZXqipK0CS02SIzfQNQWWuREl5YYlV9WaWC5zwNJVp13bhluO6cnQUhGd5aYrYbvjfEQ2RFgRWCYR0hRQx5Ow9DjRJlygepoeSzX3FQoag7awsFha15Xi+brP1aRxISIsqUZkY8MznHsrxDIXG56MZUhXcsIyA8FTOiy5u6bupgnfGaR1PIIoSQr0rvXJTMhqiE3IlNKSvwQF3tHH+inWaDIl/RoeXaT3kaE7T+QUXkeipoRvjqgBvajPs+9EnAXZECUFT6RxSnWmZoClbAf408swKF0rHAi2eDiUprBJntQGqkrRA6MW32HpdCUFWVYOutJc5NKKQg7nzknHkwi8QvpUICxzOpNMj6fQFd5MyIIoySWKrCtUUdvCWPr1FHc2CfqyJrtrPjZcFWgCm3GZ/Uq0/RI5ySiXfFW29gbfFCz9JiLLbszxIIRLwuyU3X9dC9v3cPnh6ABCc4wLMQy9rR8m9HdtS3dLl4QlumHlklUK7sQojvqksXZ5YprCge82CJwpzBDptztpb5IOpW6+dJUahRNXvoQ8g0SzibH0T0oufPDronLNRdTzVb0seb5hvIN0GKmwZOB9y8aLi40wiUuCbWYhsJTHUUC5FCw1V4B+vmEZkMH3DFiy6ihqkZyw1AB/47EULVN2R8lltliKfuoWqHIfDZHLgC2M0BWeNQm10vK1lxnlUox09Jkaz4azWW6AjhccS3JpoZhMbU/LrfHBdggHSzz8nsav0NdtXH8YupuoEDY8Z7n0WFKAoCJm4TPg7EE9fLnvnSMNRaVs11S4fEc0mnQ3givXux6cdxKy52AHESkU8TuWarVQGBi5V8eRuUwqu4cc4IVRfT172QRrqfDrsxMj/kN6vaeCCJ5JVyd8buC/LzXV9bSicy1cxQiRv+gzRZ27cFjq9S1/uRaNOPsspyBYknHfoli66M+v0eUgl+GqSZJcFg5L/Xzd0A+3M5KH7W1hV4LYwsql3HvAgUdAx0NY2nVTpePqTEk6/i3A0omHtjvuGUpA3FRYytwUhRLahuvohAJcuWpYhlzZ7GbSFffV2IYXUi6TsfRn4rVeYb0hW+pn4bKXS6fBaXxPk2FZQH+ob5DkGdQs/aG7G0jZy7CO50aUlI5EhSiLacrUPgYhRSLBYkpbRfAQRbLhJk9JHJi/XEhb8iCkCZ1JT7rydKyzk2rgRhGW+D4S9eZUy4QIekX8MpNO5YFlgESFZj/4wqgQyUbzxVI9Xy53slyIUROTIKWsMBGWU/dvOpYUQKSUyy2EZVpSseYql7lgqYaSmduEaXZdaFA4ucwHS7mHpsBkdxlsuGuFRZPdJdkdrmsq2++qi1noOFPXcxqp/EquNtxfjJbi3FsISytp2WKph5JzlcscsYyZqxg4nmouREkuBnfCI0OCXCUvNIlKICRW9yeQ5PL2RNKZOJFjwbeBmBo8aUTSKTdYxNmswil8Jn/HZNNgGThT4bBsVKKkrLGkSWSHZLJc0gYDTxxzD89XMhqHdCpXucwHy2D6GHy+7tFnK5ffECzzIfdJY3ec09OkYul0fCvGslAEfI2IZbB7w2mg28IqrI6HiJLUltyW9IeOKCkg6HT9r/Qt/ACeVP15kpz67dx2l/p6IMLjKJFr2L6bIEOGPMAowwpUKuMVMYpUuVHgqpykQHoQkcsj1EaStgD3jqn0TdSRQvvpz60m/rM6k1JOJTA+Ac6EpS/X+jNxu8dnJ57WNBpLiaJJmgPtEA6svjFYqqtDuIyd9fPVNNCNgWVIV1gmmq1cNjWWipM0o1zmiCVb8i2m41sIy5CjcnPXmeyOrHbxNU9+k0FVRbgNGbCXYm9VVThru5OtvSTd5OFJan+52QGXuaW24f7adnlNSr/iHIWEYvlgGTiTjPhJhSnp3KEzyTxf1lgqjoq0vic/LG0FQfdAOXdnQg0po3FPw6X1MhDruj+qsxPgA3BBFr9Gkym5TIvbBf6uG+nH674sv7+n7yYvGixxWcdI0XdDzkTJodxJESDpoLKOLWinODf30bif3Byx1GeSFjt/cVXianQsA313vlUzdEeYek1DsQwSeJHsqmBJ9pPtF2YOjuzkMicsufLQAF1xmXt2Z+LWlpbdQsllMpa+pJ2vjm+VWFLLJ0pXZDYhhb3cUlgyT0wU4RCX+4N8D6lteF5yKSPfmW14U2KZTlfC9vLbgGUGoiSaBbAGlYg+AuyH1GdsADEE1bwpeQ+SbHAp05PkBEtufvgvFcGTOjen89mQbFB06mw41Su049B9NApEAlUTNgY0LxEknUqHpSfRSCJvykiyQWfVBE+KsCQZS0WEpdojkSQqNnJPg6WaFYg6t/3sVFiGyH1k2yFY00tB4JUJSyrJ5iyXqucc+XyJES3y+dJdE6QrmhraBcl5YElylS2WwTsvZJhnq8VS6N8lsAtiGST3Iay5RZmJdCoXch/3IF2ClKOO85C2fZQRchnUFW9vObt1HArCjS2DdjmRikXZ8JBcpsMyTHaXjw2nzHErwzKDP/wGYik8CFS4ofKNyvpll9dPwHOvXSsJ7S24PnzgxsYUREnhWx0pQ5J5CNXP9y0QNcjBUwqBwUfKAqnm7iI8PbnPg1N8Jm9MIm+ajDpT+CbCwGvcZ6XCMtAtpHM3PpYpiJKkSaM6XM0VS5IVZx/VvQs8jdwgLMMkSJ64KDDIFPF81Qx08EIz0hXfWfDlTiH6YVpz+h7RutIQuZTxZTcfkUouG4Qlz09wQhBxK2tKXVHDit9QLDlwEw78tHKZD5bces2SwCuNjmu7w44/sw1vfLncWrDUfqVhWIaJknzmnay/+qoCsteyIejbdtrukGFyKSAFhvKJITsfvOcmqOM2QODhaM8VQNkzZX968MqXZP2+pkwE0Akl6uUEUmr33F/3rjKQ+AabFX5VLZDNuSjen4neU78m7bl98E0NLfUftZ7JiXkWZ5ImCxOhqHthNA9AJE58bgpmApULP2nhn3euWKY7E2VEDcWSMyEyWwB+R9cAACAASURBVKH/bB1Yumw7S7nMB0v1fJP0ietVchBu0DOkeWBp31NxZJBqF1wuZS5IYSkbSKpQKJfWcDUmgjMjk1x+Y7CkShfdFxttC3VQwMGFE5is7E4zxlL0gOcaGt2GB7H0M3VZYkntc20vdXvJEy346wLUtFyyDedCNW3ESKE+B9/DlZhGwzI1UVJoeEP6s8rBhhm4UhAOMYgBIh1Z2eJghMQ9C2IIX7VWk07KuOqLMMQ2hgxj5Jno7cRJpyVK4oOqc4fK497zFBZLruzLbnyjYRli0szl+TYmlrZKxV5VKSPLQA5yuVVgKYbEB+4+W9BWhmvwlAWQ8LsYIRtdyRFLDla5mqc+XupSfg+NG1o88iRd6KDlTNaVYCmbjLxXPx//ZKPjSVimsTs0A6PcRzR5E+EQtDvpsUwiFcsHyxzsTiBYpFhOAv1gV5XaKb7CGJhr0eQ7XGUmHyGw8aRahAzkZsO3EixzsDvJWKrePbcqWH8FLG49cRCeja4EL0r0c1bRfjwslxmIkliHfSnAE1pkIKRJR6JC3tnbeN/bE0Om8jpvbCgbEoH0xkIGWWTWgF5LPXSS9twIaSSkUxPVrFS8iilzC/zBKoMKkE4FsZSyjb5JU+5zCRGWZMBSWinWDzQRlvqGyIibdG0xUpP7NEMsuZ+cksBLTU1HyqWU6vKUy0xY0gVEbhwm+HydbvgaSJKuhEhUrH9sBLncklgGSKeaEMswuY8fydEkOM7KJRHShInl0uiKc7iBxpZM86uLFMTwBInl+K+jbDhVIlLYHWbPde2qZLI7x4FA6VSectlUWGbWFZ5014Gov7/D/e1WjiX7rEi59Bc9Wcti1hyl56FLXTrhkIGyUGuAs0ShLnZOMnkFMUSUZPmu9Z4vCbFUQtU0OZ9JBzwBhsZszqS6/yzR9JxFmfSZwq+hYMAWoynEkgtOOGDQPSG6olr5RJ8E5YJlujOxc9rasUz7fP1131FYujiRL5vR7J1KnqJwykYGfJynkq7GkEseYPQJtRczcvesK5nksjliyVGi8lMcxMgmU8F0/FuKJc92aLuTt71svliq2WhepHBzb7nYy7BcylwozbmlxZJubuUBcjXDz/GDDtIkiN+CdoeLOGF7mRFLFx+4DFlykUCpibJnKd/yJC1FWOI8/aS2m/L1mweuYOA+wQ8D8oqU5zPgnhq/JvpM+vYx7Z1VxTLFmTQYkmkxwZEa3hKSEhuwEDkGDV/ymXig2VWBol/jy2g+ynZYkKTIVHIyli4Dp4ArhKV9yBpL6mFlc+7gmbYOLCXqj5TLDFhSZPHtxlLfgUKKzFjKGnJmuXSBy7ddLhWWWn85dxAmPt76iraXuWLp7U7T2csAyVekDQ/a+bS2UCeTYi+/w7Ig/lBtxvhMtDD+MGaoli3pJPcPqYHE7Ty7f63LmJI6E/81tTeTX0MlMSZT4jKoqkz4raFQoTTiNXrOSp+JJ9vdIYV/MUviDyonifCGSTbSEbsEZ7+kdPsdllSFKxyWLqjx5C+2HqRJVGxs6xuAEu6qCN/Fv7mRqDiilYaR+xRWLv0mSuYzpZfLfLCUnlEDsAzor32eFBRnYXe+w9KXfe3zUzOnOdsdzhAKYi8LKZdaf52AZKvjhZRLYc7NQi6dS0tld5TlUHcUZUPelL+OFw5LO4NgDSqtRrlFMiYcEj0mdi6fsfuAsHGIkjRpjXX8vDvMH+xCJXUNsT53mjNJ9VkNeLCD4edN5SfHJx41EJdMWkN66/KHPLGUjnIjkE5lxNJiUAgsw+Q+hcRSP1/qyatzu2eR6vkGg+G8iJIyyWU+WPrmrvTnPAnSNxBLZXeSCWmCdicjGVpYxwuIJdf6eKYgaC/zkcumIZ3yCyBZ6rhylGFd4fp+NnKZ3u4wA16qM+Wq499hWSi5dDwIMnAXMqtJA06hGQPJ3NTQBg1SBSYMAu/Dhpv2MwO9Mk8GEjwTrUmFPq9g55ZsNBxYBAJEv+XODpQMkb7JsWBnUsM/hcVSvZt6LgU7twyJNjMspZSuKgJ5y2UTYcm7zKwr3FVRBTC+YEwqf42lK1zMiQrA1J4eE+7wTS++Q5lKx6OxZIccmG2KtDvufQNhoX6+MkOcbHe4oBHeCmpqLDnJCN8My7rZdFhyQS7FMxE+iwgbzvVmNU8WZG3kap/zGQWzOyG5zBXLxrfh4YqCJ73iS5qinq/BrsnlUvnDmCkgOHvjSjriioWj2mcrfvqZ2wfOi/Hd9lxucRE+vav/dpwGyJpT8u2IYkbohj6n1Tqj1obHvTXtsWtGNJ4XYHBlajt4pqhzB87E9LZUrfBsknQTGM0SyCa9MKQ1JZauJ5waS97f2IqxpEzcPgap6jSGXBYQy4DMRZ07xMomt7JF61M6uZS7RV2zUMp/kXJZQCyDZyKVT6ErYgTVxgXbnYw6ngFLrkVH2x1288QgKpeqqWE0xauQhKVaOaNRIDLYudod1SbgdUAqT7uVN/pkxR2hgyN2YDYEIkp0zeDhbbhYS3XPQDpdIbtAepUXlop2n8fCeVtLbg5Qdx/4lbpvIJY88Cbq2Jj+ULNzFhZLFyDo1UDWAlnlUDuonNVqTSGDwBPJVPhXUQ+LOTtN+nNaEhUqc0cQDtnTKKKk4IotGQPqDSUR0oR6d9I/ktAlREjDK2FcKVCXWrkBHontacvL3fIlwz1psSRcI7CU0VwaPuR4S8KnMLlPAwlpmhTLJCIdfxvgtwLLJHIf1yvjsm0gW5X1yix0xUVNOnb95svllsIyZHfyIZbLTcdDz5dKHpIcpSHwCuu4WsRSJCfuDTPZ8CR7mc7uZJLLfLAUeyy1H6Gw5ZqHFLMy2fAQlm6jL9qGJ2GZhz/MB0uaUPeN1Dz8YQBKpg+gHp+TB3NZkyZRUUUEP6io+wD0ex4yUvMKUjKSOQFl9vyGIG+n+YoCZRUBZx+YYuLPV2Vr+9Zq0kkFzmHiD05qkrYYcj4TSxM35iRuZ0Kr1GfyX8H3S1RyI6Iu/VLefOBHmCWWylhEE5YUCEslWTyzko78RRJXTcCpCZ5C1RhnfPN/viLz6u24sEk2THHj+4+UMhfP00UReImuRMllUjQqn5PuTFszlkH9VWubXhCdVjdrLJXMpX2+vNvmFSEXu5NJLhsHyyST60xjKtIpZTgbJpdNg2XudidJqbOWS55LlEKYtuHKn2R6vjpQ06ZO26bm4A8dDwIpAhUomR9DokonQa6HQklz4DVu/5RXGYMDhS7Y59kF9RqOf3gIkLIml1G58qt8Jht3yrbdUIwTPjMsFHUm5ixwn+9fEzBOMoxHlQDN6S/n5ixPumVyH4BPZHhokRSCsdLn5vJbc8UyzfNtdCwDmwLfYemHRFPJnCuXs67IQBJnNBJT5oZlWFckQ47SXzU03Kg6Xmi5zGB3krAUB5CMJTNAapxS6UqjYsmXNkfZHbkFNL0Nb5COZ4UlN4WDlNrahlP51dl7lZUWDsssbbhvbGf2PRnlMugPOTltVF3hgJbKJwXB0m4xkOP110c4p654svylNFbOuKMUCp+E60Avh/myvzd3vB7jZw5ckOL+LFdIKzIl53p5Q8BZQD63+5kGnEn18ySSDoWGMtqgHHwYJzm3sGW6b8rFgEJjqc8Ude6GYmkZ075hWHonmixzXJpnmcsfS5JwJs36DssQy6MvH6XT8cCGwHdY+ixfzW/wtpSVXWV3kmy4JFPcpshDx/VQoQwFehse1idx8FwhVjY8fO5c7CVZfyll56bjySR932QsZfaDx0HlwrsIHx3lDy0PAj14+RHy6S7ZJYESOUhNlGR/PgW5T5goifJ/a7WtUGdNOBQk93HlGXWmMGFJ6Nyy50qBSDrCEheEuKGPMHlT9Lk98UdjYhkmSkqPZZoz6V3jqOf7HZYhucwVSwp6udIqwS+FtHqLhPRAguh0BF7fdrmUSokwXvgbZC1uKmu1SUVqgqd0diejjgdWoDkALYy9bDIdzwVLSQCj7Xw+WOZiw7lk3OS6ksle5oFlXv5QtYly9YeZsIxZJkUqTUgvRAIGN4jn82EO2nymJIQWNNzhSgBRJDkcdVD9U5yPe0+pLFGhwFcIqGWvz8RX5XIpVQ36caXBcVOENiBoI8J9YRq90JSbkWfK/txMRx6YxfgGYOkadBmwpNoPj45Ij03Llm7M8d/zinMS+Yt/7px4MK5OxKLkUlWWWJmbWC7jCaCILy9SNxdmJ5fB+k16LEn4KfiIxpvwUGvkUtZKK5eckvJmQpSuNLKOZ2t3Usplw7H0pHHJtkl0nOQ3SaQVRS/bQlfqbDws9TUIFA+JTU2tKxE2vImwFOiyksuIteQssfR+JXcbrpbiGoZlk9odT1jFZjgol0E6+mQfndofJg0pyt3Qqr/P/IQciTOfM1e8eEWHm0h6e0C/Rlw2N0escWMLp8ktwgNq3HP1GZlb52Ij6S438j0XvzYkZ+IVMJZOqgqkPBO9d6BMFhjmlKaHpJUu0OJ00Z/JiieT6vD3paymMFhKv4VDJrsK5Y2FPxOvMUkbgqpEBcdSdtIpqKSmlc/K1JkIk+CZPJZ6xsRhqZ8vGXFaHUkrA3Yql2SOny95A1fFSj6TM+zZY2nliXpLFFc1c7lsvlg2uo5L8OoygyQZcFkGxcfJMmBTK7kLJLVcuqqq0gOxRXypU2HlUttwXidrGJaZdIWjTNIbmqZvCJaOnj9UHQ7ZbE1LnJ/vyd5ebjEsxe7kLpeFxTJLoiRJVGRdjSxsgIzE05SoxEYmT3zLwu+bK39tBcQRQ2QmUwr04dMRpEivzC3ySCbMrRA18+BnBnTVgvkD1P4xfbiPT/jcbAfSE0rli6XzcbyxnQlLfyZmvJA+pVXIzIQlLgCkbFR1/tJhqQM/iVqMAYkDRea/xDbJu9zpsdT2Nchxr/09F5ytTNmHqchIAjMh/HzpJwRLb+Szk0tfo3KGhFgaqcLhp2midMV/p4xy6Wdy3XOgdpzIAO/FF0IuKe5OTTiUWsebWi79880Fy2iCtmywDOtKWJ/CZDscoG9dWOrnm8FeMneCj328Ddd8DRFymY3d4ecb1nGxRln6noBc5qArmZ6vJydTteqUZ9o6sQwRJbGZpjYBT3UKm1OYhIFXZHjNy5ORhImSfCVfRdOaHCRAsuEMuCfZIBcTIBghhinhBPBGWOYF8iVKCtY3QuRNlBLImYB4fT1mzpyJnXfeGWWlZeIXhTYaCcRNDZq/TuD9neWXzQh6TW1tjf37stJSyWQrKyvQsmVLLo4Q1C5gqI/H8eVXX6F3r17W25kzffXVV+jVu1da0qnVq1ahorICvXr19Iw34pj4ucpomQ8ThAhLLQ8ngC++/ALbddkO5WXlPGONxZ9/jj69ezsqagCLFy9Gr569UFxc5N5PYcnbJuvWrcOqVaswoP8Ah0gqAi8KXD2AToI2btxosSopKbH/VF1dg9raWrRu0ybY12J+XwosmBTM8YyqX+bs9BrRllgCq1atRqtWrdCyZavAU/XGTOmKClyiyH0yEnjlJJc6eKWAUASQCXQUkU6IeMyvWiXruCb3CfcI/eBcCvImHWjmTIZWSCz9iipXE73dCeq4lX5lU7hgyJUinsHSr/HPt+FESblgaR2vfr652PC85bKBWEaR9KUlu8sDS9adVKRiSi7zwtKXOHyyEiBD4xQqG3/IMzWNQXaXHktLtcxlNM5O1I4huWkugSnPFrCa3ONx/5Vqmko73bAf114zEX+47C9AOKRWrYA4YvEEErV1WDFzDrqMHAoUF1MRm2mf+UzBzFcNAntaViY8MmeM++9owyHdugidaf2GDaisqBAkqmtqcPttE3DJpZegffv28vclxcXo1Lkzli9fjv/8579ImDQ6ECT42oVxZD/60Y9sQGB+/e3ZZ9GivBzHHHOMfJGbx92M66+/HqWlJYITLzNXVVbixhtvxO23326fRVVVJW679VaMu+UWFJk2B9W/Odvlp/XmG29i4aKF+OlPf6oevymXF6EsHsOHDz+OvscehtV1NXj11f84X80DYVQZ+OGPfoi2bduivLwcN998M84+62wbmJgnUVdbi9GjR2P8+PHWWRvIL730EnvOVq1bOdngvrMaipk5axZeffUVjBo1SoZZ3WfHUEoYxerqsWHBYlQUx7Ddjv0ky66vj+OWW27BGWecgX59+1rX9+GH0/C3v/0N428djyIUSVnzg8mT8cEHH6CsrAy1NTU46+yz8fzzz9sAw/xKxOP2e7Rp0wbHHnss1qxZ4/7esvzF8Jcnn0TnbbfFIYccguKiYgqKEmjTpi2269JFNnQkKvEE53JelgnJ4UQu/aQ6jc/4cJoDmsCKmLOCTOwSaKJa8KisZuXbfgvfbA8EQ/4PwTNxBcgXaZx6Zqnj6vlG6jhNWkeeu6F2p9BY1tfj8+dfxvp587H9icehy479/AU2elhGKzr9noNOXzVT5Dz0OFJhqUt54ee71WCZ7vn6/fYkuUzyK9470dp7Cr+SQi4biqVvoRfAH+Yrl42OJV3G4ONOVfDkoT1de3dm0SHDpDxS0lXGhpVBGS4r0JySKE/tBVut4OgBFq4mcDRsjPXmCiy+/xGsnjkX3U79AbodeSjixUXWWBdxUCbnVg1Arjz7OSzpS8fr6vDFa29j5aIvMOJnP0FJWZmzUVyKDxgn4D//+Q/e+d87dDkTUF9fh/kLFqB///4oNT9LttgECxdccAE2bNiAGTNmaF5MwpHBAoqKi3HAAfujpLjEfusnnnzSOqUTjj9BAqbrrr8O48aNQ2mJCSIS2LhpEx555BHrxEwFwVQxRowciUQ8Yc/08cezMWz4MBTHTKYO/PSnp6FTp8403e0e45tvvonHHnsM2267rZL6hM34R/3iAnz05J/Q54gjUN+iBT7//HP897//tZn44YcfjtqaWpS3KEd9fT2effZZjLt5HMbfegtOOeVUvPjiS/aM8XjcfvcRI0agqKjIOtZp06bZc5nvap7bT37yE3Tpsq1fsE0As2bNxN133Y1OnTvRNdnueL179MCoUReicslX+Pq117HqrQ+wzSk/xoDvHWz/3Thwg4MJBk4//ac20Bk+fDgefughbNq8GbvvvrsNmMrKy7HHHnvgn//8J3r27ImRI3fFnXfegXPPPRd33X03Tv7xj+13Y5EvKSm1Ad7f//531NTUoLqqCi1atrTVA/PsTMBonrMJlAyuw4cNx/eOPNKdvYFy6YdtNMMb6Ur4XhBvVlW1JTTEFGy2ufAgSVc4e+ZgI+o17llox5SdjlOqENDxaLsTGApssN3h8ZJoO+CqUm4bKvQKP+gcpghOJFAxZy5m3j4Ju0y6Ha26bu/nP1NgyTg56xlcI2fTEo1l0PAE7eXWgqUq2IWxlK8XHDzOSi5V9y5YEkwll980LFV7LZU+sU3IJJcRWNrrntmTuZ+nagFlFjyk5+KB7EmJeP02NTGEXh9kB0l5SoAoyZ/JKUYciapqLL7nd0hM/RCmmrC2vAzb/uRk9Dz6SNvgdkkVDR5RtsKBKZeuKb+y6LoVzBhQH8e6D6Zj5ltv44CrLxG7zHu2Org1ZUTjkDdXbBaJq66uxg033GCz+44dO8rft2jRwmbN+le2WD700EPo1rUrjj7mGMk0r7jiStw+cSJKS0zVhBZRqc5ZUbHZVhAmTZpkn1dFRYXNom+99VZxsObvedecngLeeutNLFy4CGeffba8jrNj6wHq6oCSIsSKimxgcM01V+Oaa661zvDxx/+E0TeMwbz5n+CJJ560n2cqBT8721QQ+ljnYyoI1157HW6bcJvN/M17X3Lxxbh94u1o1aqNtJRYBtkjz5o1C6+99houuugim5nLkKV503gCMx57Att0bIvYF8tQM3AH7PC9Q6wnm/zBB/jnc8+hb5++qI/X49VXX8W9995rz3b88SegyAxCALZKcM899+Bfzz+Pbt26YffddsNdd92Fc845x77+6quvRutWrcxHqdkYYMGCBfZcAwcOwlNPP4VdhgzBgAE74Omnn8IPf/BDVFVX2UDo2OOOy4r8JZ1ccl1Obha1/iWFrnC5nqoE/Hy9jpMTFE9IZeGsiMfCZGjqVkmKfvxOum9HZXVubXc0uQ9H2VT+zob8pSBYmmCurh4xo2NkSwJYJoCK9z/A7D//GbvecQeKW7eUfDYtiRs9N2NrTKAZM4mAsWv65tgcsfQJG7dmlQ0PYZmt3Ymyl9bWaEI8tj5CdpeDXAo/A1e0XDUr6vlm9j2Fk8utAss8dCVnLNMSJYVJNmwPzo2mBZsJvldHtkstzPiY3Ok4xc/0PpSD+ElhNTQo07BSs0gA1VX47LcPoebdqSiNVwOxesRjJdhU3hqdTzkRPY46Gigp9o0ODnRCnyeO1Zy0Po54Ta01usv/8zqq2pSj78EHOcOgyJucgviBlHXr1+Efzz7LeQ3q6urw1ptvYa+997J9b562P+ywQ7FNx47YuGFDoEzusPKZhAuAnGHt1q2rxfo3v/kNBg4caDN188uUvI3T+tWvfoUWJrOlajGXLevq6zH7448xdOgw+/kmqzd/3nnIEOuwzP/NL3PWSZPuwKZNroRu3reyshJdu3a12b55v7322stWLlBbhyl33YMdf3IySjp1sk595IiRGDx4MFauWok//vGPNvvv3LkznnjiCQkQTLDRy8xCJBIwfJ0mox86dCgFmglMnz4Dw4cNQ1GxOZd5UA7vO++4Q0r45kxmDsGcy1YekMDQXYbilJNPtsFsoqYWseIiLP79Y6jv3xf9jzjEfp8pU6bYls7xxx2PiqoKnHnGmRg2bBgGDRqEH/zgh8Lvcckll9iAwAQTH82YYYMfk/1feOGFtkrTufO27mw2yKmzz8FUH0yA8MorL2Pw4J1tNcUEgAaP999/HyNHjrSthZKSYhx37HEN0BXNfRtF8EQBcApdcfkpkYpxa44ChrzI0HyZQewA6697dn4gNsoOuBjWBWY+mVGDnk6aqSJHFiZE7JK73fHDxdG2KQLLeAKbZ83G4tlzsfOpP3Rf0ZzD6EVdHRJ1tbYitfLvL+Crj2dh+LgbETPBs68hJBHLaZyMbq37ZAHm/+e/2OP8X7jAW9e7c8UyDVGSnffRZey8bHh6LIPP1weeUcRyMuCn2l0sE7mS+6jyV4RcOpnzcpOapE/ad6l0pTn6Qxq65JY894dTYcktRfbjAf2VyFr5aCZKcqqpdk6pi+Baw7S6ZZ0RRXpkeJzyqJvp7BtRLyjiNTzI4/6JQo3Q0mng81jtzDeqqcWi+36HuvenoCReB8Tq3PezhyzFuvJybHfaqehx1OHWaej3iTqTEeFEdS0+//cr2LRuLcpatMTGyZOx89WXoWXX7eQiHR8YEJwkKHM/mWvL69QGtr//7W9/a7NP0xbwECawccNGvPvuezKwZyJ546SnT59us09TpuZfJri46KIL7bO+7bbbsH79eluZaN+uvR3+u/Kqq3D7hAno27cvJzfW+b7w/PP2M42zN1m6qVzwL/N5VVVVtrrRoryFLY9fdvllNtjgSoEur06ZPAVr163FueecazGacvU1GHTJKCQ6dcav7/u1Lamb8rqZMWjfrgM++miGrXI89X9P4ZbxroJgAoTq6ir87W9/t5+xefNm+9/WrVvLuUwwYs47YcIEaatcetllOP/88ykA8s0v8x1MRWHB/Pm49NJLfTk4nsDiBx9BXf9+GGADhBimTJ2CZcuW4bjjjkNFRSXOOON0XHPNNXZg07Q5TGXBPP8rrrjCVlu+/PJLbLPNNnj88cdtO8g81LFjxuLkk09GWZlp5cRsxaBPnz446qijbIDwhz/8wT5nE7xsv/32NoAxuJrhSxPY7LTTTvbzXW+B63dBfUqnK7bKoxw8G1XWOZFLeVlIn0jho/SJfbGoT046Tu0SDviV/sqsZ6ozUYoYeSZWmKhzByjZGxHLBFC3sQLvTJiI3Uf9Aq179DANMptErHjnA3wxZTJa9+qK2PLVqJ23AKW774qBZ55mAwYyfW5lko4oV/jKpCEFbzV1WPD4/6HNDr3Qdb/9gCLTHg32PZsWy+xteF5yyQGBrUYHcdLV5ii5TK8rZFJS+B4JDptALl2jRI8dpfaHHsvc/KEYP1fSaTQs5TZHK7Y0Xc6ejTP+AK+BujmOFUJuYbe4qMifFF4qB3rClj8vHIio2QQ5E71v5bKV+OTGW9F69UrEYjUoMsN+ViBMlBxDTVFLVIwYhhHXXIKiUjMopvaLw+emMt6ayR9izsuvYt+rL0b9xmpMueMO7DNxHBKxYqvoFRs2orUdODQK5AbSzOeZ9oIp/8sQWyJhnca6desxeKed0LqNc4ImCCgtLcNpp/0EXbtuj7q6eixZssT2uzdt2mSd0Z133onWrVpbh9yjRw/rjEx/PJ6I45qrr0GPnj2wYsUKjL3xRtsKME547732wtk/+5lkLQ51Z5WeeeYZdOrcEQceeBCKyHDV1tXa4GDSRNd6qK6pxpVXXmnL6K7syPu27gm++cYbWLhwIc4591ygsg5Tr7oGAy+7AG379RPnbr7/EUd8D71797Lfc94n8/D4E49j/C3jJUDo07uPGM5XXn4JtTV1OOZYGrikCsqVV1yJO0yZttgN95lzmfewmxoSUrmPnTx5Mt577z074MjGF2Zz44FHUNu/H/qZACEWw7RpU/Hkk0+iy7ZdUJ+IY+rUKXjk4UfsdzJBgGnRmA0P03KYOHGibTOceOKJeO6553D00UfbdoM507XXXusCrQTw9DNP24Dg6KOOwoaNGzF16lSqpsXx2n9fs22l4SNG2FbIokWLMGCHAdj/gANCd05RayBrXYnWJ11do7CV9EAeDw0pqpYCO14X08tzyVp/ZfguhY5LXZrPwFcqh86UUsf5TFzMT6O/XFlIp+PhACaFbfJYusHnL//vX6jv1B59jjoEMbhq2rq3pmDuv17EbtdcirLOHVD1yULMfIAimwAAIABJREFUmnAb+lw0Cp133z3YIuPNHkq5ZGbAW0errTXLV+Kd2yZgn9HXoryLm/2xIZ6tJOpw3dlVvmlQoauqueo1bIZtrralsMwgA5zVZ9CDbHyPH2bNXy5VvTt7f8hyVVuHqnVrbTs2VlqMsjatUdTCDWAHZCCDXLpKjCsNq5Q9tQwUEkvx0eRRzGVNvrqVhtxHR8TZkBJJpMjmKwUZiTVaPISagbDEdBg+/QLzbpmAlpvWIYZqxFCMRKIUdabN0LM7drt5DGLtWrFqymSVJjXhSmCiLo55v34AnQ87AJ13GYyKmXMx+1/PY7cbrjZ0eKhZsRYvP/YYjrv6MrvAX/P1Gmyoq8O2PboH3JYxIG+88QZeeOEFnPqTUzFr5kyceeZZWLlqFcaOGWOz3UE77WS/pHmdGdYzf7dx4yaMGnWBdUTr163DLbeMx29/91u0a9fOCkZdfZ3NpE0J3DiuefPmWSe662674qUXX7LDe+UtaJ1S9tGAp59+Bh07dcLBBx9kWf3M/zZXVNqqgymbm0dTU1tr39s4YZPFm9kCF1wnbFBRsXkz9tp7b5x77jlARQLTrr4KO1w6Cl9WV+KBBx6wuG5cvwFl5aUoKy1Hl+264IQTT8STTzyJ8aaCcOt4nH3mWTbjZvkyA4um5XHsMceKhzKbBiZwmTDhNpeFxWK46MILXT2ryLSKXMZtnLkR1Nq6Guw0aCdcdtnlnga8PoEvTAWhXz/0NTMIAKZ9OA1Lly61zt5k82aT4dFHH0OHDu1t4PDF55/j/PMvwK23jbetlrvvvhsnnnQinv3bsxg6fBhGjhhh5zZMtYPbMitWrsTxxx1nKwh//etf7fOw2MEEhwvRf8AA21Ywtt18T1PhOftnZ2ckSooiy5J6XphUTBgQ0+gTt+R4DocNDkX0KQlpctVxF2IEZnVSEmFl0PFMhDRJ+kvVTClH805+hG1Ki6W1g3Q4kxDMX4TJD/4BB9w2BsUtzIpuHKiqwYdXj7HbCt0POcC6g02z5mDuvb/C8Im3o7QTzRuZ575+PWpqatGiS2e/3kaTlrqqYM9dH8eqF1/D8pXLMeSs05wToRfx7FckgVcSluRQIp4vD5JroqSmwDIV8Zi0IUIEbWlJpzLIpX6+nrOloXKZHZZ+4JT0sKYWk3/1OxSXFdmq05o3X0O8T0/se8VVgLVrnsiP6gvR5FzZ+EPK4JsES55B8KQPou+B3SqJrHjfnGObbMkqKDKRbCUtyQavT0WQmsTjqJi3AJ9OvAdlm9YjhnrUxVqiqn9fDL3mUhRv0yHAy06FAnF+nGfHzQOrS2DGrXdix9NPRavu22PB7+5HffsO2OnM062jXD5rLso6tEPHXt2x8JX/oPLjT7DNAfujx+4jKDxOWOdjSs2m523aAZ2pR2+MhFmZM1npjjvuaH+/cuVK2yq46cab0K17N2zauBEXjBqFO+64E126dLHrfO+88w5uGH0DWpSVY+GiRXj66adxzbXX2nL+9BnT8benn8HN427BI488jCE774xDDj1UZh3YD5if6dipIw4++GBabQTWrF6D3//+93ZQ0OibCT6eefpp7GayH2+5UFVdbTNmU543zttsVMSq4ph61VXY8bJRKOveA6tXr7Lf/6mnnsK+++1rhyhLSsuw8uuv7daFG4ocj7POOhu9zZAiHezFF1+0jtOubNKGXU11LW66+Sb7MybzNlUTc34zL8BrjObHDc7mXCtXrsLGjRtwhJ3JoImWeBxL7n8Utf37og8NKZqKwdfLl9shQbNZ8JPTTsNjjz6G9h062LbHmjVrbbB1332/toHZ3XffhZNOOgn//ve/bVXHYDJmzBicdtpPUV5eZoMU0zrost122GXnnW0F4tBDD0XX7bfHw488gn333de2GkyF4/DDDrObEo8+8ggm3XGHzwICuqKmjykDcThpmedBRAqg2XYFiJLS6EqWRFhCSENK7oj/VE0qSseTyJuizp2OlMif21YBA3Y5TOBFnRbdBM2SkEZK/LzUnI50qrYOcx54GO2GDkH3A/Zxhj0RR93Cz/HebROx+203oWXX7e1w4Yqn/oGls6ZjxE03IcEzBGaD6A9PoGS7bbHTMUe42Kk+gY3zF6IiBnTZaaBqIxiQ40hU1OGDWyZi0JmnoP1O/QEUy8CiU5ssCNpcV9dpw5bEkioWjnSqGcklVb4KiqVUPhzmK194CV+8/z52u2ksEkVFWD39IyxZsABDT/kR0cLzXBFNYpoHJqvIzOlDA2WcFBCIWxJLaTHIKp/MHHDvV3fSiQqTeaYlsnO9JKZzkNolGTw/vcTb1H6tiIcmkl9DewaKvIOHTRCvR9W8T7Fo0j1IbFwP7DwYQy67GLH2pu9Pnkf6WxSSSN1GzUwkgLn3PYT6klLE2rdAybrVqC1vgbKBu2DAnrti0bPPoaxnd/Taew8zoYZFz7+EVr17o+vIYUjE6/HSy6/gv6/9106+z5071/bzW7ZogY9nz8bTTz2N/gP64eijj7Grg6Y3/fuHHsIOA3bA9444wn5dbjGYCoLpYZsBOZO1mt61CSwMb8BPTzsNw4YNx4YN63Hd9dfj9NNPx5577mnbFGPHjrUBR7/+/fyFVUi4CkLHjth1111hnLIZoJsxfTr22HNPty5pM94FtlRvOBfGjBmLm2660Q4D3n///Tb7nzVzlg1Wzj/vlyiqjmPKtddgx0tHoV2/fpJwPfjggzj4oIPQYZtt7Hfp1KkT1q5dZ1sOplJx1llUQSDzzwGCGfQzbRDDlzBnzhz069cPp512mnWkXy35Ei+88G+b8Zvvd+lll6K4qAi/+tW9tm1hSvdm88AMF5ps3SpZPIEvHngU9QP6ou8RpizsZhDmL5hvz1dVVW1nDR577FG0b7+NjLyauQPTJjFnNRWEE044QVoMZuDSDIiauYWWLQwplZr2jwETJ0zEj0/+sR2ENMHacccdb4MYU0Uy39vMOdx62224+647FVmAnz/whV+ypKIrUodO1ieeouJSv14X4xVirtxx2YZfwzwFIX2iwjS92uuKFDfFDFClT4ra4XPzhGLDdVy2ZrgyQUV3tzrJa2vM3VA4LJnhdeOseZj9f89gzxuvRcxwjJivGI9jzauvYeYzf8eBv7kHsfIyGN6NeWNvQazn9tjxl7/0pqu6DvWV1ShqVY5YWQwbvliKr9+ZijWv/wfdTv0Reh5iBp/V8zWQJoAlz/wDq5Yuw7CLfwGY1ia3KDQpmDVbEbwVKZ5vPljyILmfm6HwjSohSXY+V7mk13P7IECTzxUdqmY68Yuy4VS94qOF5TLlmbLwPSFd0Vi6ViyQqAeWzZqFbkOH2FbE2tfexqKn/4YdfnEO2g8bbLfpDFx2wDkOrP/0U8RLy9Ght6k+U+HN/MbEoDyvEI9h42efI9aqDG23256G5FmfIvwh+zrP6ON+x9F2AbC0REl+15iMIPfAZPiB1hvtF6GsQCJW/oJUoCYGLM+kqAsR6jXKCEi5hmcgmLFMXqOuKuWyaTyByvmfYe7f/4HhF56HWLs2VvnMtLwbF6Jyneye8+UyNEJCT6l29TosmToF3ffcE/Gqanw97xP02G13FLdsiVmPPoaBJx2Pss6dbNaw6J//RstevdB95FD7UN9993/YeechaNuuHW4ZN85Ot7/99tvWIRuH9NRTT+P999/DzoN3xmGHH4ZXXnkFl19+uXXEZmBv7dq11jGZ/ncnU6ZMwM4wGOdmSv+mjG3+3QwX/v73D1qWvvPOOw/FJcWWkfFfzz2Hl156Cdddd51jTiSb/QwFCPvusw/+9+679rNMhcI4LVPJMKuP5ny/+MUvHDfAww/buYl999vPOmWTQZvXm/c1GfTQQbvgy7fexLa7Dceny5bgoxkf2WE/46xNid3wBHTosA0uu/QyVFdXWoU25zZOvKcZ8qKg+cWXX0Z9XR2OPuZovP7a63ZFctttO2OPPfa01QITIN0wejSOO/ZY7L///vjLX/6C9u3a2debKosZ+Ntxhx1s9n7QwQdjn732cnlnPIE1s2Yh1qEDtund0yrntKnTrIM3HBRGwL9a8hUefeRRa3s3bNhkFde0e0ygZVotZjXUfBdT4TDBmtnKMMGD+UwTyPAvQ3plNkJMUPfjH//YtkU+++xTu/lg2hHme/zvf+/iwAMPsJ9/5513UbXECaLTWSaF8jTZLruRLU6q6qg1QppYy1VXZH5bKq4hHWd/FeBp8Dpuw359btZNT+/nz51Sf5lYSc05cbJEOs6Bvb2ES1aUaa1OV1ai7I5a+UyyO4y3nJs+mDNc+91iiNXF8fE996Hljjui//FH+rZnIoEv//EcFr/yBva7dyJiJSV2FfqLRx5BpxO+h27HuC2V4qIYZv35/7Bk+gwcNG40WrRuhdXzF6FDt66Ye/ddaH/Afuhx8KE+PrC21RGmJdZtxHtjxmG3sdegbNttKfv2s/+Bsrk9t9tMkJmxQmKZ9vly/XXLyqUT1S0gl+xXEMPad6dh4cezsPs5ZyJhVuvNAP1jf8TyyR+h17FHottRh6LIbpmZLbkEpj/0R7TfZTD67ru7swMV1Vg7bwFa9e6J8k7t3cJcAti8aDHmPv8vjDj3HBRZAjkK4YVtVM9Z6K2SFLrCdiOVP0yLpZ2F0QEC5xMkCIooiaNsDoG5/+GNBydmweGaIKkHRcGBgmK25C88RKdukTNiUhdHken7Ul/GR5ypyV+0IZb+lURhZByr6zDrwYcw+BdnosQ6iBgWPvtvtOrZA133GMaUTfJfk90PHjQIRx19NLbpsA2xBcZtqXn16tV2KNH8MmVtM4lvSInM7005+rDD3NaFL+26NT1TSWjTujWmTJ2KDz/80G5HWAIlInYxmbMhazLleOPQeRjm6aeesiuHBx9ycID8hVwDli5bZjNds2VQXFyClSu/xpKlyzBi2DAs/uJzdOrYyQ7jvfvuu3aD4qijjqZhLVi65K+//hq9e/e2AYtZtTTfw9AlV1RW4uqrrrbVkl133c3OL5jz+gDhRdRU11AVQ7WyKFswAcOTTz6Bc875heV4WLN2rQ1CdtttN7tlYLAw66KzZ8+2FZsf/OD7iMX8SivLgMHZvGbFiq9xwAEHwLQx7rzrTlx+2eVYumypHVY0rQzj1A0hksHKPKO2bdugrKyF/S7G8b/zzts2OJMWjAn4i4pw4IEH2vc75ccno5ehjuYMxzyBGGxg8frrr+OII47AWWeeqYIClS2o4azwYK/TrSxJxSKJkpSu8OBbFiQqTarjvFMvoZdqaihOgDBRkg+wCoOlye5Mihf/ejnevfUe7HnzGJR0bCdJhtGx6nmLMW3C3RjyyzOwsXIj6uuLsO7lV9F5112wprQM3fbaHR17dMPGqdMx84mnsPft41HUotQNGtbXYdZtE9Bhv33R4xATIFDIxpUEIx2mAvbY41hZUYmRo85DzK7Vqkw3k71sJli6zNWfO+gJyKnbrNc/68jnK27Rj4dErj5S4JqLrvjGnhO8JP+UAkvnJ9xPJzZV4b1bJ2HkxReg5XadbYBgf9XXoeKTRZhzx13oeNzR6PeDE903qaqxiWvMkOcVF2HD/MWY++cnga++wOCx16Ntn55c77PVhk+f+CvqW7XGDicd64IPzU5M+iJ1hQKQTgX8YcjuxMyQIlffhX5XDRzIsAw1koUsKOk1YbIKX0oTAxgg2SDAU5FsqGiN5E4mOznDcGUC4g6gCIxbFu7c6c8U+RqOc6rrMe/vz6Ft3+7ovsduWDJnHtZOm4661m3Qba/dsG2PbtJbN7UkM/QnPfO0Z7LLlYjXxx3row0MfOmQz2QFkoip7KCUueTI3llAESR9N0vgI3NWzkEZp2a2IErLyonchyoq3LM32QdtZEi/gLDkepcLVogS2vZiuXpE7+UbY74YmHDMjSbjsdwGdraB75dI2HsQzOcKf4MM61K2FCNc7HAiufsQlvZvhZKZwkEh8PK9a1MNsF8p5tbH7Cyu3ehwrI7u39y/+7qveCtyq3JAWnl1q2AG8MrNFSgzBFiGVpnL+pT5miqECUCKi0ro+XKDndsUueqKiL6sz1njJvKt5hkiiJJSYRnUFV45S0eGlnxu2rJKkksfNNFtkapVYcMXchIuFgrRqieR+zhL7o05JzKZddyeI4ncR5GZGj2oi2PxQ4+isqQcg8453dkUmxyRS6itx/Ln/4N1K5ajw/Cd0XXkSCx77U0sW7gQ3fffB12GDLKtgRUvvIylCxZg+MWjgGJLwYpYfQ1mTpiAbfbdFz0POZScUvjcCVTM/gTT7n0Ae991G0ratvK3v/JaKDuoKHuZQldSPV8aVYggJSqAXGoCL7HhJANiY3gjI1rH08mlUHGoNkWUnW+wXKa0O0Ys4kjU1OGz3/8RJTv0Q88jDGtrEdYvXIzSDu3QatttrCwtf/gPWLZ2g92mM63oz//6N6xavgy7XnyR5bxYOf8zdOzQETPuuAM7XvRLtO1rqr/kD+MxxFetxYe/ewBDzj0DLbp2c6MwGfyhrShl9IdBHc8KSzOkKOGLKsdLY0QiAlJKUhopkwaIOCSk80Mq+l53Hq6i0M232vzXl/0rPhSfSUEk5pCFJM2ZbJxA34FiHOdgJKAQ8+kU2hpeDwl5RnlCrhTqvIT06vjvtAXLBUuOCvmt7VpMdlh638TrbGEs2TI7G+4yMP/euWDpM3SmhKHPSoelrGyJ9CqzQVE8TzT7iC/Qt086N7W+dPAhK4+8jiqBSXZY8gN2hqUBWCoSFTFwaeWSgg0Z9nUeP61c5o2lGmLTpb8IHU+rK2SJJEbkhX3VE3UBDA1f2SAgB7lsIiyZ8TC+ZgMmXzMWO55/DjqOHEJBGLdVXUBqtd02lRXxEMd9Boj6BObd93u03GUn9Dr4QBi+d6trdbX4aMIEdNx3f/Q85GBfC7AyxnoIxDZXY+p1Y9Dzx8ejy777uTNo1ZVLolzoxSG/H86Q1DKo43liySuXKeVSRk/S2HBpgaQ6txpmTSGXWdnwtHLJn63kMle7Y7Zc5n2GKQ88jH1uvg4lHdraTZT5v30MiW3ao99RhyJRG8fCBx5F+bDBGHDiMVZ2Vvzr31i59Gvs/MufSesqVlWDyWPHYNCoUWjbx7WH7aOKG0IuYMVrr+OLmdOx68UXA6WOip5/+Uqfsqk6yeSFgFDiQr3O7PwhY8lUy07Z/aAR32Ql2VHIJfqyDnHA8FAglTydrQgTf7jMwfcJk4ldJLugzJj7bK7nRDMMIvSc+xF46s4EPreLkpRKacISShD4TBKBieLS5wWCAUVoQVUKLp6xk2l0LGUiOzOW4TPJN2oAlk4cG4KlpI+SibONY7IsVyXyeDcMSxYaOicpSEAGInaQWeYyyWXgTLrYIB8rER6VIwsjlxRPB/UpIAMUaPFVtgXBUrc5stTxPOTSebXG1/EwlsbxbJr6Eab+/jHsc8c4u7XE+iupg7paPSgDXq5RG8e0G8dh0M9/hvoW5WjXrYv7StU1mH37RHTYZ1/0OOxQN5QmMxZsm1ygsOKf/8Lc99/BgbfcaockGySXSTbcz3RIAs+RRyZ7mdGGB7cnSAoD1bYwlg2x4Y1pd2QQk2Q3ld2xD7OmFnN/9zDaDx+KbgfuQ1WeODZOn4Uvpn+Iis1ViCVK0G3nndHtgN0sF0IiXoQ5d9+HFrvsjP5HmgoSJR9VVfhgzFjsZAOE3rStQv4sHkNi/TpMHncbdrn4ArTqY9qY9G8059NQf5grlklESfYNKNhyQQl1O+zfUXnb20FZr8mK0IIiG8nWeBtCgt8UxBD80VzM5o2Jgp8pSGjB1Qc1LuSNhw9I/fSC4EJK2UhYBgk03EEaRKJi2xiuuOWeefrn6z7XiZhkFNzH08FgxPuEsRRjkkIG/PsTU1iWWHJWaClms5DdhmPp4OLyuJSY5PsUUlfSy2VjYRm2Ay79SS0nDceSpIrtTo5ymUl2tRNg2RU5qa3Hp/f9FlXF5dj54vM8bwo52kBom05X6uOYNukeVFTWoO8PjkX3oUOw9JMFWPjSG4h9PBtV22yDkiE74qCf/BBF5Y6ZM4BlAqhdtgTvXzcWI8aNRZvevRRJTgYdT2d3mgBLlhMnGSlseNhe5mB3GvJ8tezmJJcpsDTt1oqZH2Pm43/FXrfeCJSViS20F7WYlVWyw2YA2mm/GUasweTRN2PAOT9Fx8GDxdPFqioxecytGHTBL2yLwdexacQ+Xo+1r7+Dzz+cgeGXjQLMdfWy8sp9cMK7EbG0Mwi+xUAptRh9noykrxsiI+GqBt8LTwMBQYfDeuA8hBP6hpC/BMhBKA4T7VUET9TOTzoTl3s5FOMSKD/Khp6JY7sQ8Qdnoz5jae5YUvZOnjm4Zq7GZGRPn8SGnkEY74ABTCkDJGjW02qyrOTn64NK7sdHnInISPKTy9CZ5Plq2U0+N8+LWNNAzb0A+UuOcklhW6PoSrPGkqtUok+5yaXUt5RchrH0JdoE6pavxEfXj8YOl1+CdkOGBLOjbOSSL5Yzo46bqxCvq7czBKYVEa+pQ121oWJ39jNeBJS3MiuzIdll4a+oxPTLr0Dn445BT7rePSVRUkAuVTuC5yaibHgucmmTBt9CtHZMbGjj2HB/EduW1PFkLC0K9XVY8NsHUbT99hjwo5NcQmZbnU4+pd0W8iv16zdh8hXXYsQNV2NNdSW6DhrgvubmSkw1AcL556DtgL5IUFwgLs2Qw63bhCmjx2HQqPPQfvAOnngrS7nknM0VUlPb8FT20tZhLVESGTU36EDRPJVn9YBCgINbcKSYkWMLFbqxrEomR6+Ru85lGElNq/JrUpyJKYEppnbKRj1Ujtp8yZ/aePpMFMOFz+SDFi7JRZyJ7xUP4aQncTWWUk5qxlj6RmfokpzQ85W4qoBYOgEMylzDsOTA3Efukss0oVxqLHlGR2TA1Xm8foVKdb47G6VPtBbJWa3aLnJGwEl+zliGzmQNnQ66t6COJ2FJ1i5fHXfVMl92X//OZCz84x8w/FeTUNK6rZsL4DVCZQvTyiUP/AZ2qTjr59YZf6Noe2lNWCKBT++8B+urazDiuqvdTZK8k09BBLeBucuqKxzR5/aIuecrRliy3EaTy4ZgGWF3rKqE7I773ql8j2+XB27JbBCWzrbULVmKaXfdi+FXX4ny7Tu78IyGnoPkVEEdj1dUYdrEOxHbrht6HbI/th3YD6vmzMOmj2djw7SPEOvdC213GYKee+6K4nJixWUMas3w7COoadkKO575EyTsQHuO9jJJx3PDMpYwezx2Qtj1/3g4zkWu6mIZrvn6trcYE54YpVEeqlSr/pyk0VyAUis89mWhWQUqeSeRN5HCMr+4P7eMNaj9cUrkqBvsoylVJaFkL3DuwKBVmPyFRJJCLrm/IGzsC41laPiL6/t8bunfZ4Wlv5FTVIzCX6G7JYjYmPiJYIneqLWUBktfOpHWBfeZuaWR6vnqHlfB5bKZYKllzolT88NSCFd4yEyToVn/57dvnB3iFTZu74TIfbjFqKp1kc9XtRKz0fEGY1kXx+cP/QFff74Yu48bA5SViA3kzaL0Oq7sDlVGRVdC9jIrLBMJVE6Zhg/ufxD7TLodZV06CllWOh1n7BuGpXOAUTY8Z7lUzzd3Hc8FS9/jjvQ9ecklzYWwDTdGK57Al398Aps2rMfgURcAJUZXg1VrKRyGsbSrrnG3rshLaDYYNP8321TmuxTZCgL7XPGHcaBm8ed4/+57sc+tN6G4Q1vZeGuwXIb9oeoVR2GZligpTFjCkRzf6Ggj0oaSqFBW7exKmPjDcx0E++Lc2+epYl8hCN4yyTEKxZmyokeGi+RLK4CbuPZTxaLfjUT+orHMm/gjLZak/BRJ+vmBrQhLTc4lEbRfA906sWSyGUXg1RRymQ5LitUl67K6mYeOi8xlJvdJkku+GI2r3FkStHEp1euvD760jlv7XFmLj8fehLJBAzHwZ2e4dbIAIU2Gc4ewdNUikssGYGnTpg2bMfWSq9D1nDPQY9+9KEnzU1DR9jKDjqfBMp0NzxZLFRsq8qawDc8BS6kWNRxLm8qJPuVBOmWS5s1VmHHD9ej2w+9ju/329Suwdh02M6kYO8kAGZr1K6p95gZSXA7F5zZ/qKnHRzfeim322wu9jj0iNAOWgiwrja7wCFG2Om4DBDqbCyX1oAmzLIUGavhVTAnKX0oP3ch7SbtKVQ1UcUsLV5AcRI4TOhO9j5zJv04GZEIlWA4y5JURZefwaySwChCW5HkmHuBRg17JWFIZMOk10YRSGc+dFqetGEsu624FWNpnRLV7n2GKOfBC1YhyGSSkUcNkUiUMDs2F5TJpbkgGl5pSLiVaCGS9UXZHCjLBaTVVwAbqP1+K6WNvRK/zzkWXfdyNjL61EbaFXlcESzOcRo6ISDX8o04jl6mwtParpgZzrx+HxOCBGHy24WQQofD2OWxTG6TjCktJ8nj4TbcleNouNCVcIBueXi6jyO4IhgbrSvC7Jdl5haV9pWHsnbMQM+69F8PHj0WL7QzTJVfHvcd0ouN0KNofBvGWzJqDBD2SygGCrV4Ay/70FFYsXoDhN15HgHArlSt2FARznzLKj/vRKF/R5eOnwdLOIITWFsJvT9+YgGV8+Y9cppdyvZ+rksCD8PQlDOrMykCNL016W0rflicoVJhgn4WruZEWc6mT/qjBUFzlqoorDzFwJvlu9BtlM519V58ntoR6QsxUF3kmNdtL55bNAaX/cpZILP2Z7En0a6RFw69RZwqfW2Rb9bK2KixVSFQALH1ELbUq3a/ycwPi47eAXIodKrRcfkuxpIe+7tU38emTf8GQieNR2sVRHAdsSljHtd2pT2DhCy9j0/xPsP0xR2O7QTu6ORBlbBuk4/EEFps5hIoKDBt9PVCqiLxkqIsyT3JmSecO6biYAD2IrXxcIGjNxV6KSczC7qTD0r5PU9lwOrQULPA8AAAgAElEQVS0Q9yf7axdlA2vrceSR/+MFetWY8SVlyJeUmQoLoLDwxFYOkzVBqDvIEb7npAN9zw4QMVHczD7vvsw8p5JKGnb1lkDHjjlsLaRbDgFCD6JcQx7qtahSFSYrEKGmWh0wPnENIQ01v/7aMcFAVT+t1hz6BOKiCRU4YCCpSzZWaY6E89R0FysH0CKGMRlBXdYCxFDgBpUx4yO54HOpMf++dyFwlKRkTgYs8cyKSNiVjk+N2cCKohr7lhyS4p74DnJZUGxVLriU1aB3Im1f41v9wV1hdNONzyXvLiQJJfOQhRELvWZwrqi5tkoINfkPkESpPzlsmmwFMKZ+gQW3/07rPtqMYbffbvh0FZzNZRoOKsWqePmEqfKeYvw0fg7MGziLWjVvYta/fXzW2x3PLEcP99oLE2/e/VTf8dnr72O3e69E2hZTuKh7GUudqcR5TIvGx6yl+l0JVkueWg3PZZen5S9dGEcpZupny+/oH7NRnx4zfXocfqp2H7/vcnk+GCm4Tqe3oZL4lIE1G+uxPSrrkWX449FryMOd3ImAUegL+mOncbuZMaSxJ38g1Atu8+jrkgEgYZ3zeRJkl7DDH3RRDruYPo1NC0skZOP5Fx/hFSL9sploI2CTd5j5nM7m8lEKymIXXgalqJHH5Azw1ymM/EMg2Zc9NE877JmOhPZdploTz53bli6MmeWpFM8yRvAwAVomc6dG+lUJizV8+UYnh5IYPiS5DLV880byxzIfZqvXKbSldxIchyWXn9zlsstgmV6XUmp47VxzLl6DOq6dMLQay5zYbKdQcgOS/MDGydPxcePPYk975mA4pYtnHG2SuTepCFYmr7/pvem4OPf3IfBY25Ae6pMpNVx2p6wH52XvczN7sjGR842PD+59GR7utjnWUJdgq0G33ORS9lEcUlyxcz5mH3PPRgyfixa9egqJFeZ7WX+WNrLvMzzjNfjs/sfsNfX7zn2RsRKS2WpgOUiW38YlstMWMbMVQy8QiIUF4Eqqi6T0EPwQ6TJREn0YNRwpLzGTdxQeca+FRP0OO/ERW8ZJlJBCye6gddQUCDlqQacO3imCEIaniNWmXfO55YKWmGw5FDOB1wNwJIH0Kw983chNC8sqRzIPb8GPF9f5o2W3e+wlNE637bT9x4o2U2nKy7eVMPDNPDbMF2hvfLGlMvNlfj4smtRut/e2PH0kyU45kHlpHPbTmzCXudct3kzisvLsfL5l/H5nDnY86Yb7Eqiq5Jnp+PpsIwvWYYpV12JTj/6EfqfeIJMv+eFJZOhBQhOqFJSoHNH2vCMdp50nFsMDdDxRpFLcw7T/3/qH1j85hvYfdJtKLZ3ZJCUix+jagKfm4mpbIzos/uc/SElTVwSWPf665j7+F+w2113oqxje9kgCvrMwmPpiJKIGc/1YFzmR0V8fzGO/bJ8ANcD4elG2WRgQ66iN7ej7cs6gTa+6vkE+LeUkGR3Jt+UT38mdxI5U0go7ZAk38eQ67m5JhRgGfw2Y6mzsWxkINQPJwn0iqWxdGVfJ6MhuQw8X+r1bPVymQuWYZnjwFsHv/411txtFVj66a98dJwrCvFlKzD76uvR7rST0efIwwMMgDIaZY093ZlRV49V06bh0/++hpLOnVG6ag1iXy5BbI/dMeSs0+lGP3W3Qo5yKXbHfKaZmr9kFOKDdsaIyy9DjNofukcetJdOE6RaUjAbnslequ0JdUOj1O+lohLlVxpPLhtsw6U+T77NsGxOmIT1xcDIq68CTOZODkzbHZvoGyKs+jrUV1QiXleH4tJiFLVsZa8H13ffpPKHUmGnpFdsm3VtCVQu+BQfG2rmcTehzY4DZOjZu2QmclODphl9dMTz9Z7fVeTdZY5UDqZ5A3s46nHwdID0UqmO5qcGgsQQwR12d9goUqIgYUl6oiQbjKhhSDb7cm4qcflzN+xMLNiejETfe+4qH+nOzb2fJPKm5oQl87oxc6GAGWwJFB5LP1jpnLuXuSTyFzlb5jNtUblsMiwzECU1EZZ6AC9JVyJIa3LS8SbC0p7JTKZP+xhz7rwLfa66FB13Ha4WC7RcusTDGP/Vb7yNOc+9gL3HXo/i9m1Ru2AxZo27Bb0uuxiddx1B9tK7DzJ8PkUnPYsmaHN2Um6pravH52NvxFcbK7Hv3RMRK6N7GVIQy6WzOzLeRQ8sTJRELiI1gRfZrgYRyzWWXKY9k8Yyd98jWBqHv3o95lx/Hdof/T30OuE4JOQScKqW8aBgPIZYdTVm/+lxLFuyBJ07d8L6OZ+i5dCdsfv5ZyvGRScEOflD83UMVdHadfjwokvQ+ZQfovdxx9EupJ+bJ0FzLYk0/jDJXmbAMgNREs0CuOaWmwgRoiRflo4iWLBqJeOz/ud95MsTjjxV4WcbuGTkiT+8ovKQhfTDI0mJ1Ll5SEcGKn1/JOrcNIXCU5q+JSKDLf5KYbn7l60l4RRN7tNcsKR4kDIcP5Saiiyr8bF0oiU1K44q3SVbmZ5vlFyS3DW+XGosg88347m1XEolxIXdSeemoFwqeLpVR7/XulIoLAPXkMvWDBsgKrUWTMdTY8k3FgZJ3DzeAaKkEJZh8iYLZT2w4i9/w1cvvoyBt92ENr26q+iVuR94kDQBVNVgxnVj0enII+0Vv8YMbpo9G7PvewAjJt1qr/rlcnLl16uxefNmdOrbm2aiFIW4Sq2lVE2lMLGX5uHH4/jqd7/HshmzMfxXt6O0bRv2ejQgoXQlE+kUz3MFbDh/t0w2nIfJdd1fbWSxM5A0Nr0NL6xcptAVK0b5+B7nq4xdrPjwY8y+924MvP5KtB802Lkl3mbSdgfA2v++hQVvvIU9Rl9r200r/jcFX362CLuefrIjQrLQME+GvphOYSwV7ZAtNEeqqsWC667HhnbtsOtNo2nmjLdm/EB9TnZHDbxH2h3ztoZp2c3VMKmyf8gyLCZXjfKkMU2BUitB1jnsVbtcfaDhPUWCJFEOkRJ5Ig5Ff+pTE1EwLp9J5KUKgtrBufBMEdDw0KW6adINdfAlO/wgXPSQdNMkR+zqTFG3UcpwJw/6pcMy8kxEl6tG2O13zRNLGXSlfpnfNlFRbN5YujkSpvvlCLKgWLJxy+r5bi1Ypnq+314sOQDyQ6pqGDitDKTTFWeYpSdl/lRbj/m3TsL6pUswctIEFJlre43umf21sB1IxFG7cDGmjB+P4beNR6vu3RGrB5Y/83csnTkDI24e6y7SMXYnHseiZ59Fbat22Ol7h6Ny+XKsmjcfNRVVKCoqxfYjh6FFl04UANPAs/o8qT/EE1j193/is+dewJC7bkeLbTsLIY9c2EO2KZWOZ4ulC7qc7fP2PpUN11jmYi+5kMIMm543VHxPnjqeq92J8j2Mpf1vfQLL//oMvnrzdex6z0QUtWojg+ByjbnaUlv96utY+M/nMfSyi9Gif2+gth71tbUobtXCHm3j0q+RKC1Gu20dTbPzVf4TPXERDZxr32McQX0cSx77Ixa9+z72vmsSSjp2kDs+AucO+Lps/GGyvdRYClGSXq+SzJgzMXXbXyDS9cTtUnqn4otTycBqq+/PuYSIHYsebQgGKVFnsmIcGBTxyX425xanq6J5mYuQLY6oM1EEqLdKpCVDQ1X6O0nsQb8pIJY+mFOKpwoyXMJ3QSuRd6j1OcYpCksflGQ+t45zXanFl7z8RkxmLJ2wUB9VLj5R8pEHlhL2ywhdUC4LhSWXlPXuewDLJF1xYLE+JWHpe3tqu+hbiiWrOMtJA7HkSRhU1mDuVddgQ0kR9rxjElDibspxb+tnNazzjCew/N//wfynnsD+Dz2IWFkLG2AsuOk2xLt3xsDzfyld23h1NeL1tSg2vedEEd695zfoNnwo+uy7Nz7/67NY9uWX2Gv0FUgU0+wM1f99gkH2Lw6sfv1NfPrIHzFo4i1o27N7enuZRseT5LJAWEbaeWoduvSRk0jNi6N0XNnw3H2PvL02OGR+eBOPT6CT3+ztpXnuCybeg83r12D4bePsGmwqLO23rajE/HsfwOqFn2GHM05Gx713R5HdNjBZODD1wT+gw+AdMWD/fVC1ag0qV6xExZp1aN22NdoO7I+iVq2CPjOMZSKBqmnT8eFdv8agG67DNkN2tN4qbMMLjmWDiZLIGeh5hXDl0xv94IwBi4lM1dC0p1UPzpr1NCMVNfxYC0u5Ln35wMwbZt6OiBLSiDOJUfbm2q9J8ftLjyVIVqEGLp2k6ugomSjJT97S+/oZLJnWo8Tfv4BiRk6IyC5Iz0l+kLKB5o2lenZy0CxJp6ii5SxziIwkk1xKFEPrfBR+b1VYpiXwkrJTavIXrU9NhaUmdtmCOm5sUmLTJsy84ELEBvTFsNFjkbDGnwOEoFya/u8XTz+DpW+8gj3v+w1ixWXY8L+pWPzwQ+h88ono/r2jqSKZwKL/exZfTJ6CfcbdgLI2bVBfWYXiFi2sqq/93wf49J8vYreJNwV498M6znMb6ydPw6J7fo1+N41G+52MM9gCdicQuEfZcPbPnEykIWgL6zgts6Uk6QvIZVKnVwpCVm+l/eV5rtgW2qepdFyymIBhD9kd43Zr41hw/WjUbd8Zg6+4ws9McRJErR230eqqR6hNYP3kKZj/wO/R5aenoM+RRzjZqI9bWSgqL7ftozduvBlDvv8DdBjQH5/c92uU9OmLnc44LVBRYLvmYUugbsVKzL78WnQ55+fY/sC93RczdzwEzhThe9JhqfK6KCzpumexGIqrwAPr+/KahCFEVhEmSlKEND40oiIaRRVSGvHLx+oJqzNR94ZjhnB5ggdLAqykLBk0XasZaAKENISne+8g+Uv43Jpi0wc5JIH+UgqJVPQaIgupw5J+2n4mUysrkpw8sLRDVVK+4YgnDZYc7dNLPJaseWwENLGH/w7NAUsHo5OmJEKaPLAURgC9o0SZkegk9ZB9eBpFopICSyWjVvaEKMl9F5mmp/tAnDPx/UahJg+fSSbTkklU7LnVym5YLguFJU0qyNs3GyzN91+zBrMuuhCt9twDO1x0iSNA4NZjAEs7xY3K2Z9g5oRJ6PPzc7Cprh7FddXY9NrbaDdsJ1S0bofu++yBtl06Y/2Hs/DRk3/FvhNucs6AdMtUHGY/+CjKu2+HficdR6NuIWI5CfqczlbOmo154yei16UXodPeewS2j5OwlCyN3J9+viKY2cmlZ/AL6niuNtxZuFR2JzO5T0q51DfqyjhZNJZZ6UogEaUszRx+w2Z8fNWVKN1rDwz82dlevcVe0h0MSGDTV8tR2rY1ytu1RawujiW/fQRfb96IEdddhkRdLRb+5f+wft0G7HrBeYgVF6Fi6VK06trN4rPh5Vcxb+ZM7HbNlYgV0fZghD80f2UGFT+5/GqUf+976H/KD6hy1chYmjVHuSxJ3SnHi46cS/tLW3T/SP6VSqVOuN33Y+Hg6DIQ04VeQ4JNP8KzBlyB4ECCxk/8vCQNt+kZAH6NL9+GVuJUBhl4TYpzu+ES37PnqWbvIKhKwUZZXRXre0O+IuF8Ga+WFQJLN1DD5SZvD7jQx9GxV1l6Su5nQi2T4DxFjs+XDVMDsWQHz44wnVzy92wsLLVFiJIBlvDmhiX3sa3M8roy96vpoqvMcum+nQTBZK1dOyRbHfdymQuWyXbHBUWFlMu6pcvwyZVXosWRh2HA6WfZLEz34b2Om8+NI1ZTiy/+/gLWLluFtiN3Qd/998LS51/BqkXzsP2BB2O74UNsgLHixVfx1fxFGHHJ+ZLZJeri+PTfr6Bq/ToMPvVHqC8pQTGb9ggs3fOLoWrBp5g3+kZ0OuMn6HnMkd4ZKDBFLtX11VoumwLLsJ3PZC+DNlz12yN8j3gMfWFY2K9oEqQs7I615GQvI+XSYJkAaj77ArNvHIv2P/4h+pmtAZnQ4IIEtZXjwPwHH0VZ967oc+RhQG0t5tz1WxTv0B+DTjnJOsNVz7+IZZ99hV0uPo8Kx8YnJZDYWIPpk+5Gj6MORZd990zymQEszR+qqjD/8itRv+Mg7HTphf5MWdpw1z4LrTVn8ofxeJy3zHzMR35BDLWU31T5Qpcm9HaoIkpiRXMBLhsWZWRsS8Hvb4aJktxP6BIKuXRVjndn9L12ekvqztBPR5GDcFXCHsEP3NDEpuzXpzpT+NwJU0aKx1FcXGwjweRzs6GTFVbfhsgRS7ufapWBh4sohInHrfAXmZKpeUE8Yf6H4mLOOZKxNJanpqYGpWVl9kdkv5dlwKWU/klkxNJU0eIoLnLEMVYR6P/2XPavzN/FUVRczNFVBN5ATW0NSktK3fdREZmU9VguCT+et/Av5SyccBI5kbl3NwgbgWW+cunOGyZR4UAzs1zG6SrYIpNVGHl3dCUoMtluBKkYP6E6MxhVXGwx87IroyjeCKnnKwygEtNHn9vpVrSu2M9vJlj6gNnhLeemwd+qzxZj/uhr0f7UU9D72BOcM5fpd7WqaH807oKEuJFVKlSZR2Cu8LWGpwgx80zicSz43UMoH7QDeh52sAuw6uux4q338PXizzD0p6cCpWZdMXSmkL10igvUfPkV5l91DXDE4djlZ2fKFHxTy2UAy7ANJ0KtbM5EjyEku0outa5IwY3CpQDnd3DsIPB8U/ienOUykcDmt97D3Pt/i97XXI5tR+xKBWbtXMkkxRNY+t/X8MXb72NjVQVKimLoNmIEdjj+aBS1LLcDrXN+9Wu03HEQ+hx7JN0EmQCqa/D5P15EXVERBnz/aDvoKrcn2yozp69K52rq8Ml116K6pAWGTRjvXi861zhYxmyAkIJkw+k8x7ScSqciLFEFpUjCIefEdJuAKyn816o16pVRevvuR61K8pnqKRKLGSWl9zdGwAwB8TE54uS/CBPpcPOZMnubSfDvdZGMnbj5CvG4ZN/8qR999BFmzJiBM844Q+6ZYGfInOU+c4vG0jiBIsr6qqurcdedd+LiSy5BmzZtrFOdN28eVq9ejf32208crUxIJYD33n8Py5cvx0nf/779Du+9+y5WrV6N4441O7wCSCBmrK+vx0033Ywrr7wSHToYhi4eJnVuo35TBarWb0DrbttJKVZH3hQ5SJC25KslePYfz+L8Cy5wyCeA2XNmY9q0aTjzrDPtnz/++GNMnz4dp59xBs/9iGiIj0okMHbsWPz85z9Hz169VLHSfbpZwSN7Ze9VjxtHan/YlYs3btyIP/7xT/jlL89DSWmp/flHH30UQ4cOxciRI+0zYpFxbQlSeDJOVHSWxmtANm3GSaacW2nuYauyH315CkpcnJXA5k2b8NLLL+OEE06wwY8IakguX3zpJbRt2xb77LOP1ZsXX/w3+vcfgIF8KRA/hJBc3nLLLRg9ZjSKiop9rsUVJuGUSkOURI7efZEgGZoOwHInFZMJGQLa490gLMMET/rcKXScn0HlvPmYO/YWdD3vHHQ99ECvrwrLJIdG/R4OxPSXsPaztg4fjr4VO13wc1SXlmCb7bpg3Udz8dV/X8dO5/8cxWVlWPjOexhw0D6uYqFkLgrL+NcrMefyKxDffU8MvegC9zNiy0gHSAZ0Rdqd2z9fp4PpbLiT0+zI7lLbcN5iysaGax2XKiadk0n6Up/JncGT3ankkGQgSJSk/FLK5yvIuqK1cfoPP47lb7+FgRNvQZtuXWkYkNrqbPTEkrpBxES83j3XYpppMeFlTQ2mXz8GvX96KjoNG+rot+MJfPr0c6gtjmPQ949HwiRK4r/IbrB9oj/a/8Tj+PyeX2HZ7PnY+4H77FaEIdFy0FHSk6uOZ8DSXtbkJiGZnYYKU+TNJDkTjXFhNCdjTviCwYE7sXTKIokhKKynqMlVGHh9xL05D5+RsIcyHtMbrPlyKWY9/Bj6fP9EdBq+i7dANCFL4uznGqLOxErG6z62F8nDktFnMg/qsccexaZNm5zSxmJY8fXXWLNmDQYNGuQNTswkAEdg4MCB1jl99tlnrtdpvxLv6nIrANhv//1x+OFH2BNVVlZY53j//fejfXvjuIEpU6ZgyZIlOPHEkyQSXbZsGVauXGXf1wQpK1aswKGHHmrP9NGMGVi3fh0OOvBAK0AdOmyD3n16B3qDdXX1uPiiC7HHnnuiVatW1NVJoCQRw4EHHYyaD+di8qv/xgkTx+NPf/ozlixbgjlz56BXr15o3aaNzVR79uyJbbt0wS5DhqC2tg5//vPjOOecc2ywYn4tWrQIs2bNwkknnWT/vHDBQvsex9nSHdCmdWv0HzCACEW88bvgwgswbOgwtG/fwa+gxhLYe+990LNHD5hp9K/f+h8Wv/Me9rzxWtSXFFs7ashBX3rpZaxdtxannnIqtZgTuGDUhbj+uuvseTlgevmVV/Dmm2+SFHB8ZKowxTxwYysiRbGExfWwww5zZCQ0GSUDUqwoKkOktINijwQqKiowZsxobNq0GSefcjIOPthlmu4FCSz+fDE2bNho//jO22/bwHD48OH22b399tvo3bs3+vbtY//csWMn9OjRQ/bvjQ4auRx1wSgcdPBBgSC1vLwcxxxzDEpKzHciAyvVF64z+Mw2pf4yShyZSQaZXn/D+qT1kofyUpGhcYaY/txcRkxhd1jH6UlUzZ6DOeMnoesvz0XXA/d1dTOJ3pPtjphGctE8OS5nMsa5vh6z7rkf1WWl6LL/nugxeAfMeeBR1Hy9CnE7j1CEqrJS7Pf/7L0HnJXF1T/+vdsLLLD03juIdBRRNBZQoxHwtUSj0YS6dKRIk96Romjy2jDGLkaNRFHRRKWsSO+9SdkFlu313vv/zJk5M/M8e+/dXYr6/v7Zt6jw7L3znDltzvme74wfAT8lb9Yhgf2lWoPwhb7Uc9g+ciRwTUe0Gz1cBh3dKjLy/qVkaZilSvaXwWxFvq7zki53XNHaalW37JgUNPZYsgwWV9wEbVqWRV4cX7wU5w4eRJs5MxFZuZJqsun0R1emHHqpEgZ7TUWZWVj31Fh0nTgBOR4PKtauhbOf/QcZZ8+h6YO/hSfcgwP/XofGPW9AmKDrtr7JTAxKORH182srcXjtWnRZshhRVSvBL07DwfTysm2c/BzfhSdRso5wb5WTdWksxDP2IdVsojJeiwSCe5mSgcHK3vRMru4+mWTENnJRFj92FPvmLkR4WgayKyai5agklGvamMZR9Ay+2k+VbwR+N+2+zYyuMTq1MQHmhA8fPozCwkLtXPbs2YPdu3ejX79+5MAloxVQvXp1JCQkqLK6DATBfoQjCvPIbDIjIwP9+/fHX158EQmUIHjw1ZdfIDsnB/fec686qfqxfv0GOo2LfTt16hQlLSIhEQmI+O/c3Fw0atSIAn+9enVx1913W6dxP7xeH4YOHYru3bsjPj5eL02MhHe/4QZULl8BPn8RobGFQR0/dgyLFi7CjFkzcfToUTRs2JAC2axZs3HvvfcgoUIC3vjbGxSQ1q9fT697/sJ5Wkvr1m3IEYtESiQyYp3ip0aNGujTpw+Vz/WlXB5gSFISOrRvj8TERIfIOnfqhGpx8UheuAyV4uKQdvon3LB0EYrCwuHzeTF33jz8dOoUysXFUdunQ/tr0a3bdZgzZy4qJlaiGoMI0rfedituvfU3yMnO0Z8v1jZtxgzMnjkT8eXiTaUAfnpPcarXJF12alyCreTl5+ONN97ExYvn8bv77sMLK1ZQAigSSvklHnz2r89w7NgxWouQbUxMDGrWrEkJyuHDR1C5ciIli0KzWrVuhRtvvNGM/IpCuM+PpKQkSjy4LSOejY6Owh29eiE8IlxdIGS5MNe65cktuB8IZeMShqPsSDG6ld7Gg6/JMMMFfoasirGbpoajqjPcLmHP5kfOth3YM2cR6gwbjGrXd9XPObkAnL6JyZpMtdP4S23SRYVEwhQWJStD/oIiWdXiW6AEF19UhKxyWQcwjbnSvlAw56Vh67ARQIs2uHb8GCBC4iRK5y8vQ5ZWodFRd3C0FpUs1aEu8JqMvN06EEqWjsTJmgSjTwupl9b3KQ8nD+WKKlvhZzRaK6gsRfnfi2MzZiM1PQ0d58wC4mOl3GVp2ap2ho6ZQi+8WdnYNGs+Ihs0QOUuHVGvdQtsmzkfBdlZKAgX3Ixe+CtXR/cxo+AT7WmVZMjKCnNUqKjh8+P0hx/j6AcfoNWMaajYqIHm9Amkl8FlyYXLIPakD/2KalkemM1NiFIazg2WWbSbKIl9m0J0qjqVFqR1GjdRydZAlzMxRVEDuuMLWzg78wOFx49j/6x5iL5wXiRV8PsjkZVQCS0njUF8w3rEi25XJJzrNhmvVlQFMJT7wamnUnurZqaBgH7gg/c/wJatMjCLkpE4+WVlZaJ27doQ/eMweFC5ShWMFmVC0cdkB6ZHctTmWJmUeIYqRp4wZGSko/+f++Pll19CuXhxB7gf/1z9KbxFPtxz7z0yoPEcNe1LGL7+ei1EReHhhx8ibf72P98iNTUVffv2hWbUhp9O+fkFeeSOvN4iTHx6EsZPGI+KlSqqgOihaoLAUhSmpiEt5QyqtWiO/MICzJs7Dw899BAaNm6Ezz//HCIxGjlyJObOnYt77/0dypcvhzfeeAOTJk1U91r48eOWLUjeuBEDBgygdW7fvo2qIX98QtCQhunTuFhLbl6+OsZ7MG7cWAwcOJCSEFb22PhYSqJ8ubnIv5hBgK/18xai58J5KAr3wFtUhOkzpmPy5MmUJP3n3//B7j17aJ0jhg1Dk2bNSG6frl6NwsIC9Lmvj5SlAvqcO38OSUlDsXTZMlSpUoVaPloF9DSBMlxOKwLZCp8F/H4U5hfi+RdfxtmUc5gxbQIiIiIoqVu69HmMG/sUmjVvinBqkaj2lt+Hf36yGuUTEnQS8NFHH6NZ06Zo2aqlaqfJL8/Ly0NRUZFSBz8mTZyEaTOm0+fRa4WFU4VGAhbVnL1BtxkcS1AyNMvGragm/YGxXxWXlURKY+McI0svSw6Q5AwVIJaCTwi/wxyAZfYAACAASURBVEHftM6AvM3bsHPeIjQYMxJVO7dXh0Bp98bGDUzT+EJ7pC6wLNmnlOgvS5ClJ/0itg0djsJGzdFx0lggUlR/gvnLS5elmfYr2Ye7ZenWATvRuRKyDO7D9dCSJnji/S1ZLw2ij1sxKvopnyqMqgD7xo5DZmwcOs+aDr+o3lAlX8m/NLbCeikCVEGBdOwRwtcBArjqOCgKHxgpqweaCMtYq9FLvw/n//M9Dr3wIuoOG4qa14nkln0Gd62urI2XkShJnezJlvQws3pZblGwargIaVSfi31qSKIklakVI33wAQXHT+Lw0qXwnDhBACIhHukfYpBZoQIajRqCim1aOOfjQxDSCCxY1oEj2LNmLXwFhajSpiWa3HqT7gnRiVa7PXMaESd1gRPg08PWbVs1BoEAYn4/gcUqVqyIJUuWEHZAthe4lslgPWdFoXfvXrjpxpuQeu4cBg0ehOefex7Vq1WnN3j++echMAPDhg2z1gR8+eWXOlCI740UBB3i5jmvl06f4r9bt26NRg0b0XuJHvjGDRtQv159ylJFFSGcKi/yTcXnCfyDONlf/CYZWz5bjZ4zpuDvb7+J1atXU5siv6CAKiii1z9p0iS8/fbb1FcXJ2yRIEyY8DS+++5bqoSIAMbrEusRyYrP66V1NWnSBC1btqTvTU5Oxkf/+AeaiiAO0PqFLMW6xL9/9/13mDJ5Cr0H170KUlKwfs58ShC8EWE6QZg+bRpZzNqv1mLd+vX0GUOGDEaFhAokg3/+81MUFhRovAaHh/PnpdzFu1/b7lo89OCDiFUkJoxVKKaXgQhLlM6c+ukUFi1YiIZNmuKPTzyOoqICrFq1Cn945A84fOQIFs5fhBYtm+KRR3+PhIQKWLv2SxQVFKFInETDPbLVAaCosIASi/CICLRr1w61a9eiP58/fz7tQ63atcmHMVBWnvT9hPeYM2cOoiKj7ElfTUzFQBFZ6jc+UubJZbRxzSAqnaljQoYSWssVqzZeaWSpflXfd2AyJKsdwG7UxoRwCdt6L7GunORN2L94GeqPewqJ17aVVSuVJFIVNRgZmmpd6sO0anvytFVxWfJJm72e9n4KjyUXpic0dP8YQGY6tg4ZjoK6DdFp2kR4IiN0K0rrISd8v4Asad2hyO5cPlzKlOvQTrK7QDpwxWSp+/Ms+9B6Kd7Jn5mDnSPHwFO/LtpOGCt5MrgjZOlAKL3ULXQpKJVls56pu4UstSiVLOFD4bbd2D5nLqo9KqZb7pTaczX1UnYYbPSGqfnrwy0bgpaIMydw8A/wM26b0Fm/jrbmXywFV9VW83fqtENrKSjE7kkzEXV4P8J8hfIGNQKrCUSxSBeicbZmTXR4ZjziqiZSScoRSR1rEp/oR1FaBjbMmIP2w4fBl1eA47t2odV9d6nfdYG5SE5h2Lt3D1b/618anS+C3rnUc7h4MQ3NVNmcT/c1a9VCt27dIHr9ovzNGV9y8kbs3bsPjz/+OAVxBllWrVoViZUSceLkCYwaNYrK8MOHDUflKpUxfPhwSkqWLl1K5Wc+FYpTMiUrAD744APq7XNAEOsQp+e211yDW26+mZ75TKwdQO/eva2IYDb54YcfxuLFi1Gzeg2kr/0O279eixuemYTUtPPUGhDVBRF4H3n0ERw4cBAxMdF45513VIKQQBgE0etfv2EDlfKLigrxycef4L4+EoPAP6JNU61qVfTp25dkKRKE/fv349FHH7V66xKQWFhUiDGjx2D4iOFoKBIddWQtOJuC5Dnz0WPBXEKJi+emTH0G99/fj75m67ZtyMvNwR//+EdMnDgJQ5OSqJf//gcfoFJiJfzmlt+o8oFUlXPnziFp2HDMnDGdcAxiPQ/c/z/o2q0LAQwFcFLsl/jR0xXqhSj5EX+n/EGvO3rhw48+wf39+uI3t95Ce5KamoLFi5/FjBnTKeCLlsbb77xDVaf+f/ozYQ0Ki4pwLvU8vvnmG2pZidYAjaPAT3r3yCN/QMeO19K3zpk9Bzf0uAE33thDqpyjtweMGzcOArgo2gy6Nip+kdtvatsVNYfRB+NPTZ7AOCCr5c/7QI8HtXHdJLWLAMVsXK9J/U2xNXFubX+P2zeV5Hd8fmRuSMaRJStQZ/wYVBLYJSbJMy3mYnK0xarbsAo7wgmLzqeCrSnAurn9aRmi3MTsbGwdPAR5NRugy4zJlCCYSpYusrHYzcab2Tj6u1/eh7t10sa88Aqd4HX6U8P3FdiHW7LUOKAroZei1X8xHXtGj0V0u/ZoktRf3dTJPQaLdM9aPlfQ3OvWKuLQS4OrU2cyq6BgWJ9MdYdzQz/8x05h+9ixKH/vnWj08MN6JM5WXWc1r3SydK+f9ZKmGFjLdFFNK7jaTFUfp78v5lDMMxzkbOCW/DPu1fC4o5nQ1QASpRUGn6D9tqJxlujSlI9XI+39VYjIySDkuvgkAVj0hQHpEdGocM89aPpAP/gjRMatWiLWuk0CImCnHviyc7Ft0VIktrkGtX7TA5Hl4smJpew6AE98LKo2qkfgkIKcHETFx5EzKRIl+vx8CmoiIIhy+ddff02n13Hjx1PlQDj+kydPEmJeBHPRhnjr7bfRrVtXwgR88cUXhOyfMGEC/vKXv+Kmm25EC5FciGzVLwGHIth36dKFytEC9CcShsaNG1PLoH17eYMcbx6VpvyiLD8O06Y9I79T6dq7776LRo0bo1PHjrTVAiGfcjYFN3S/vjgiwu/HxEmTKAmpWb060tf+B9u+/jclCD+dPY28vFwK3i+99BL10MWP6JOLKoldQRDBmEuOIkEYP348Fi5cqDAbUomEDER1oVevXqQjGzcmY+PGjbjrzrv04KxCY5Jsn12yhN6vUaOGuhJTcDYVyXPmocfC+fBHhNPniXZJA9GW8ACnTp1GnTq1MXDAQHz51Vf46qsv8czUZ6jK0bRpUyrh6/6CuLXvXCqGDhuOF194AeXKl8eG9Rvw2srXcestN6Nfv746ESO1FtWNYtZogq9IANLS01GlcmVy7mI9KSmpePZZkSDMoGoAYY/8Plp3VGSkMkUPDh46hOXLn8OCBfPltAPtrx9Tp0zBAw89iFatWlF7ZvbsWWjWrBnpg/tHgBafe34F5s+fh6ioKPmavOJLsnHLftmP2ayI1qiggjxKHWAmt6A2zgQxnEhwG1Bpt7rNldtA9ukytI07/Q6d33x+ZG1IxuFnn0fdCU+h0rUSFxPQ73B7U1VT9G2LKhki5Drtqymu62dY1kH9pVuWNiBaJAhZ2Do4CXk166PLjCl0o2NQWbK1BNpfB0eCWmspfTgnuqX34cw5Y48Vc76sKlRBZMm9fZMUli72kJ5p/hXz70bnnGsqSS/JztLSsGfUGMR2uwEN/6x4Mlg1LcQq7XsoWZKemGdM7ClNPAwsS/+ZC9g+bBjiet+Gpo8/JreoGIpWHowDydKO0e5nAsqSphjUpnG3VZqla7KBvlMh8AOQqJgVXQpRkoTDcCauzc0itNBr8vpx/vO1OPXqSkT78kHAbK8X2RExKH/fb9Ggb1+aKWVnqJ1JAPImUkGvD778Ahx+9x9IOXkC1z81Egj3IDf9IiJiYxERFY2UDVux5dNP0WvmFM2jTtgDvx9fr12LVR9+iFmzZlFpXiQMAiX/2quvofsN3ek0LH7ESXT58uV0Mo+MjMCaNSZBEAmACLgiKEeKeVh48NZbbxKeoUePHli5ciUlHWKCoWfPnli3fh1GjRqtEyCZv8kccuy4sZg2bRqiBcWrUuqXX36ZQIgSEAf861//wqef/hPVqlVX1QuP/qd4pz179mLZsiWoWa0GLn4tE4Qez0zCPz7+CMdPnqC+vChdi7aFOEX3vvNOvP3WW64EYaJeU0GhSBDGYdHiRaaPBw/ee/ddmobo2rWrriC89tprVN7n44+cNpB6d+DgAcycOYsSBPnjgawgzEWPhQsglEGcvqdNm47p06eTln61di1NTQwc1J8+Q4w+3nbbbdRiaNWqJZ2+6ZNUEiwmQsRo6QsvvoDy5cUtfWKiJBdZmZmoVq2qOqX79XiRLhfwZIMeGWaNNb16YVOiQvHss0swY+YMRISLVpSyNSu6i/0/dOgInlv+HOYvmEutGC7PTxg3jkZI69WvT4Fp3rx5NC0iwZN8jhCtCQ+1Hi5evIhnhc6JBEFJX34jf685lsuCWwgb16XCwDZuDq/q0x02J9sLxsbNqcjtd/SUiEuWBhXA2Y3tnYP4HYWD0lwPPiBzfTKOLOUKQhs1QqjeXZVBAq1J6olqnXr92PLiS8g7ehh1H3wItTu0dVL9XIYsKVnJzsTWIUORV6Meus6YQhgECw3jlKVaEyVLyg9o7XPp5WX5cEuWKtez1lR6H85VVHVu1Fgq3l+r6WJaVZZeauegMhiJ3Qmkc1I/yqKXlLCfP499I0cjpuctaPT4I44Kgm6TWPtrKnNyXJQ0nSmQda3TNKpVcFJHi8DrDhYP/RcysXPIEIT37IFWA/6sK9JXTZYhiZLUTK3MkpUHswkt9Msr5VBIUe7jscLK32dBBCatIbvUwC57TFipvG0E+QU4/5/1OPPySkQU5CA/SlQO7kK9PvcA0ZL7XLu9YutWSiPW5PXh4Kdr0OSO30A0fdfPm4cOI4aRB0h+9TV06/8EKVfRxUxsfnklbpg8gRIE8ekHDx7Am2++SYFbjJs99thjdM2rcNjCMQucQPUaNRDuCaOytygF33nXneioTvFr1qzRFQQRlEW1YM/u3Rg/fgIRBD399NNYsGAhnSrPppzF7NmzqbwtRv6mTp2CPn3uQ8eOnRVIR6UCfj/GjxuHZ6ZNozHJyMgoIkESp9CRI0ahWo3qZIw/bvqRethpFy/S1IOocojef4eOHVGrVk289NLL+P3vf4+KCQlIX/sttlKCMBGeCHltqdhKcQKePGmyPun/40Px+x1INqLFIMBynHiK958wfgJVENLT0yl4idOv+AyBuhcJlfjZvn07gRzF3x0/fpz4HkTSJUYamzRtitdff53aJ9WqVdPhtCDlPDbMmoubFs0jJypkP23aDCrhC41au/ZrHDhwAAMH9qd99fokrmHBgkW4sccN6HqdYDAzZCSp585j6NBhePHFF2j6RP+INpaGsHkoSdIBV4N8+UTptBWDsAfOpaZi8eKlmDnrGTVKKZ41rSfZpRQJwmE8t/x5LFgwF9k5uZQkZGZmYMZ0kfzMQGKVRPqyTz/9lLgSRLumQYMGqFSpEumSGCkVxcF3332HQKVixNFUm1wtQrWLxW3cshW900FIxegko4a0XAReOnCVwsZlfOZhr9L6HRfCXDOLqvOiAlSS4grM0YYfcGTJ81aLoYzrViXwnF07sHv+QrSeMwdxdWorILLC/ofyO6WQJVSCkFujPrrNmAxEhSYVc1YT7f29dFnaB8dAPtzt5yk0BtEBnkQJ6ufd9wWEjD1XVy+9585j34hRiOnVC41+/5BMvEPpJWUVQPquvTi6bh0ivF6y4kod2qNmt04mSbH1shjplKkE6CTPTYIkYqCggB44GL5undFu2NBiREkycbPGdl0xuqw27iGmZduf6dIjdxcZCKQPbTLzUc/xVtkgJ6kExZ9x90DL+ox8eVl68RQUIfWLtTj83geoftstaPDg/TQrLDMvTjAsMh33msRnFHqx5833kY8CYvUrV6UiGt5+O/xZhdj00kvoPHwwzamKqza/n7MA3SeMp+rC6TOn6cR/yy23oGGjRljz+ee4uWdPbPpxM50yN/2wCekZ6XT6b9umLdZ+8zXSLlzAgAHyFCuAZ5988jH27t2Lp556igSblZ2NObNnUyth3bp1BO4bPGgQcnJzsWzZMgqiAhsgfjZv3kzjjyNHjdK8CyxLriB8tfYrrP9+Pbmixk0a4/HHHqd3PHvmDFU7xCk7JeUsJTkiofjnP/+JC+fPU8VDcDaIE+n//M//IO2Hrdi1/gd0H/wk0jLSkZmVSe0TcdK/oXt3ImJq0qQxbrv1NjIkEajeeustAi7ymkTCM0G0GBYtwr+/+QZrvviC3kNUCgYOHEQVFXHSFZMHYv3eIi9WrFhBydZ/vv0WO7bvwODBgwjcJ5574sknJerf70HB+XRs/OvL6DF2BO2NKNWL9oZoHwhFOXHiJGrVrIUBAwcQe6NIPsQzorUjAmfHjqI0L5VDrFeAFIcNkxWEhAQxPWI3602+wP/Gp3ZtB/bUjevQIJ45l5KKxYuWYOas6QgT+upTbTB6VpUGBVfEwcNUcVq4YD7eevsd7N+/j76yc+fO+O09gs/fg2PHj+PFv7yIiU9PxK5du7Bp0yYMGjSI9kZUZsS4owAxijaV0FX5FU4U389pv5ZrsXqu6kQeyO+UIEs9jCkzH+1e3L7J3l9xAszc8AMOP7scdSeMlS0GhVA3DXun/yK/Y7of8rv8fmQlb8SulSvReeFChMWJ1qQYW1Pn31KuKeC6RSDJzsa2wUOQU7M+VRBEi4Fe0eF39VI0PsEB+HMEB6cvlO9gyYyB3JezbhkKzYcG2BO3LN24Coc8fqY12Xop4ktR6jkcGD4SsffcQ3GlmI27AL1CkNnbD2DnG2+i7eAnEJWQgFP/+BfOZqaj8/ABZjKGX05tJCUCahKNWhElxEyqWmflYo/AplzTFh3HjDJkrUzcpmReTJcvUZZElGTgyy6uZtU/0WQlKjshekfboNX4DbcZmMlKRnJWYnmmJ6FYRCu2p3BSTSpNtcaYZPCXQqWPLfLj/N59qNy8CfwC5Wv8hJM5m+d1rXUzoIuWwuOCitE39+hPOLF9J5rdfbscTSny4btZc3DDxKdpHlk8LslzPNi6fTueW76MytGdOnXC3XffTSfPLZs30yidqBgIshsxvx4dFYX5CxYQgU9mRibuuee3uPMuAYiUNpWbm0cJkGgRiAAmgvSCBQsI3S5GBCVpluQS//TT1fjiizWYOXOmDGQK0TKWMAiixRBtyo1CXkQn68Err75CPW0BMCzyFmHmjFl4auxTiIqIoLVNnDiRSuoC7yA+u7LonwsMhleA/6YS8l9MZtSoXh2169Sh032dunWJCGnDhg1UQhdTCQIUKJXUD9FioIqIwCAo2mXu30nmSD8+WPUB4SIGDBhIeztz1gyMGDECMTGxWLRoEQE0RR997Nix9O8iADK8RfSVCbCq8CFi3b+793ckU1GVycnNw5/+9AT19EUFQ1QZTp44gTlz56JqVVGNMHp57tx5DB82DC8I/ony5U3rS1OCG720ec058Nq2Ik9YTltJOZuKJUsYgxAusRT2mJ6ysUOHDtJ6NX5A18SkCeQXFGLypEno17cvOnfpQoRYz0yZitlz59K7vffeexg/YQL27d1LlRfxrrI24bZxqwVi2+ql2Lhdng9g4077dfqBkmTJcirR7yhZBvI79B2ixbDhBxxavBz1nlZTDAR2DuabuK4pnvHBm5OHopwchEdFIu1fa3BixzZ0mPYMtbfk6ytcFAdHtb8h160DjvSXVHESIMUhScitXg9dZ06WGAR7AsrhC6+SLDnKBPXhDILSJBQuuuBQPtxUd2SyEkIvL0OW0gOF2l/lplTiLOxX4JoODBuJ+H59UP9+yUprdNe5btpvnx+pH67GieRNuHbqGHhi41CYloGM86mo3LQRxPWd/oJC+AXvQbhof0tLlCtTzl+XgILLkkJVVi72Dx2OnObN0H7cGJ3wB/M79OmWXuoELIhe2r5QHvotoiQewdO9LjeJikVGEugZcv5WJ46TGZ4jlvlCKUg2pL5oUI7+HC5hKUMxOQp3GKUD1KmxdfiTfyp/Q/4xn52sNYk/9QHnvvkW50+dRkSLJmjcqT18Wdn4auYs3DJlMiJiBWGQyiTgR25OLi6kXaDTsGg3yP6aBBzJE6sqRRPDnwCpnaXkIjY2VpLe0PNqoUreuXm5iBUgQwiQ3SkiWwoPVyhmRfwhnIgI1lHR0ZrzQbzVhg3rKVERADkVDtR8vewti0qF+OyIcMH97SfAJd0fIaZA+A4F+JGWloaKgsFQVFCIoEQi9OkuAFI6nfvT6jMyM4lzITw8DLVr16EkhA8jYnrjhx+S0bVrN5XC2Tm7lJNISgSwUpyqxS+K5IXfmb5XUYqKAC+SMTGWqRNwAqNKHRD/k3YhjUiFxF7mF+TTiGRcXDyV6EVlRtwTUSkxUSL7STHUnkFUIApw8OAhqkAIGUnf5SQs4f3VxmTrpT6gFydREWsTFaEd27fTqZ44INx6qb5LVKB27dqJrl2vo3e1Dnaa/EVUcipWqKDutJBjoaSDlGT4JE7CB1xMTyMWTQkh0BYo9+KK2rhTljzH7rZfkrclJ7ffscmytJWWiiTHZePq3fgzlMOTFYTFy1H3aVFBEFMMzMWgLg9S9ivXLSZWhPEC55J/wLZVH6Fqy2YoOHYCsadOI6xrB7R44o/kE8T7EpmPVTni/S2TvxS7bSUIXWZOQZhoMagPNhXfS9FL6fqMp3bqgNOHW/4ykCztAzBbNtuKjf0IsG6eMCvN/qpzhrYVtywd+8vBnGt/1m2+pYo9Ivk+k4KDw0civm8f1O8nWGsVnbHaX1Vw1AcUqjqcSsGPk6YhokktdBg6EmEJklxJ1JQ8Xj+2v/Y2ImtXQ4teN8PjlcmmLz+PSLX8ggqe22CmZmn8jpIlbVxmDvYNHYHs5k3RcfxYB7Hc1ZClR2MUS0OUVIxoxSIssUqx7IhIDdWsLAuVnKrGEyjHzEFVF8o4vwpF3mShh2V6pxyetaayEFpoVLYH/tw8pKekokLNamRIGSnn4c3JRXi5eFSsWUMnAaZioqxDBU4JrOPlyOxe96/pe9SNYsphm6xOYjUkMtayPs43bVnajW1XkCNDcAVwWoH2XNIpcGbNAV8PIFkezqC7QxPSmJKSagFZWau+DUznFKabz8HZrj45yGZIllbaZ1WDdKDR8/cq9VM5YiBiF660BFyTSy9VRGWt522SzjWALG2UeTFZ6rEsJqSRlSu3rVASzXuj9Mg+ATAgy8XOoYo1nOhYLTYV7GRAvsx1c/KtR9BU+LPm4aXWF7fxqybLEH4noCyFj9UVBE4Q2H6L6yUfKi58sx4HP1uDa4YPRGz1KsjZsxd7Zy9EnRGDUa2zuI5ZK480Bbq6V+2SNXrIiHuNDLD8jrZbqiBkYdvgJOTUFCBFWUHQtqLAokYHSuMvOSkraU2l00vd6ghK3uSWpZJxMFIxhw/niQ4z2XGpstTbwnrJCQRXvd2yFMRmooIwYiTi+vZFg76/kwlCCDI08ik+P/KOncDhd95B9slTaDLoT6jYqpXOwS/s3IfYmlURU7Eitr34MqKrVEBCzdo4uuZzNLrnbtTo1qX4gU7HQyNLf5ZMEHKaiQThKevwZ+1vGWVpxik1ClAW/yV3hSwhOE7VTGqhUct6ns51OudRDHWi5AqCdYiXTokrAsqhuEEU6vucaFTXSd/1jI3c53xYvITh/eYpDKOYumGjHK+sUpg1yd/nUwhXGVTAo4eZ7U7lasXWbRNgOJ8xAd99vGCuhqsly+BrMvJ27i+5kCCy5NxFN2WDyNIA3q0rXV3yDqRz+vN5fEkZtntNeoZTH621kvERSS5RJVoy0dHeQYMt3TpgAfXVM+ZUKds7gW2lRFlyxUolBbKrVXwcSeVD2kCdgKMyylKju53r/r8sS5n3lmwr+hm3jcOPrPXcYpAYBMl8bPkmrXMyWKKgCD+OnYhqd9yGeuJKX3EZ2M6d2LP8L7h2/mxECgZSlXzlnk2lllZig7pqe+21qvSJ1+T2l5TYqw4sVxDUFINsMZTd74TSy8uVZXBbkXvkaDVr4qzg9nRJelkKWQa28SCyFLimMykyQejXBw369ZEHQr4Hgx2fPgP64csvJPwb3U6bk4uDM+cgr0p1tB05mKquP32fTFww9W/qTv7o6Jq1qHfj9QiPjkXqe+/j1MULaDdQXAVtDjjm+4wsSabZudgnWgzNmqLD+Kech1X2hZya2nHcJotwVQ6L2Yqll64EQS2GC/H61MMjRFwaZqSuAXfZzlef5rlVoH7NnGDsErMNUjJNAOOI+UxieoTsNJ3PBGggWAGBc2xy8uYwzAdXk/hwqUwDbrgZYUrq5ryh3lRnlywn84Qu0oWQpUwzf4WyDLkm28B09VOP+QTWAbVHfNmXKbyYfKM0suTdYpnq35YWolnJlFjV8doq3jmBcZeul5bOFdtflw5YstQtMEdDzsnwxgHHPGsFFxJ9KFlatsKhzwYxBWq2BbSVX78sS/I78vDOlRPp1d0tBk9YCFkKRtLDx7Bp6jS0nTsL8XXkzX7nPvgIxzf9iA7TpwGRxI9OfCwH310Fb0IFNO91KwrSLiLt+Cl4L6QhLCoaiW1bIqpCOel/isnbtb+CB2HIEIgpBgIpWkRJBogYzF9eml6WuCZHFaoEHx7Qxq+UXpbSh3OyZdmK5XKUr2Dgp5FZwWmZIMT264OGfUWCoBLIADYuQMZHV32CuMYNUa1da6oknH31TaRkZOKaEf2pfZX6yRoc37kLHcePlq0oEYC9hSi6mIEdL/wFte+4A9W6djLN7wDr5vaBLycX+5KGI7tpE3QcPw5Sd1V6e0k2HlqWpSdK4vK50gsDujGlapkAMVmFxeCkT0887mgRi5RIoqI6vTo3cZKocA+ZT//cGNLAFGtNgZ+x1sTl3SBr4poC2babREVjH/hg6ESl6iqHAkSGJtlwr+nXKUsuQ5l3K70s9cH/l5YlxQw1uqcRMtaoEG26MkLd/uF089LJX2xbYdXhE53UXdtWFE6mNLZSkl5aVMJuW5F5aijylxL0kmWpFEMXLEuzbgbqSeO6LPKXYHpJ+6yYFA8vfk5hEEITJQmHn/rZ5zj2/ofo+OJzEixY5MeBqdPhr1kDzQYPkF0r4dS9fnjz8+GJiiQA8+ZlK1CjS2dUa9MGpz9ag5RTKeg4boDArMl2gXKixYjlxB+IBGHQ2DeXTQAAIABJREFUUOTWrIduM6fQmKP2O7oIabUuTUHKEMsFkGWJ5D4ufxnSxtUhqmQirAD+0m6hUkAsTnGtQeuX5cOdhEMGcRbYxoXhFZ6RLQZKEPoJkKKq8hbTSzHh5sfepc8j5cgx1O5xHQpy8pCyayc6DOqP8qKKBODMq68jJy4ejR7oJ3FBXh92v/kWLm78AU169kCVO++EJ1Yw45bsd6iCoBOEsfJ3XLLkSnlJMbpU8TAYUZJERXIfXG0elY0Y+iZFbZ/MeTrBXf638QHcnC/eIpDHPS47O5Cn+lQv12SX2pjKynQ13GviEg2XER1h3k7l9btxzYJP9hr8oSYIDGGJzDoZmBhwLpgrEVdMlioJUyBOFb8CEpZYzQyD0g4hS91D1/WU/3uyNHtn9bn0zLFbBy5flqpmUUwvS5al+s0ABF66v6CALMXtSerc1dbLYrK0asqB1sQlYt2Hsd5NWYpl48oTlJrcx4Yfl8XvaMCElKYPyN7wAw7SFAO3GKSl6GOLvSafHz998BF+WrMGnVcsJbDs+XVbcPJvr6LKb3ujdq/e0h+HeXD8i//gVHIyOo4cgoj4OOSlnkNsYiJx+af8ay2Obt6KLpNGKRC7LiEU8zv0dlRBEFMM9dFt1hSakiir36HUN6DfuXxZBvI7XL0LJkvdvOXWlwKeSj2zK7S6Vm6CsxV7yqqXumocxJ5sHy6SncKzKTTmGNevLxr0E/Twcq8csmSQmcg/8gtQeDEDBbm5pAexVSohTN3fgsJCbJ86DdXv+S2qicuVKPn3wJeTg6KMTJx8+03kJFRGmyce1S0GDblXLQdbL5GTh71JQ5HdVIIUBdaFOSaYt8I0zALF6DLGQ6ZaJhGoMqgcYzT9EB4DVGJS+1n8Gek/pOOSSRcDd1RJlLNmtf+6P+YCxckznVID+zY9+j0XDavcuhLWpJ5xrUkCizhHsPo/9ro11Mi9JuvdAq2pDLLU11OrlowNXvv1yTLU/v7Csiy2v07A1X9lGdrGOf7rXrBlB+x8Qtk4JQEMBRHC5mqZAuwZx+XwJPoWSzLiS7bxkvWSpiUEf4FrisEGhTr8jmLwzN21D9vnzUPD/k+iwOdBXmoacjd+j4R2LVBUsSqqdmiPCjWqI2PrDux48110mzkVYTGRdF7KOXsBWceO42zyRtS97SZUbNYSfjE1odtfQdadnYmtg4ciV2AQxJijGOO2AisHSQY7uv2l3TazT5iX78PtM5U5ONqjG4HXFNxf8iHP5AhWck+BmWEnCrPj0EunDw9o49bknI7rIWRJIEXBg6AqCPKkLRcRVJa60C+ekne1iN/wZWbjxwlPo9WY0YipXYs4cLJTUhBfozoddLN+3Iwdqz6x2kguOXFyokxDAOj3DRmmWgzFKwil29/Sx0M5xWAbpYzl0laVw6XSnHrG7uGX9RnH/I/VK1a5gHP0RnkLPQXBCYNSmKuzJlPm4nfT89G8SHsyw16ThW3QinS1ZKnASiaTNr3iEmWpnbBqDFA1+2rs75WTpYNE5Err5X9laUaPS7BxefphBXLtr5gfz8zG4S++RnR2BrxifCssHHHxsShfvzHi69dGeHy86ee67eln0EsGTBcbcyTGOucJVh+WxLqKvDj89ls4fegQ6t1yO+pd3w1HP/wIZ/buRaO7e6PaNW0pap75/Euc3bMP1wwbrO9UOfbNBuTuP4Dsk0fR4Hd3okqHjoBiYw0lS6ogDEpCbi2BQbASBHO41v5SYxKs6SXjw024vvI+3KkDpB5W9UUnMTx9FcCHC//qu5iFzBMnkXvuHKLCwxFZqxbi6tZEeIy8YKykdTvjyuX7nUKFQeAKQjFmw1KsiXVNvNumseNR9/4HcLYwH9fcfCO+fmY62j/2KOISq+LIW28huklDNLr7LknPHGB/tamI/aUKAicI4ySTok2yxHVFxjGU0V+6ZenxCz5Wk35qYhcqc11JoiSpPYGJknQnI8QzfLhQJ3ObGMImUZFJjUX+ohotwYhWVHgsdj209oVlWrdVKStG/MFIchd51JUmpPm/KkvH/iqVDKqXPxO5T0myVBUoLlFSNUr+P5neWmQkl6OXjsCsB05Kays/kyzFwcfnR86hI9g/bRZqP/4oEq5tB19aOo59/E+knT6NFo8+jErtxOiX4v5wnEQM2j8Q6ZQhlLI8qDqnMflaSTZuiJKSITEI4rImwYNQClkSO5ofHmZrFXfciT8TvB3ijbx+HHzuBUS1boF6t/aE3y/AaMq7+LzISP4ROz/8GNfPm6F4+lWbRI3tcmtVuZvQREnF9DK43wklS4sCQxM8yQyOR3GLE+LZ/vLS9VJV9gQA9Ow5bFj0HOrf2hOJrVvh4pZd2PPRx2g7chCqtm6p7Emd3i17sm3MkA25JifYDsvow4koiVoMfdCgbx/N2VGSLAOuqciL81t2AjExqNiyMfHE5J08jfQzZ0l9EmpURWzNakBklOHwCWHj4nLBfUnDkNNUTDHIFkOZ/I4qx5RkK6wDxKTIlQJuD+hc2iZRMa08JwbaqWUK8KWri1JmrHBWn8+Nq5AB2Zp5t8rF3HGUp3rV2lBCpM9Xo4mByUgMYt0x58CGKbOJIOt2voeuqAQj/rCytZ9NlqoFo6q5Vq73X1nqsdag+6scIXcZDRZJlwhZ5zQXwyXopUY+OGzF1kuZUJTNVqTeq66e6UM6YoWzDah7lXbHt5Q2bsYtA9sKt+uKUs9j+5gJaDhoABK7dJTtv7wcHP3flTh36Bjaz56E8Pg4mi0P5ndC2bgggOIfBnqqOUWGN1l/b++vWjdRLXOCMBaJ17ZVoMFLlyV9YX4htk6ZjqYDn0AefKhcux4OfvMdmvS8gdoDmZu3Ycc7q3D93GkyQQjld8TGijHHQUOQK6iWZwqq5RBESSH8TihZhtRL0yG6Snrphz8/H9ufmYv4Ni3Q5MEH4A/3wFMErF+8DB3+/BiiKlV0TIebEXTl6QP5cD5oKC2w2CgctsIXDJgziPGX4gI4G4PgqCCoTJ+BpRx7gsqSfQvng/LkIA8QXA2n1rtqNWk/YIp1uuHi8dPtwyJBkBiEcTQlEZh0ykJ1uGxc5YDF4nggG/f4/D6/RJDyFykgIs9k6g6/ErXdY9QnJScxi3x7a75f/7cTdcsvphuXnEyoEo5Due3SlXXy0BStSoqaN9u66lllEBZpkwUQ4xK7aU4pyaodpX9YoyQ8MuUup9ljZ/+HZMmXq0iApU1wozgESJ/NtdlallyUtQGAP6cs7au8ba4NK5s0o78KyHOV9TKYLCWaWJ0RmQdBkh4rcRqHpzyHOpwFWzdnx6XTS7bHoDYeVJamTlmSLGXnwYOilFTsGDMe9QcPRGLXTgq86UPOrv3YM38REu//LRrefTcB96TfshycDQ5UF9U49FKIkU7u4st80p5VosHmaxItzT6uDn5Klopq2a4g0NawjYdYk917ddsKCn3Ys+wvyIuNQoX2rdGoUydse+VNhMWEo1K9Ojh/4Ciqtm2NWuLyHvo+uVIdFix/SbIWCcJglSAooqTS+0sDJueDl9S+QD6cT+cuH64nUuw+qcLYBVm3riiUKEvpf70XM7F9xARUf6wfat3cU1a3Rf4n9pgmR1Ui5Vg3Tw4F8OFU5VHtVh1LOPnmmRp1olQVch2r+HnBUKsrCAxSVOGfxzzLIkudDNhJjdp7nopSSlua/RVUy4IHQYw5dhIVBKG8VzEeFiNKCkaSo0+ouvwkBa2qrIp61zBgGcY6ZnO1JhT0JSxqk5mXwJ5icDzDfSUDEjHtD6tCwcQQKouUqFPpT5j2VbKVafr7AOuWCqWfCbom7vsz8Yf6PYtI59chS5ubQRmJkpMZI7KIdKz9ldMiLD8OcKWVpZUpl7i/ZZSltaafVy8vQ5Y6GeDEy8UWF1Ivr6AsQ+zvZcsSHhSmpGDv+CmoNeAJVO7aWUGsfPCk52DvuIlIr1kBnSdOQVhkpIN0yraVoHrp8+Dgp5+j6HwaPP5C+H3i1jymPTcJgbdcObS8524CCpLvtcuqgihpXTIOL12BuuNH6xYDl/id5D4l6KVVGaX2qVeVWcVhX3H0k/WIgEetCHVniGtNEqRs/A5VhnjMsVY9dJkh5CWo1tlf2sQ9of1OiTb+s+ml7cNV9SuvADvGjkNhXBzajhmFiCpVVIfD8jsmhTI+XPMxWL5JAUoLT52B98JFojgW2YJHXL5BToyn8gB/eDhimjWAJyJaTx9JwLxclyRKGoW4fvcVI0qSAPIg/rIssmRuhWKEUqFij8Ag5GKvNeaopxhsErdQPtwdDwPJUrOvivjuYFKUEpKHMFkBcMzoqr/RzzgCMNd27IZAABIkhQa1CiCGPay05C+artjxKWbdOoC41yTX5iRKskhULKBSMTISPWkh9Y0lpfuffB4IRlbxS8nSwf4XYN2ajvr/HVnKUVh2HldQLy9HlmWwFYlp+Jn0MoStMLai1LIUM+Spqdg1ZiLqJPVHlc6dVP3RD+Tl4+CEyUiPDEeHmdMlBz0fpGm+XN+DqFuS3IbUZWC/H6nJW+BLTwf8XnhEu0Eszpp0EoHZFxOPGjd0pZlzzVHAfsfvQcb6jTi67AXUGTeaWgyiTCsLhTZQsXQ2zpMbvAblYTS1erFTOw+Hc93YSMFxMJE8CAKkqKiWBV8/+x03kc7PpJc2OZeyLuMLS0NKxEh/dXIWW1d49Ci2zloIf7lyaD7gcVRo1hR+de+MuGA9TMR30We3Yo/bh/MUmKh0nvzqa5z/cau6M4bKEcZhU9IQhrywSLTt/whiEiow5MIQj8GD4ERJFvVzID9fBhsvqyxZr6jFoCoIhihJ1aKuCFGS0+8QSJHtwiar4HTKTTjk2ifupMh+qGJmsPszVsxVyYbLhBjbwMqvP0epBBNouMOyTaMYlPwl1JrUOsq0blZTQwbF2amEX6rqhCpBmCTDpBO2nALJkpS/TGviLptrTTpptrLxX0CWWheC7a9FrPWrlaVFlKQrKj+nLK0+pupUWIci12nLYU8M2lIBUAEWrpZe0qU11GIYh7pJg1Gli2CHU7C23BzsfWoCciokoP3UKUBkBPwFBdj53irUv6UHEmrVds68U5vR8ngsbzqlc/BWNWkdOdXBhruDVryXvlsSJYkE4djSF1GbKgjiumfb5iy/YzpD2s8RCx7/uU3uw6kQg6itMrsSgqN1GdLGiShJtRgEk6LCIJCHsfdXX44nZcJJTqD9NbJUVVUd0AP7ptL5cIXbKI0PDyZLcaHawcM49ubbSDv1E1qPG41yjRrK0rnPj5QftiCiSmUkNm7AXRkrN3H7cD/8Ph88golKVWRIU3QyJhehK8p0xwJvi6b1Ck6UxCPvdsuVs1yT7UpNuNI+XLX2JVESYxDG0lXlcgotgK2UaU1B4qG87lkfibXwtBXwGJiqv+ib11R6b0ZsZA9bbowi4tClbJWd881aKoAaqgDeTaufYp/mWdjqs7WGFFuTTDTlaKSSjsIKGBCJjJzGiBQtBa9bG1oJa6ITh+sZ3UdU61CtjUCypAsw2H1eVVk6T0XaMV0BWUoZXgFZMvqfrdkG86mIzICe/9uy5HYhI8WD2Qo7MsueSquXblu5krJUN2YGs3Hx50WpqdgxeizqJQ1G5S6ixSDty3vuPPaMHQ/PdV3R5sknCahXlJWDda/+DZ0e7oc4ca24duTWidG2cb8f2cdOwptfSLcsGt9jHRLF30RGoEL9OnLUUHpqEyTEjabrk3Fk6QrUUS0GakHo+TJjL8VsxSVLaf48Rsh7aYM4Q9h4KFmK7Weq5eoNVIIgb3OVSUAZ/I6dnVy2D7+CemmfjnxAUdoF7J46FRnlK+D6aVOJjdJf5MWul15BlS5dUaPDNcH9pZalH4WZGfDlFjoTBId6+OHzhCG2ciUgTMybcvgz0xuGKEnexaD1UiPrDb7OeROp9IWkclSpvvLx0Jed42JS1P1bkzizXqq1BIuH9O7u2OPWy7IRJRmkZSAypVAkKnpsgo2M+QRkRNcZCtPeckLEvaErQvyhA7bqOPJmqjVxzHQQPIUg2TBlSZN96oTVZD9BSKcuQ5aONSmQURDiD74dUh4eDbitROKPAGRZjv29TFk699cu8f5XltrJaFsxnCQl28rVlKWqyAUjQ1Mthu2jx6J+0hBU7tJRlv+9PmRu2oK9zy1Hy5lTEF+3ETxFXvgzsuH3F8EjnLUK4qH0Upz+181dgMwjxyhIelX5mDkGmc2gsGIibp8xSV3Nboh0CBfgFxWEZBxbugK1x4+RFQSuLnDpW9kKM9oFWpMs4ViVb9VTlnsnA7gFQbRaRjZ4Uvq+gH5HECUpqmWqIESaq+R1ucAicQvud9zkPmXwOyXYuDrnOQnxLN8UyMblNJC4i0ACn0WiSGsv8uHsBx9h7zffovuiOXLvCovoynZPZJgZLw21Jq8H+/7+Jk5+8RVMQ4azA+knfR4vcsLCceOieSiXmMjITFMJd1At90VDwaQYlCjJkiW3TzScRL2fLmEY2+E/Mglo6X0438WQ07QJjTmSDHXioo+c8qWDEh5aExMuH6MrH3yXxq+RKElXRnQSwX1kiX7QBq0yJbsnZSttaQiAQpFsSAyGTaKiyrmBiD/Yqag18XXLjlFvNp7LXDdlflZSJd85MMnG/wuyvJpESU4irFD7q6etpTNRtX69v79WveTgxzrnIFUpGxmaHZgC2ZyQZVHKOWwfNQYNkgYjUYAUxWTDhYvYuWAJIqpXQ5vh4gKbCBTl5uLwyyuRFhGFLgP/KCljlU4HtXEqUXj5iCbPxnSxgTMIkIMIV4FHn+LC1Bg1kLk+GUepgiASBEFyVEobt2Xp9RJrYv6xY6h/3700s69L16Ug0gkpS6ogCCbFJDnmWBJREmM5fmm9NI0Ya0/4BlL7j/w4/uEa+CrGo/7NN0j5F/lx9Lm/Is3vRbuhA+mTznyyGod+3Ibrnh6N8LhYdSovTuTHshS+2puTA19+vvoyqzTOX6/wLpEVKlDS4Tqako64pxhKJEoStu8Dcn86iyMbNiAnMxOVK1RA+VbNUblFUzPSqwo/9nivXFbp/Y77siZJlMRtBv6s4mRRuhFdQuwJQpSkm3q6JKcHqKwPNL0cGXbssS5n2d8EdA3GYMSjbvrwM1b/jBtpnA5r2fEzBmnq+D7HS6uSkQ2G1Fpg1i0TLHcpM8i6jdyt/Qy0bqsZ53DIygH9V5ZGfg7bLassKSMyxzddmv6l9NLqfXPp1NSD5SnRGtsrbiu/pF5eIVn6QaX/01/+G6ffehPlu1+PsHr1UHQhHZmHj6JqsyZocG9vhMXFSB0oKsTB519AuW7dUKNrZ3ne1twmzBSj0ltdKnWO4ZrzkgFUK1cpy7uBbJwwCMk4tmwFao9TFQRFNmMd9pTPDuJ3VJUgZ+du7Ji3GG3mzUJcrRpqZl8ulkHe0v+XUS9piiFb3sXguO5ZOaJAcmJwivY7rGWBZalmTK+OXlodEBP/lCypiuPDvoXP40LKWbT806MIj45C2o69+GndOnRIGoQoIUu/H2nffIMTu/ai7ZBBFMxLlKXlvu3AyyPGCiJnXRViTvm0X0p2DqIk1WKQOxhEln4/cvccxI5X30CTPzyEuIqVcPSjT5BWlI1uI4Za6aupXMvPsvS7WKyzv09mgFQbzMrF3qEKgzBhnNWWc9oK735p/Y7sPhWPh5IoSfXp9CVIGoTjnB3lcSEnCZB5hr7EMZPJyb7py6kmmnpjLn+pSg/HV0V8JNHo1uezTLXIGcFsSnVqC+zOknNNOrcMtCa5Xi7FaxS15aBo2/StXta61eeWXpb8C66Tqcpp/5+XpaVzxeR9BWVp+ocmfTd9wl+RXure5WWuSYPkzEimOp/okS5K7oPauFMvZa4ezFbkSUX2XP0oyi9E1uGjiPb6BEIAvnAPosuVQ0RiFXhiozUaXfyKLysTW6bPQNvRoxFVvZqyV5UkcIBR0eVK+R3NpCgwCMtWqCmGaySWgW3c1ku2xWJ+Rwzb+5G9MRl7Vv4NHRYvohMuE65xcNKAUm4jhJSl5XfEGhxESZOpJx/Q7wRYt72/BuskI9CVkqX081IwQf1lUFn6kbHnAC7s2ouc9DQUeYtQoU5N1L3peoTFl4NHcFEX+XD0r39FdKtWqNHzRo7xpiVTBlnKtjX7dhXqQ6xbjjk6L2uSscDUYx2y9Hpw9v2PcHb7DlwzdRz8ERHISzmHCyk/oVabtlJOYtRVrIEuVxLWYtZUelkCNkix0/hxhguOMzH7MsOANs7AfZkQmFwusI17/IIf1SJK0hcYqZO+JsmxZgNNj9QkdbrMQRHWIqvgJajf12h/zu5l6mJwCFrxQpCo6As8ApD7yIaRhfbVFqSEqY+b1misIa2xYK2ctl0iiYoBqRgqWHZEhoihNLK0rEMJXL2jhoAxCLRkWTr2l0uCJJL/n8jSwJZ/XlkqD2XGsS2iJGsmmg+cDnvi7J5txUDW9T0apScVu4J6acmSXCfbOPeZDazMVHuUI8s7eBibly3BdQvmwhMdp0GEFluKcurBCLyMjbNPYTeiINL6wOmQpQ8uDEJb+T0lkPuQHxQvKTbQKwCSPpxf9RGObdmG9rOeQVi4uEzJ8jvF/CVf72yP5Af2O6QjnCDwXQzimmkNgnb7S9t+XfvrsnGe/zV+R/rDK6KXZhwupF6qeoq0PxE4xQ9d6MXH6DAgMxebJ09B8+FDUK5hA01cI8UagsCLCZ60raiTcRCyO32K58Mt8SDwdc8Kg8DVg2Cy9AO5h45jy/SFSOzcBi36Pw5ERRmd9vux480PEVa9Elrd1lPFFZFx+Kg1QQyS8kSogIbO/eVWubDxgERJMkMvnQ936WVIWxEf6+RB4FIYo9NNucxUzA3ftWYTo0yFFU0ZgtJAvR434ZCDHMRN/OHi1NbcBUxKpNapdItJkKR8uZrA2TIbpDXy5QB+lnHdWolLJvfRfVrHeIwyBIU2Z2KWqydLJ7mP6R1zH12511+zLBlEqvbXnqT5efXySsoyBFGSm0TFDexVpx9dLStGPBaCSMcmUVGEKHwauvKy5PK601aEU07ftBX73/w7Gj3+KLzx5VGtcSMFBgutl9KRMgNlKUinXLIU3521fiOOEA+CbDHIU5383GBESfD6kbJxE46vW4/qzZog5+hxFO3ZjaiundHk8UcUeY7yl0ybG8zGQ+6vqsiIKQZxm2NNwYMgqJZFgqBCKFdWHfwPKraoFpeZMLJ8uMvGZeIUnOxOysIilgu4bs6zS/LhZSCdEhd/nT6HzZOnouMzU3AhKwvVWzTWLRwZC027iYOcpArm4Gqv27W/9AGBZSn+2D3FoCvZKsbxuCmFdLYnnw/Zu/bj8Bt/R4HPi+ZJA1Cufj2qOgguhzM/bkV8nZooV6u6qigAGRu2IHnVB7hp2iRExscYPESx/bViV0CiJOugrhIddX+C3D8Viw3LsE12F1qWlCDoOoNKYpy9EVV6YO/BWY5zINectrkcKdessyi79aDUUgpEWqayeWvkxCR+6jOcfTwDQNQdXWdP2gUItGFI+jvt6oa1bjtR14w7CoChh5rsUUrO4GwMRRlkqYGQyvlJ9K9KXOx75rj4YaGtpeiUAQSSpSo56/aSa6xHbxJX4FXpTv+5Pf6ldODKyNLaN22w6gVZMexSs/0My8kFBlOoNU1rrL/BtW5TXne2xELqpbUmfYBxrMkU6wLak6k3h7YVKwHVbKT22HAZbEXV/q3vs23S6lkGAM9qoyxh3Zcqy8LUNBz4YBXC69dF4543ISwmBgJGqLIEs9BAOlBaWcqyhuVf5OnTTZSk+7ScJtgcAcI9+vxI+24D9n/2Ga4ZPJDwBnn7DmP3rNmoPWwgqneRGAqWdyD7dTRirSqprXMOvxOMKMlt47ataP9gcA+O8c0rKMsS/U4QWZa0v7JS44E3Kxs7XlgBf+VqaHjbb1ChXm3rHG/FjdL6cFqwy6dasrRthYiSRo5EbN8+aCgwCBzIlC7pEz3HuKIiNVIL+NPTsXf2Anjr1UXbIQNoWuPMth0o8ntRu8M18ESEAz4Pco+dwpGVb+Dk0YO4efmziCwnWislxENhpwGIktw+3MTd4DZeah8ueRDYiLjEIbdff4gyNB2UWbBKD02fV7lktS4NzlG9EFPGMid9A9hSJqRxfsXXJJ7QpA3iwwSbmuhXqaxREJ7Qyi0sg106ZBtWPlZlpGbSxUaky9aKak6qz8vKysKRI0fQunVrhFmXa2h0lcoo5SLYYag+navnZJTMj8OHD6NOndqIioqhjxL/3ahRIwdcw5aleI+M9HSkpKSgSdOm1piRcbDi8y+cP4+Y6GjEl4unJRUWFuHChQuoVrWaIdiwAk5+fj7y8vJQoUIFcophYWFIPZeKxMREhIuZYasMW1hUCK9XIMqtH953ANFR0abfye0q9V36FKjlxIZh6QAZyyXqpcWi6NC5AHqp/boGfpkTCDszQ3zCmsPZK797cVvROhDUVqzEmx07p7g266YRjSMBNqd915q0kymlLBWTJitbMRu/UrLkCqNOol0nQC2nS5Gl2+/onKC4jTNIcekLmihJ34inEk9jv9KZ+PPysW38dFTudSvq3tGTKg7ZO/dg55JluHbRHERXrCB/heb5L6LQ60Vc1SrKBVCdFhCmwsQ8TNVrpo4dhyB6GwIpDkYuESVNpTFHDap2yVIGltLZikK7mYPZZflwpZJWYhfUVtx6yUsOsG7NL0HtBw/dy6CntEqyFZeNW+pmOrW6pW0CBa+b/KTCIMT2UwmCJW+jIkpPvT6cWPMVYuvWReXWzQGfF6deW4kz5y+iw+iRFFzOfLwaR3fuwHVPj6Er0MXFXttffwsN2zbD+hdfwM3LlyOyXILLXwaOh/ZlTeIuBj0m6kiG7Th+efGQQIrmRG1dzKMFrXaWUZS6XKFO/bod5CKGsIhd7L6RcWwqmJOiWKcvpls6IY6qAAAgAElEQVS2FqVqB6oqZDTEk1+Is9t2onrndkTVqhNCa03cFzQZPpfClE3ZwFQVxIVIqBSZnQ2fFQSPHz+Ov/7v/2LaM1NpdEVKxoPomGjExcXi66+/wfZt2xwHSDt+it9p2LAB7rnnHjVyJZjR/Jg0aSJGDB+OqtWrkZ1PePppzJ4zW6FqLXS3JiXyYNv2bfjyyy8xatQopVjsJKUsvX4/pj3zDHr37o3rrruO/uzYsWN48cUXMXv2bJMVw49t27dDBHyf14d169bhz3/+M15++SUMGZyEyVMmY8qUKYiJjtE9VvFZr722EocOHUR8vEw+yJGq0vfZM2cwecoUVK1SRcUd0yNzTLUo4fD+SsEVJ/6QH68ujAqklw7Sqaunl3K5JuKHJp3iKqZZt2mdOm1Fnl5C6CXf2Mm2QibAOBSuNllBUZXgL1+WDEIzBE8O8pey2HjQNandt/dXZ/LG0emgocz/kmUZgihJrsTeX5nEFB05gQ3TZqHDrKmIrV2Tnjj13vs4vWUrOsycphH2IkHYtfIthFetgpZ33y7VWSw8vwAn1m2ii5rC46LVSTE4QRutIxRRUln29yrKUpesy+DDg9l4qP2lIO+wcZdeBvDhMl5ym6FstmJuc3QRJTlkqUr3Xh9+nDUXuRlZaHzvb4HCfOz+6EN0+PMAVGrTkjAGP739JnJ8YWjy+wdpgmP/ex8hrnYNVKldHd9Om4mey5Yislx5RQtus2cUX/elESUZ+y2zLIlqWRfImAHReU0sz4VI2IAyoGIkDC4SFT5Na+CKwQJI9KRzAoHdm0R38m1kJnM0jkkCWwRY4/DyFUjbvRc1+t6LOr+729yNLTJ0fYC3yEhcayr+jJGEUMhVq1bRKZ1/MjMzsX37dlx//fU6KIu/u/baaykIiwB89uxZHUbsih6HlgoVK6JevXr461//ipycHFL8PXv2oGHDhogiYIsH+/ftQ/MWzWXbxe/HI488ggYN6msgp5CdWMeSJUtRq3YtqmbwT7NmzSgp+P777/HRRx/h9ttvR0KFBPS+oxdeeeUV7N6zBx07dSJK0vDwcHpWGPrSpUvRo0cP/PDDDyhXvjy6X38dqlathnnz5mHixIn0rHifihUqICwsHM+veA5FBYVIrFzZzoFIVb777ltMnz4dNWrUtHqC5C0VetfGg/C9CVyv4rlp2fmS2/gr1MtQa7LWLZXBbU9X2la4V+yWJecRV0OWKpxaRCv2/jptnE+abh34+fdXKGipiZLEK4oS8ZqvsP/999H9+SUIj46G3+vDgWdmwVuzGloMGSC32EfXCBI7ZFh0ODzRshroL/Di5Dvv4vj6reg8cyIiEyX/v3R/Bi9FqYktS+JBGCrHHB1ESQFkKb3pr9dW9N0oprCtMRIl2oo8XNixx5ZTMB/ukKXld3SbwbqcyY49YmMKFUgxrp+6zVETJXFhWHp22kbRDsnMQu7588jLykJ4RDjKVa+OyEoVZIwoKMTmGTNQ4447Uat7N2QdOYndr76O2jd3R1hGOo59+BESe92JiPp10PD6biH8pfo+FwaBLo6i9Tl1IJjfkb7IxPGSZOmhqxjs3oq0YVOJ0l/sOtlxRYsedWZqEhHvaP+pexqkQPn2Mn3TmC5Bqw6/eoa3gcs6pAw+H7wX0nH85VdR9EMy3aCWEx2Pyg/0Qa3ed8ATLW5w00gBNY+sDNG9Jo2bNcYpv1MKW5ToT58+rQPgmTNn8P5772HQ4MFUfhc/4p8tWrRAREQ4414cATPQf4igL5INn89HCcDsWbPRf0B/VBG3mQF0whdBWZYOPYgXo2LhghZUqbLfj507d+KLL75AUtIQx6k2zBOGAwcP4Pnnn6ekRaxvw4YNWLhwIZ5++mlKbqJFNQB+fPzxx5g8eTK+X/c9CvILIN7v5MmTaNeuHWrUqIHCwkJKNGrVqolTp07TZ4l1lS9XDsufe46qCjVr1jQzYkp1Pvn4Y6pe1KhVi7JCngnnBpHWAd4pVWCQ5UCnDsg3VgmQXUW9QnopSXIC6aX61gBrcuulc90GOOeaQWL4mPqnsaeSbYUT3pJl6YSMXFlZSkEFX/cVlaVubdglAxMcdVWRT/02kNX2Tezb2KeI657dRElhgf0O6a7XjxP/+ARH1nyBG5Yvph7y+eRtOPm/ryHx3jtQ585edCFQWJgHB1Z/gaM//IAbR49AdPnypPvpu/chbds2nNuxD+3GjUCECByMWQohS02UVKM+us2cTHdXcCtT+oXithJUL6+SLNnPh7JxvSarSBzQxhmAcQk2HkgveU3yfFoWGzfXPesWgx2fWJZ2pZP9ssZD0J1Q1BLyZWZjw4QJaDN6JMrXqYv8CxeRdewkfAK5mJqKPW++i+b9n0T5Fs0RV1UctoLYuIqxcsyRr3seB79Ld2X4UpU3d4wuyVYC6KVHUC1L3miV1aqTPWekcrZXld50pJaBi9GNPJCgy3NWJqwJSwI4ebMeV3HPUhL5jKw2UAk7MwfHVryMgh/WAb4CgUCA3x+BjMgY1Hjs96h1+82AuvnM8al6asIq74rWYG4+vAW5iEpIgDc3F74iHyITytH3bdmyBf/59luNeM3OyqbTfmfBMS9aGh4gMioSjz/2ODIyMpCbm6tURZ17ec0qiZKC9KBcuXJISEig+V8h3y1btqJ58+aIjY2lJGP7jm1od007+qzYWIFuDUN2djbmzJ1LiYj4ycvLR1raBQrQxCDm9RI24sEHH6Q1fvjhh3h64kT6/FmzZqFLly44c/YMHvm9RFyLn7FPjcWo0aMQGRmJc+fOYcWKFYiMisIfHn2UPnf6jBnoc999uOXmm6m10qBBA0o6Dh06hM2bNxNWQVREpFqYa69F8tKpcydUqVwFzZs1N6Q1IXRAOjxTwGfgpgmeSgdUAhdY54rrpSPBKKNeasyFzsxUgnbFbUV6fAe5j9VrlWVBdYJQAU/bWjFbsZJ7K6FkG5e/fmVkaU/gyDconsixjf8aZEn6pSoIhklRXtak1Er7V/b1IkHI3rUPmxctQ9uh/VFQVITMYyeRm/wjKnVqh5wKFVCpbTNUrlMHmVu3YfPKN9Fj7iyER0UiP+U8kl9+Bd3++Bi2Lf8r2j01HBGJCVYTw1RjHbIMQpQUXJYqXfrF9dJq0JSkl4rrRuul8iEyrqigbgdjUjDmMbZtRdo875dsKZuKY9n10k9jjvtHjET8/X3RoO99ckKFfVOAeChbjYHjYVFaOtaPn4rWf/wDTmSk4Zrbb5FrFS3s/YexYe5C9Fg8C9GJshIrc/Ag8VD8ol1BsIiSGLljgK6ltHGH3ykuS6og2D1QFY4t4hDjHUMRf/DL2WAZO+mQrQOuTjBAq3QkG5wcoMCHA/OWIkz0+f058Pi98BFmQdz+HY2cqHJI+J970fB3vzVUuKxYKrPSaH6/Dzkp53H4m3XI3f4jmjzwPzj06Wrknz2NThPHw5+QgFM/neKXp3+eOnUKb731FkaOHElldtZK8e9bt27B0aNHVa9M/poI6gJw2LJlS11xEO/SqmVLVKxYEas+/JBK/TnZOaQZsbFx8IvZWI+Hqgvi9xctWoSE8gnIyMzAn/v3x7y5c+l33T979+6l9kBS0lDs2bObEgRx2heBViQIQ5KSsParr1Cnbh106dyVvmfcuHEYPXo09u/fj1WrPkCPHjfSZ4i/a9v2GiQnJ9M///SnJzFt2jT06dMXjRo1xIkTJ5CWlkaARuoNWuNWjAQS1ZCEcuVQv2FDXU6VlYPS6QD3JLk379RLC6zKnBi8v0owmtyHBWWBoa6YXlqEQxpGw87NMLNwXiiTKBUe5CnQeNFQa5LHRdtWzLWz8sND29PVk6WT3OeybPxnkGVpiJKKyVIA5Yq8OP7+pzh7/CAa9Lwe1Tp0xOl/fY6f9u1Hw953ILF1C0qOUlZ/gdMH9uOaoUOI6GePAKLddhNiExKwZfYCtBmRhKOnz6BJ5w4mSTDIaHNXitAS4kEQVMuixXA5REm2p1B4GMtWpJpeKb10AuJ0GzkAKZFZVQCyu2Jr4hKjPB2bYoQFaHXY0+XppSBK2j+cE4TfEbiUchD+Ym3j6i0CrEkH+yIvznz1PVAuFtU6tYEnWmBQPNS6Stm+C4VpFxHXuC4q1a+vkgOZ7PD3aTfCaVOOuc2RiZKuqCwt/yxFqsYcmWjFSZQUiPiDiUvs7JeTOIv8RY/eOWpGZjJCvLAuhVhnR5U9yb+WvVvpPP0ovHARe6bOQtzp0/AgT2IRwkSBz4cwhCPfE4PC67vj2mEDAMGzzbU4+jA+ocryCwW2Ii+8GZnYMX0OEm68CQ1uuQG7VryAZk88huyoSHz11Vod8EW5/YsvvoTP50WvXr2oJy9+RJAU1QABPBT9p9SUVIhpgDp16lDgFb39JUuWUPJQrVo1JIg7yMXtdl4vCgoK6DPeffddwh/cd999eq9FAB45chRefeUVxMXHIzMzA/3796dTfmIlccmIMQ6RTOzevRtff/01hiYlYfee3Vi0aDGaNmkq+Oxw5PARrHjhBQrsAqQ4bNgw1KxZC2PGjMaECROwZs0a3HHHHfj000/RvkN7mqDIzMgkjMQrr76C6dOmExhStA0qVqpIglz87LOEmxAgxeysLGzfsYOqC0KuovUxcOBANG4sZpfdkHxHnUCRezBQlUtjbuKP0pD7lEEvuRKmHKUM1Eqfg+mltlpbL3kASDdJ+QigJ2ukPfEYahACr2IVOgYnBZnf5hNTgHVzP1I2bhVITrUGSrRx1cXWItD4oSBEOpz069KqPR9Iwg1s4z+LLIP4HT3FwJc1GaIktw6w3yGj9Im9EDcHKVUhZjzJiEf/6/Vj/4svIa5ZA9S+9VZkHf0JBz5ejfialRGdn4/0b9chtnMH+Bs3QrNbeqpDr8tf2hXaIERJjv1VgYpP0Pb+yrxD6ZEG69vtobLo5SX6cNWsZR9ubtjVztgi9wlh47Ze2pUqi5hKFubZzzPxkHPdgfZXr4llCUBQLR8cNRox99yDRvf3pUkB2SYNHg8D2bicjLDowS29N606tU30/ZbNsj+y4yGPOSYNR07zpug49inIErouPVgxswz7q5KrQGRZHrqsSW8k5z3WqYTJQ1RQlRmNdKba+algxVHYPGMu6mBfw06DCSYkfsGiL+bsjAlezS8S/iBn30EcW74CUWd/gs8jCF2l4RaExaDo2rZoNWgQIipVlEBHBpJphLR6U7FAGqHxo+DET9g4cy6umzMLYREebF38PDpOHS/ZrZQei9bBK6++ikqVKlLgvK5bNzRt1gwbN2zEN//+BhMmjEd0TAzy8wowd+4cCrbimf37D2DJ0iVY8uyz+HT1agriTz31FJX07Z+/v/F3moTo1+9+ve6Us2cpkL/++kpER8UgIyMd/QcMQNu2bREREeH4ffEf6enpqF69OoYNH4Y9u/fg/fffR1JSEj0nkhQxjRARFoHP1nyO5I3JmDjxaYwePYbW/sknn1BFQIAs27W7hsYhu3btimvbt8fUKVPQp28f/Pubf2P48OEU8IX4Fi5ahNiYWMTExFCSdPDgQbRu04Zk+sMPmzBm9Gg0adJEZ8WaJpYN0eq/ah2wuShY5/nM7QhWDGRlal6eFCirXppLl4LqpT1aa6+JHTAbF7NaqiqJg4FUG6Bat37WYtZUdsAVAYacmdOEDUQsvm496sv29F9ZKsepvaf0WwL/IzAIRLVsiJKkQXFCw85VF25VFciUmvWZWxxgRAAuKsLmqTPR7MnfoyAiBpXq1pYnQZFUpGdj28w5aD12GMKr16CWhkZJ2cFb64CoILiJksJVomnI4uzxs6vtw4vrpWWDQXy4jVfhNjEjJ/RBlWMPJ+tuWwliTzY40S1LQ/BUPK5QINdtiACyVFeWHxg5GtG9e6PxQw9IjgMdT0z1zm3jQeMhB38tJ9MR0XbrXhNXXSy9pM/PysGeQUkoaNsG144ZpUm+tJY7Yp2K4/Y7B4zjpqrr9jsyQbDsQp86OJsJRDikTybm1CXnp3X3SLeF+Al9hFehjedaTc/EgG4409P9Z/4+sSafD7kHj+DAnFmIycwgl13o8SOrcTN0mjwZYXHRsuRNlRq+4ZDR85bP8IvkAri4aTP2rf4MXcePQ87efdj9yWp0evopGln2+fw4dfoU5s6Zg4SKFTBrxixcTL9ILYZy5cuhRfOWeOyxPxCmQPysX7eeJgdmzJyBqMgoAgs+++yz9H+i4iDaBY2bNKG+vuRRkOv829/+RoH2/vvvp/K+eCfRmpg6dSpef/1v9Gx2bg7++pe/4IEHHqAEQ/yfUFDRhhDfL8CFYgzzzjvvpETkHx/+AxOenkDrmjlzJlUKIsIj4PV5iQtBcBuMHTuWwIuZmVkYPmwo5i2Yj0oVK2H58uW4++670axpM0qAli1bhqlTp2hchFj34sWLEBcXR+sWCZRIENq0aUNrEq0JkQg1btTYsNTpniPnNgbIap+KNICJkc8u0hqdZZdSL7k8L90/9ybdWAeTb4XUS3VyD6SXtG5L54wD41O821bkilgH7BpGMVsJSZQkk3or31J2yE0WexLIjPYyr4YCkAS0FUMoooIngyF+ZllqDMZl+h3ZjVFESeo2x8Rr25oLi5QjDypLvb/WDYW8piIfti54FrkeoHbPnqjXpQOdPAWfyLkftmDX3/6Oev3uReOeN1BD1LTOAuilWGiWmmKoJZgUucVgCjLysKxShDLo5ZWSpYzn6hDF06ghbNyOK4FsRRfDeKZOVVMC+XADCGC91N3ey7Zx8U7e1HPYP2oMon5zK5r84WH5nlzFcMQVFU8uQS9JBlbLonSy9MOfkYPdAwbB060LWiclSZBiKL9TUhx3HDW54sLpMl2sVXqiJOlsXdVYhWvgP1ctUU4DpPNi7AP3VjTgw3I81ixrSCIdYb0+H/KPHsXBGXOArCz427VCq5EjEB4vA7WzF+o+SOgQRDOqRz78FHm+ArTo1wcp/1mPM+uTEdGqFap1aIXX3/k7Tqem4o+PPY7Vn/0Lo0eOQmFBAbZu24aVK19D7169cfsddyAiMhKpKWcxb8ECTBg3HpWrVCZ1EhWEZcuXYcniJQoImIoxY5+icr2oBLBRiCQgJiYave+6EytfXYmIyAgcOHAArVq1xBN/fFJ+1oEDePW1V6ncP3/+PCQNGYrIyAjiS5g4aRJOnzqFt99+m6oChw8dwltvv40RI4aTI1q2dCkmTRYVBNkWEftRWFhAa1n27DLk5ubg3fffpSBftUpVAmINHzqUyJFefvUVrF27Fn949A+4447baecEeHPvvr2Ij4ujakZ2dg62b9+GLl270lrPnT+P2nVqo/t13REfH2eKgqTJAcp/fExml6enGuwSIWuyu//uUDVzECylXmq7t1WbvlYpOlfHAhF4ydhsAr3+tUDrdhOWFNfLoLaiHYkxPkcCYpf43bJkqIOFd9DdFKs66LZrlot+JevIF8jGZcCQYtMdED6RB9rfYm0ea3+5Pam/yOV37JxLicR+1CYVMx0uVW0ULYZv1+HI8hdQd9J4VGonrns269ZnO2eGZ7Aj9svr040gSfJDXMXrLfISyFnSpMjqgjc7F35xTXVEOCLiYy0cjqUD2jJVIpmTje2Dk5Bdoy66zpgET2SE2Tb6cOXHSrKVqyLL4Ou+MnpZkq1oM3f06kujl8ZB2JvulKX3/AXsHz0a0d1vRMMnHyO9pgOdPRpplf71xlikYmWOh24bDxAP6dqkC+nYMWQYom7/DVo88ZhmjZXLuRS/E1qWHsGDwMAy4xatHhFbvhKITPDUWcxAq+W3KJIjDgLyUYskR7UlmArC+Bz7xVhSjtqD7i/phMfrQ96hQzjw5Vdo/mA/RCZWIrS/6eMo7+1YNy9TTWb4gfN7DiKmSiXEV62MwqxsnN2+BxUbNUBUYjls+vFHtL6mLSIjIjFt+jN0Ij54+BB63dGL+u8ff/QxDh89jI7tO6BR40ZIz8hAr9vvwOatW5GTnYXDh48QYHD2zNkIF20BMbGwbSthFkSfn5Xo9ddfR2xMDPr06YONycl0IhdVgY4dOlIAzsnJxqzZs/DwQw+jdes2eOvtN8khPfTQQzTZcMstt6BTh46YPHUy7rrrblROrIz5C+ZBcCKIaYvDhw/hxRf+gvT0i9izdy/iYmJx9PgxbNm6Bc9MmYrc3Dxs37EdH6z6AImVKiE9PQMDBwzA2q+/xvHjx9D/z/2JD+H67tfj9tvvwKZNm5CXn0f6KMqlogKxa9cudKHpDnbmHrRp3Rr1GzTQUxPi9GYoG+xyLYdGu5/GEd5SYNVjNAZpygvOg4dT52yyLNO+vwp6ye03W+d0osLfF1ovVU9GhgtlZ1aRXKXbKhrrI8ilyNLCJwS0cc59yijLEtdkzRqbkKdMgVHqpqfKWbQh0rFHOkorS3HiVz7LC2R+9x2OPLcCdSeOQ8V27cwotHRi2sVIuVunKu2wVCuLc0iSn3UcVP1qThDoU1W/UlYn1HeonrZ4zqGX4hcoQRhqJQjhsjFFp3X1+7rUEcJW+JWssldJspT5sSGpuqI+3AQZ6/itxKcrEaFtReaW1mg9xx5auH1teOC4EsqeCLKfdhH7Ro1BZNduaNL/ScK5aakHsnFXPJQhz5AcXRFZEieOD/7U89g+dBRi7u6N5o8+LDWhJL3kv3frZTF5B9BLIkrSEE1dSLGLiFYJ04w8GuOR3y5P7XJDtIDkf+mgbRtcoGe03ejsmIvCnNdL+mOp4LIU7yxpyP82b2Gckfv7TN9KpSt6UoZ/W3yJVNS0tIvUxxejgjd0704Bnt2B4A4Q7YOqVatqw33v/fewa/cu4gno27cvgQUdP6okxSv98MNViIqOpvZAoB/ROvjiizV48ok/0fsfPXYUx44dxU033kQBv3z58qhTuzaBE0+cPIkWzVtg3brv8eCDD9Ga3nv/XfTt04+Ajs89/zyKiooQHR1FmAdBhrRgwXwiQOrTty8aNWyE02dO4+tvvqGqhAAbCpZIwYPwxht/w2233Ya9e/bCK6YtxP+IETFSXiUv6wUqVaqEu+68yzhdpc26+M0cCbpCqI/p3JrTnsOZTFr/5SAJ4UBpXEBJemnrXHHdVckJ200oveRKmY7dFgbG1NEclYmgtmLhCII9Uxpb4WxMT3eqLCq4LK2Le/T7/DKyZDXi9pPTqp0unk9Oof2OJDISbiNzQzKOLFmCOhOfQqV27c0pLMT+umXJ19CHlKXlC8vsL7OzsC1pKHIE1fKMicS/YFIXlbaobNtcAy2/RccDCxJucsDgPlwerq6+D79cWSqr1P6/bDYux+WtgUw5rs8nF5F4pGdh78hRCGvXDi2GDVETca7fCeF3WMKGF8RK6i45HkoOIP+JU9g6dgIS+t6Hxvf3MSOYGiYQ2u/wvSMBbSVQHCceBFdwdJZH1OuydnJm6Uis5TMyezPIZT3Lzhk0GQwDtVTqE4JIR3+mlWdw74ZMQZdhLGIIrhwplgb7/nPZf9N4V01YYt8CJktk6pvVbKs4rTM4j9cUmBxELdQIVN7mFaauoeEZ2gCy9KmA6+7i8KnBnFCkEctlOmUpRiaZ40Bth4WGkQITzwgyJSMLgdf8/9r7DnCpqnPtd06jN1EQVBABsVIUBLuJKddoqompN73HErEAdhAVFFtM4k28qff+yU1MTDQaE6MpJnZFpCkgXXrvnDIz/7PX+r5vfWvP3nv2nJk5HAw+z71R2GfOmnd/vbwrOCM5V/1+ZbXHZUcygFoCljaadj3TdDKgS9WcMVmbYIW7MnIZh2Uq8pcicinX85I/0+dO1BUKTKPkcl9iabFXpGKkK1wRbN9YctUT2DPzNbw54270+/Y30fuUUyypTWrbpOQyQlfSymUxLDM7tmPWJRej5YihOPmGiUB9cBcK5yykv0IApKkAyPWxzFGvm+2lzdniiXRKkkuur6Sw4XH20lVOfBteio4Xw7I0uQTyu/di3uVXIH9Yfwy//hq5QyPse+Kw1LbaDssTT4L2PRKIleAPg9b6a/Mwd9rt6P+VL6Lfu95JCbFryZjfVUG5tEyKun/IfptCeEfh6MoPPFRAsSZN+6uYLJKsIvzBjvwl7BQLWqrqR6W8RLEyZ1JyuRJVLXgDQU7Ff1CEGMIn2VDfSVWryH6T03NFycKOS0qyigJykNZhaYMClUXojFEFTnY9y5WQ3U+wA6YvS0u40VhaeXDkPjpi0448gfhDzkTPqwKvxpLfOZ/bfk2XCcn3NsemtVg2jDRIxc8Uvl+xpFbiVQW7HLl0AVoaGag2lhQUeyXFtIQ0NgqyYiWZBK188dAnS1BlsEx8v0V0xduwEnWwL5Wrhntfm4c3b52Ofhd/Hb3POE3mBYraHRNEOCyN0wsKmcGfG7IlqUu6DLU1dicQmS1b8OollwJHn4CR116JTF2NkGUFBxb9VZ0i6f/vDzZcYelahml0hXWcUrVUcknOLKUND+7OWHTtjdiRz+PkaVOBhjqpGCf6w2BGYG8j1sych12bN6G2Qy0OHXY0OgcbLTX2riBHHNgKf5jPYdPfnsbSHz6AgROuxiGjhrt7eFSQZgWyMlhGDykq6WNDzeV2L/q0llvdoe4clEO0yDNSo4saulHDSdr2CG+G6o963YYyz0TyJKxc6oxeVGDDNWsW4oaFimEpv+ttiqV+vyGipNZjqd9vqEdOeve2lMsQlvJVwwNTJcnlvsYylNHq4SwK9mUuo9U6HgDiiKb2zn0db0yZjH7f/BYOPftMjinULELY7vg6LmXaxha89fdnsGfBYvQ45zQccqIlTKJwjzJ+1xiwf1HENlGQn924CXMuuxwYfhJGXHkpMgHvCtuSEt6v8YnVtpclySUVNYvaywrIJWHJSYEkEjryj8KyuQVLb7kdW9avxag7bgO6dCYRVHaeQSWeHkMntHU7Xrv7e+g5ZiR6Hnk4ts6ajcXPz8Q7pt+C2tz46OQAACAASURBVC4BI65b90h1Jsp+LbxBMJrHml89iJWPPoJjp01D1wFHUHRKyV54SNFlgcpHC/Cuupwgl4YoyX6ObQ24DgY5eypXpHlGz5BRsEZDFPzZXBp2u6hi5Di64r1XOpOtb6gsnS++ER1OPrcEUwwyh6uqFcLZhVsMY8Dti7EkGGpnNuJM3mBmCixtVhaPtztT6D3qwSbVM4rCKXwmZrzwqypc/i8uA2Es3eCOT4jDTRze0zZvkFoMB7B0w19SJSHLb3GKwJIqci4gUHIZ2s8uR1dEZ2VdTVcNHYmLngfQQYp1RqQr1G5MI5eVtTuqHkZY2j9hzhSYdeYFN96Ivl/7Ovq/4xwKEMIcFUXsjplmA5pXr8OL196Eo7/9LRw88gRxAuVimV2/HnODMvfosRhx2bcsd0IF7E4xO+/b8Dgs3cxZ/JnYk9Cth2XYcB3kxPmnRHup5dJsIkSfSexlcIXzfd/Dptfm4djpU9HhkGArzZFMufjC+Z4At52zZmPB9+7HyNtvRV2v7mjZtg3z/vI0hn/4g0BdIE9keT25TImlmZ/JYs0P/xsr//U0xnzvftT06C7ESFFnirLzpflDcwkZzSiKI6SUNooYIkRa41ZaCHAqp4WJkngGxCqNz6IVJsnhkIjNjDBUcTRoZ3mpF+r62i4N4L+LI7QIUdZyY4/Xs7xgQLfwndtjI8hDPewI3fd0t/dx1Co/nYb4Q00nR2EpJblUWHLrUjFr7e9YpiT+YLIslrl9iyVX/VhXbBkwWldcOVxkqlJyyZZEZ1fcEuS5Euk56tXF5DN5Ne8IueTdPtEVNWJWuo6HsbQ2JRnLYEjRmujdby7GwmuvwUFf+DwGvPc/zFXxnN37dodSMN7OCh4KyBR5niYP7FmyDM9OuRWnTr8FnQ7t40h4ysSyee0azLv0ctSeey5O/NqXpRoRJhySIosXgKe34dJS4yA00YYXk0v+e2vn47Gk1pSsxJJUeNsdxcjQqDISQdKniZLCcukGdnk4XfJzl43n89j0q19hxcN/wlFTb0T3o440bagCG678YSApwTt76cqr0fH44TjpsouBzh1VZZl+D7XpXLcupT8MsAluEQ24eFavxJj77zdswXb1shx/mKzjimo5DYkKVbnMd1WTn/wWaLhPMgyXLNlcl8PqMLGLxA0kKGSg1GaOTLObzzHK4JgOOUONJ39R5ybdsb+SB5c4dOGeqtgLRUZisyPx3ea76eqF69FGnVvKi3Ru+spk1KqJJW0ZRBAOlYKltANiyH0KsEwiUQm9X1ukUli6koPgTVNk1q1wSawSWJreHf8Tfr8cz7JcpsdSfWTrdIUttxG7BEKaamKpdEXq23E6XowIq0DH2xBLTkHJbTWtXI35E69A5w98EMM+/gnnQ1JgGfCYBVc755pbTFa/6R//wvyHH8Ppd9yCmk4dQgRt0XYnDZZ7gxXpiZPQ/aKP4qiPXuiR85P4t44oyYl6mXJZTFd8e8k6K9UibcNTkaG1HksdtvCMki7U2XiW5kcCXcvlsPOll/HGXd/H4Zd9C4eeOlpmm6Tmy/MMZPaN7wnu91n4Jhb88CdozuZx1Bc+i97DjyOTxSuqHIdo35MSy73NWDhhApp7dMPxk29yq7HVxNK0GKRHFTo8D2xxj8kzGJICuDVPUURncrWzpHZP+FM8J6DaJlHmyR8MlICD3a1y0vLixBW7z1O9THcmNSzAbVH6I+f8/KMXfDc1MMRPWidMXUnJcgog4DS/gliqYpyHk2tlekN4+xOWYUKSqsulw7JQV3Q7ygWW7kgELLPdVVQuo34fDamL7JJoeTruJqsl2W8zHS8XSzftbr6inNvXXy4M2jjLBYHBU7n1WzD/25eiw1ln4OivfdUMkMXaHdn8yyOfzWPrrNfw5pN/Q/3BfVC7cyfqly5F0zGDceJXvywUyu5MIcH0Zihs8Km00RYD6Pftnfc65k+ZisO/8TX0OedMbrg6LgQyXJKMFdjwNHKpsHRxd8GZPCx5zCz01aJsocyh0bPF7WWSrsRjmc6GOx4h/UnuTFou88itXYf5196ILu/7AAZdGKyfa34F/e6k8CD3LgQXdS39zg8MYdyYqdcAtY4avxx/GFz1/Ma3r0DN6JNw9Fe/ZGXfGzj3vpn9j0i7kx5Lc92z/SBbfhOwVZbmrf25qpuXyUm5lNjDHIMZpw7MqGg/gP+/3PBnHtP9GJcscrWAs0jH28BBipVuntWSeJBLuHQmFnTrr9XgkSK2EZ5uF6YrjgdFXysX8LhzS0Oi6lhSBYXPreY1hIiojbE079QEQPRm6d/d+7VenXeWafCFXin35qqBZfhMOnHyz2TlUq+QsmVrW7kswLLg/VYJS5bbWB1P/34riaVwn7RCxz0saeYn2HOf961LUDv8BBx31Xi5dMnqvrI73PM3jj2HHa/Mxeyf/Axjp1yHup49sXfxMrx+w0048urL0HPUKDXIZr21saetwTK4CnjmLCy6/U4MvGYSeg0/PrTa7Mulb3dcdTXKXpaFJd1aKDpeit0J20vh3iluw8vCkiJgtjvF5JKxzOzZg3lXTkD9yJNw9Fe+IFG29j1aXnYuWo61S5dh6LvOMR+x/bmXsODB32H0jKmGQTPse2wlRelTCizzG7bgjSuvQNcPfwgDPvRBCia5Zc7BlRv6jfKHJWMZUC3z7r+av7XFOEWgxGVgJljQbl6i4DJINszXY+KPIoQlfAOXx1kQQezilaOZ3crG6a4DSj0cik8UgQZ9Q57T4pAmJblP+8GSExXONVgFbDmj7bC0pXIbi3JwFnMmF1PaqJyaAFYF9Igcl+3olrVYGaCfjJABaXtSulNIqKXlspJYxp/JBK+JcrmPsFSpcTGisyh98nV832GJPY2Yf+nl2N6rJ06ddgvy5jKeInLZ1IJ5k29Bx+NOwOBPXWiI2va8sQjzbr8DI26fhvpDDi5sVZnesEq8lN1RpY8CYrnAIG/+5z+x7Ac/wNApN6P7kCMLn9H2kuZao3QlrOO2Xx1zJsmyYsjuishlSTacW4rcro4keHI2WJ/b5exUkilLLm2q6JE3BTampRmLb5iC3V2648RJV5s7D+KwDH585UN/wNKnn8GJX/48unXthtk/+x90GTYEx3zyo/TWuaruKl3SWpXKs3umAMt8Bs1r1mP++Mtx6MXfQt/TT+MhDNeeFSzd+y1mL4timUiUZASJy5G6TkTfSFcC6K95UCgcdDiGLiZaISOnHYAQACUQf1BVQI9ASJZKQZRUJ5xtV/MDoQoGuSwmeCoIlmJIiZKIP7Qb0+MZ1cLSZim2HyTOtF1j6b/fkrCU8K4UuYwm97Gvnh01D0WVgSWfjfS8FLlkDDirsK3++HN7jGiK6GxfYunOFIOlR5ZVRMerhKXBtakZb15/I9bv3INTZ0xDpnMHGXFxw2NUT6Wq195FyzBr6m0YedtkdDqsj7kNdssTf8PiPzyGUXdOQ02H4IZWmmEK2R09P6NtU+z7zeew+Q+PY9lvf4NjbrsNnfv3teGr1vEysHSr6oW20FUgiU9Esw561NA0M0ROqbjdUQR6IYInG0wSDXsRG14yliah1lVBazdMRBhJ8ESxQjaL5ffej/UrV2DMHbeb232ts1WzEKSjAdFcbucu7Fi5Cnu37zBkdF369EH3I48w/BXGi4ZwKtkfBlWlp/+F2T94ACdMnYLuRw0imeDvpskgK4elECVJ1kIvyLw0FVVbO6oiOn6RJTwjmwY61lCfox0cRzY8oEU/4l62DKiVeSZuxMecyb8v3GJQcCaqtmjOiMJzuwzlbYslp+PlYMn3D3i724qgp+py6b/fAsWmKkbV5bKaWLIql4ilNarJdsDX8dZiWU1dCe7zzWLljx7Aymdfw8jpU9DpUEeTHmV3gq+8/rG/YuUfH8FJd05HpmMDMi05LLnzPmxr2oOR10wAzD1ohbfIsnPwV9Qpi4zBMqDUXfPjn+OtZ5/FiHtmoMFQu3MGy5lYmBU2xjaVYJ+llZtg54vZ8FT2Ut8xwhhwZNIav1JMLrnPw04kbMNlTkWTh+Wx5ZEnsOj3v8WoO6ah/uDeBf5QLXLyUIJKyM0FDlLxFHpnalc5amcqZqvBffa9XsLXksOKe+7DW4sWYNzdM1DbObgEL3RfSxWwpMuanEU30ZYMgVFf2QgnfV2asnD9DYr+OFVWLIrGmuif4/Kw1hZ6piAL9jSKe65u6MKu+xSeySXTMlEhrG+GctNVeGivmLJuXusUkN3rdZGmF83Q69eRPb9sa3mrhqUX/YbORIOlfrahtS49lhpf4V5U61DVw9I6CKnZFmCpZK5cuSwDS/1+eRgoTi7LwdJzzPx9k87N5opXqtoDlt6ZnM6RlfN0pepYZvPY/c9nMPu/HsCx105E9xOOoZxSJhLd7hede8NvH8VbTz+NUbffgkx9PbbMnIMl99+PrueehaM/fpFx4DW1tbA3lLj770z/NsLuhPWJxpit0cnmsXzqbVixcS1Ov3MGajo0kDFyk6SFFQWn45WSS75gKt6Gh1itTJFAZ+ZJ9rJyOi5l9Djfk1pXlC/IAU0LlmD2LVMxcPy3DWthrFzyNKajCiHI6H1lgdk//V90HnwkBp95Gl648x4ccd570PeIAXh2xl0YdfHX0a3foWrfkJf2AiwtVWd+TxPmXXoFMscOwQmXXybt2qgzFfqe9PayAMtSiJJMjNxaEhUh+UhBDKEzG/k51hHiGEhLlKTXTHU3KJKsQq5hsC+4quQ+ZWBJEbOs3ISJdCiy5P1yNz/CMwAHsLTvVw2qpiGdqqhcqqnp9iSXTEypL/qJJBWT0TjSlf0Iy1wOLW+twtxrrkOfL38J/c+2WwJxZGiBm9sxaw7m3X0fjv36l9FSV4+d61Zj74svoW7QIOR6HozOQ4/CYSccQ0O4kjxSSdpmJSxzusSvJ2okJWnMY974b2PXEX0x5qqJQG2t8CuQWZLssRgZmg0WNBmajXjUjlM0OZetlXrndqRIbMND9tKzO8nEcv6ZksnudM4WPlMSlk7HreKWRHYX0Cbv2I25116LulNOwbGf+ZSZQygZy0Cf8sCyJ59Cx0MPRd/jjsMbv3sEh4wejp59+mL2bx7CMe8/H51794ohwgokJI/mdRsw5/IJ6P/VL6Dv2WfTzAwnoenJ7ophyU0nlsuMzCgSs59UYVIQJVFgZoXXhZkFhCWaCdZEKDJUo8kqnMFhJTCfqkut+kzS72N+BZkmlGl6p3x0OjeR5j1jfYW1jJpkw8XrqlREwzVeBiCUINyDTEGUFCKdajWWnJmRAviENE7Bq4mltSMy/y9VmvRYktTFvl8e3nG/J5kcRBHplCKXbYilqk9R5iBzs63GMp2uVAlL5xO9Xq2QitEgmeriivOMPbewqibreBSW4fU13+4Ame07MfvbV6HLee/BUR/7sBqQJucZtjtNOaz54xNYvfhNw5g44NRx2PjMC1g5Zy76jjsF/ceMQqYumEMgnVNkSmqSy1YqYuwl75tn1m/Fi+PHo/v578WwT3zcJonGGEWR+6TU8SpgmWwveXC/lTZcDTNbO1zchkcRjxXacO6SpcCyKYtl3/ke1m/cgjGTrwXMnAkRzoXeL5WgCvyKrT4H9khqS9b/UQcik80R4VH4/Sp/mMtj95z5WHjHXTj65hvR5cgjrJQx/4EK96ydV2GkSqRL8YeMpaVaVv1e83VMVUyoBSMvabGPuXI1bzzIOomV6BCxEP0Zr7zw5LiwWLp5dcdVrWcM9HQ3tz+s8/bOLYMkRMZCSsnRJoNoQVZnEmnS567QmfTeJ1Xe+K6HSCwVOxb3fdno2YQgDku7mWCn4Ml06n6+9Lq4P2zfc6wMtFMs5XIuaYc5hsICuWwPWJaiK20sl3FY8jowHT2FrrReLrX+2vmOkFxKa6s8u8O2Ld/SgtevnAQMGYJjL/46ZWQh/n+tK8FxgqwyOFcwsEa2wvbc83RZk6Hbs3+lPVMEMUKU3THZcR7YO2su5sy4A0OuvgK9htvStmtBMKlOvI7HYcmV8ES7o9aj+UvE2p1q2ssidofKIOQoi9nwOLkMY0m+htLsgDBp81/+gTd//RBG3XUb6np0o9anmokqQS7tHElBwYaCRu4NOy4MWanMARsefgxvPvZHjLnrdtR170rxSGX8YRKWoQCBnS0BqoiSrAPhBj5NgjLDG0/tqqEbrkT4xBAcTapBAC7bShZqr6v0n1AlMY8W1rWpQwUxibDYuYpGaxZHKjPbDKb4maS6ItmSnl+gImUUIQ0FXV7M1VZYMj+BHF4V6fYhlonvlwu+cViK8eB1rHLkkvBIIwPlYJlIlKSDYMocuDScQi6TsVS0tlEy8HbH0njWCLuTy2LZHfdg88ZNOGn6VOPg1dSSh5SqC9JWl9RLnc+ln2jcvB07N25C78FHYue6DWhsakLvAUdg24qVqOnYEd0O7RNjm1wwv+l3f8Dyx/6IkffdhdrOnYrbpraSyzgsW2PDOcVphY7rwU9OlvXgd6Hv0TruW3G/0qRteBCs5dG8eCVm3XAzjpk8Cd2OPspR/EeduwQd5/Z1Ud8T/J6mLBbdcTf21tfhhCsvQ8YQe3GlSrUqU2BZqj80Q4oOZEf5aENWt69uS2OlEH+ECGnCRDoVJKQxAUVKEpVC8ogk8hdTG1JESS6MkAqHrR85nm6q7iSdqT1jyVWWNKRT5WApRRQDXxGipIq+37aTy7RYSoLp6VwJJCrcoXmbYmmLb+nI0NJjCWx46CEsfuxJjLnrDtT26EqlfwumVetkuWRPL3qQz2P1izOx4G9P4B3jr8DCPzyKNatW4+xvfA2v/fePUdO3L040BDc0C+SRipFcZvNYcve92L5pE0ZOnSyX/EgDj9cBjXmOsDthsjuqJlaE7K7AhlPzJOpMcn9FDJYhoqTK2vAyyNDI9drB0gzyO/fijesmo8tZp2PAhy+gd2etV1v5w9ymLZg54RoMufgb6DXiRDIrbiIyTBxYUSwDoiQOBsIrSjwJT/U3GzBIe8AGEP4zFrhCEhX2mvQzcc94pbggGHF7/dKRUeRNEsQknokCnQiSHDk/tzoKnrHndoQWCWei3pQ8Sz1MHvpIhSXXLbkOVREsqTjZTrAUWTPGJub9/ltgmaQrXkkuhT4VYqnbZ3aqmUvzXrE6pL+sK649pUJi6tOXp+OOAKqSctkaLPNoXLgAs6bOwJCrrsBBJx6rWEB9uYzDkm0h63jgrnNNzWhpbkJDly7I7m1ELptDfadOaNmzB6irQV1DJ/t7Ysh98i1ZLLzhJmQPOxzHfuurYnqjbKpgyUOInj5F2eeY9+vZ1NZg6ey69hVG4kI6nhbLkuxlIlFSOt8TxtLcyhXgmstj/e8ew+KXZmHs5KuR6dAQf21zBf2hTdrt79/69LNY+JsHcUqwYtvQIFUrDlJ4LkIPo7tJo7CPLlHHmWrZ9s14osENlvAeuETV3NmWEij329zNdFKRIENvwy13y6LrbTEZiXTLhYpC/oT6b27IzqeWtM0BerrEMwUTvvxOjREVWeIpSldFkZUfwokvF7L5hhvQE5zaDEs6ATPvyXBV9Jlk4EdmRFzvq5JYGlRCTkkaRbxH2x6wVNsLrHmesUh4v9XF0pEklYylrV/SDFDo/VZTLsvA0mbjrhXgUdqWoeOFdsfJZW7bdsy+ZjK6nH4ahnwiuBDJtSy9QCYOywK7Y2eXWI64ZUFphuxAs00VUjm2O0EUsHsvXrvsCvS68CM44r3nmlsES5XLfYGlSy7VsLI1TYoVNEEuE2y4hYc5CqiyxgkYVXALsNS+p1VyGbzLYKYkj+ZVa/DilBk4ceJl6H7UQFndKMdepvWHQZzy5vcfwK5cC0Zc/DXkay3xEhUbo3U8rT/Us3lkr/Wgp1FJs8WgFYBWGbVRSkOgkeYZLUQiOFxrFjfrYh875KjBIBfD05t0bt2TKvXc/plUq4KU1o+AndFlmgYVQrg2B52b4iJSEirHVYDgySeUooif5kFIJ91cqzdIRKVNwtyo8n6ApVxIwueuIPnLASzTy6Vxnwk6tz9hacoy2RYsu/e/sHHHboy+7kpkag3bkRjdAh3ni3EqYXcisAywzc2bh+duux2jb70FHQYcroYT3a2eYR2X9mqU3WlLHU+y4WE7X0ksVVIU5QtSEfBxk1ioMHI2QAj+aWzEazdNQ49Tx+DIC84DgnmVWBlQrI0kS3H+KY0/xK49eOH6KRj86U/gkJNHqG0WkVTb6hC/TfWsEKWHrMQXkd2wPywgSmKWJC4FyXAi+W1N/EGVLVkN5BFNbwOBf84oRCFBCo/9Ulcn/hkOpCPIX9KeqVSipKJnKiAlkiShCFGSm7otiURlP8LScyYy9FtEBqzQkQwkYamJP6qMpXemeCKdYuQ+SbpSTC7Lw5JaC64k50iJpI0ZWvkij1MyGVoxHW9nWAbB/6Yn/oGFDz+KU2bcgrrOHd2Vf1wK8HScgyl20TySbmXVzS1YI+22BQoJ2grWpANDm8tj1Q9/hDXLluPkm28C6mupnK0iY5qE94nlfF3hkoOUqXnAvEQbLrVZ/XMe2Z1PlFSavSxBLkvG0gZ5EoOVJJeFdgdZYNtTT+ONZ/6FsddNNHMh7oZeqiPkctizdgN2rVmF2kwNGvr0NQydNfV1ipDPfbYJIzx/GMIyADO49OnFV7DwkT9i9I0TgYZ6tVDPw8z252KJA0uUS/vOSXZNMktECFyyING2GqAIUuTuA8k+qRynJuG9gWtFUOTKKfZLs7E0/86Y8caElKXo88PPKG4Etjf8OZT0h/ZI9AvXv49bHhFnUgOP+nvHnluficuU+tz7GZakXjZ78Uhy/k2xLKiqkcx4tkS15fwRAiXjSvi1oqXVlQrKZZSutImOVxBLj7/fdSk9vPUzLkhzOXjTitV46bqbMHLyDega7Jfbe5usndK2KWR3jHHPBjYkZ27rMw4jyl4WfJZvd+wvC/rdQH7vXrx61ST0OPNMHPWxC50TirIprhusKpStl8vWYin2nMBy69IJdj7BXibKZSosw+8uwc5779ePDbUMWE+9C6/cMg2DP/tp9Dp+mJUN04IIXl8ebz30MNYvW4FDTjsF2Y1bsfQvf8OIy76KXkOPcrd6yu9L9j0U2yDf2ITZ02ag5+jRGPC+d5vrxIvJJY9jcMEmbMP1HUb+Z0WfKZPPB8u9jpFJ+vIUEtsdadugEApPb2PATYza2IM0Sxp6ui7sT90yK5VEDeSQuF3hsYBFXEQUPpMBVngNmPuEauxsm109jkgtOGby6tdUr3Ba6JFMRA0FKWpoPvcBLJVl43BeUVrHvV++yCSVXPJgp7xfFaXzfE7V5NLdjGdsF10Kk0Yuta44zgorg7IOqzuvOjo9gKUtZke839RYciuhsRmv33wb6oYOw9DPBqREIXa60GVFgS8PQoh1c1/H6j89gebaDEZf8g3U1NfbjFVdMc/W3JocV30qPLc1zi3r1+PVCdfi6KuvQo/jhhF7oqOhibeXtBourIkhuWTq55ANj7KXnlzS3RJuCMLqljxjhV5FVG4WrJgNL9RxxTRMWx6twjJ8JvnvtL4nBsuguvOrh7BpwzqceMk3iLzKthryzVnMHj8Rh37sw+hz1qnIZIE5v30Ux13wbtQGVSkZNie4yJ8yuZxc4qexzGXQ+NZaPHv7DIy97mp07nsItbAt3l7ru8D3VA7LokRJTKJidyGJBUx9EZ4384k/hCpRESXFEQ75xBBWxBIIS7gErcl9NFkFHZRbJM7g8mcqEiTzfVyJ2h9E5IQg6dzJpERh0ql9gyVvlbi6gLVVbtiT13U42pSVMgr29jmWBe+XOmq8dttmculjGSaksQM+inQqiURFyJvaWC4TdKW6Op5eV4TPvypYWmstLfFcHtuffgYzf/0bnDnjNnMJDtsg61uizh1cB5zFwh/8AJs2bsHY669BTZDdcVoRIZe2M+rfc8N2zrSYcnnseuZFvPD/folz7pqOTOeOFPoSc598etyZeMDSJ40rhqVx9+ruHbG9cq9BAtkdDQgqH6wI2sI2vMi5S5DLJCyrZcODC7Sya9fjhel3YdzN16KmWw95P5kcMP/GqWiurcUJV12Gmi6dTVUhmFUwxf+tOzHvH0/j2PPejdqGOvtzivzKVW8oQQjsc1MOS//3V8h17YKjPvp+BNOqSsLIr8aQZSVhSUJq2DxD7JrOzruFggiiJBJkqSDojRwuuhFNQyIxhA0oJHCmvdiixBCmBMn1QvsZFDKo3ghNtZZMDOGfyTFbUZWBpz9jz+3Ok+5M7QBL14iLxpKqLro0aE8ts7JUTuMhEK8J5QJAqotV7/22Dyx9nPSZOKPVrJQsJRSIiiHe11hqsiy1M27sk9NxyghcWZPVxOsltlLHC8h9qoOlzdLYpoRkl75uy4ZNeHnCJBw74Ur0GDZUSvvq7XnX3hsZaGnB/KnTUXPcMRh20YXumnWvvZQWS5uFvn7jregy7iQMuOB8s70glYdieBfFkm6ZLJncpz3acJ7vUK0Ex92vmn6VlUsTSGVzWPGbR7Fl504M//ynkDEbBVZum9dsxOKf/g+2vbUWAy+6EP3OGGMolIO/3bF0FZY++zxO/PhHgLrArjLREQd1wac4nxd8w6YVb5lLncZeNwkdDjlI34wiv9NYaJbvJLIsCVyL2R29IUIewPIghMvr7JTt/9phJW4y0XfRPSdhXKQyTkgv+Lt7/Q8WeqWzbJ9shSnqTLxCo8+ky1zu3BzcMu+5IzPx3oUqU7qvaElFqJQjEVfoTPJOmUzKzWS4yEgHOO0NS0FYvV+FZfh1m0Ai4v2qWM6VTg9g6clAWl2Jw1Ki5OrIpahbNXScg336JXY4i9t/ae1OhFx6TPAlyGUISxM+NGWx4PYZqB8yCEdddJFVfSpzB7fpmSw8GBNobkHz1k1oadyDTvWdMPPmaRh6ydfR/ZhjK/eNbQAAIABJREFUrEPX9AZpsAR9dnCEJSvw8i3TMWb6VDQc3EtWt/kYfhvWpSfcr66qDU8jl9wWSGsvPb8Sb8MpuuPeBk2C0n8WkwHldwt8T5xcisPzz2R+Plh5XL8Zz0y9FadMuAKdDu9n/aP5zhnkdu/But89jkVPPIGRU69DtwGHoXnnLrSs34iant3RsWcP5JtasP2tt9Cl78GobeiAHStXor5Hd3Q8pI8EmYE8Lv31g8g31GDQRy60My4ymKB2cd0NFdE2nGRd3DHZcJneVHmxx/Kr5lvMkKIKXlwPzdYbaOfT9T34DckwhLTWbO/O+nUiJ5VStuvBuSBAFUy4tknTk+RKxbvaw6vZBg4uSHDtj/OshIoc1RyFSJaUDNmJUQeIzy3gkPGSiU6XUXOo4M9b6OlLjm7dmZKxtDi7NmUlsfSrMdXFkl7//opluGpSIJeVxNJWHOLlsm2wlHsPInRF7leRmaOQrkiljWWXp59Zg5N0vBQs6Z6NGB1PtjvOt4htUjrO9qjp9fl46YGf4LQpk5Hp2tkMhNk+b7BdADRv2ob5v3gQu1p2o/ehB6PxlVeR3dOEE6bfivpuXUO9+Sh7GdJxs5pm6XyDEvWa3/8Ry+fOw9hrrjCESnaSXAXxusAclktp+VKClGgvq4el2G3ZD1VZcfhMeviZevS+Daf7OFojl/r9qvkPl4smyGUBlsqGB9IQ3M/w1NNYtWw5TvzCfyLXuBcv/uZ3GPeZi5CpqUXLpq2YddV1GHjFJTj4xGOwY8VqvH7LdPT/zEU4bPRJmP/rP2DXazNx0IgTTStix5uLsWHdBpw15QZ06NrF2IQ9i5Zg5i/+D2dM/DbQsRMx+bpop8CGF8WSBzBLkUvy46URJTmyCkdqEkOURH1h2atUVYZiREm2P0Kmk+97qASJSuhMsslEALO9jiJBkp6NcDP4pUvafpWIsjjpVBKWrtQjYYqU0Vz2YIMmmqGIIUpqv1iq98stDf4uPHgo7pMMTQQRFoejjFOhXIawNDoSR4R1AEtNSNOWWHKmyC2qVhMlFdVxm3ayDFinkQeaWzB76jQc/M53ot/Zp1k9NrMEeeT3NOKV62/BIWediSPPO9dsHSyfcTc27dqNkybfgHytvcfBFJulDUNtUE5zCmTXJT3BtPrL107GkM9/Dr1OOFraPIUX30UTy8mQG/W2fSydfXbhaLw+eYRDRbC03zfmTGEbTqX41rxfm6MlESWVoeMShYWGGOOwpLsRXr7jTgy84Dx079UNz15/G4Zf8lV0HzoYm5+fiTf+/CROmzwJdT26Ir99F16aeCOOvfrb6HZ4P8Ouue63v8XyeW/g5KvGo0N9Hf5+0zSMvXESOvbqbu5dmHnP93D42aejz+iT6I4Q1fgrkziwVCwzwVUMHE8JR7hX+VPlO8rc1UCusOVVkihJlFYPc/CZ2pL4Q02LFpxJPBL1Ts2zaqCRSm5+96YyWNrBIo7O7UFsJihFFyFKclFz+yGdKhXLqhIlHcCS+utJ5C/kRJUxNX/iBvPJMRZSZ7dKLmkbJI1NSfNMEhkaaY/J4jf+/e9Y8sxzOOWaq5GvrbPKlMth05+fwhuPPYFxt92E2q5dTC960c23IX/kQAz93KctcQ6A7N7dWDVrNvqPHIm6jsH0Okl6CCcJTkwlII/Nf3sGS557DmOuvhKo5+ohBx1cr4zTcWMNpL5QaMM5dSn+fsvFUk/Xp9LxCpDGCZ8El4LKkssUWJqiTwaNK1fh1Ud+j7Ff+By2LVmC3es3o7mlBfVdu+KQE49FfffuJvQMNlOeu+0OnHbLZDsAm23GnOkz0GX4cBx1/nnYs+ANzPnlQxhz7dVAhwasffEVbFu6AsM+/H7Dg+FmE+g9Vps4MKTjliiJyji2BGcjbHEsNPHLJS/rjVjwrXo5x+QiU1ZKoml0/RVVuZeBLzVoYT+fSmUUjdv+iz6TK/K7ZJOfcWeypwwtERsB4mdCw4maiyHVmZRAKQGNOpM5Ryosw2dy2W61sOTYef/BUg0olfR+i2Op+HEs0Y1qO6SRywNYRumvNRKCpQ5kY3XcH6QU2+TpL7vgMnScK5XBmfbswcvTZmDwRR9Dr+OPsWZxbzPmjp+IDmedhqEfv9CatcYsXrn8CvS98MM4/NyzaRk1h72rVuGVn/4CYy/7FuqCQIJbplSaDNsdY/+aW/DKLdNx6HvORf/Tx4kxDQbZom0hY+nT7XLAZlvVRWy450wj7CUb9Zhzi9Oqqr1sCx1nMqVoLIUtUfmeoKIUbLrWBEWnbTtQ36ObbW+rqqfN3QJwMtj+7AtY+PyzGHPpJcjX1xlWxmcmXYvjv/E19DpqEFb+/P/QWJvBkP/8lEnyco1NyOeyqO3UUTYdwt11nkeQwLCI79GvszR/GLS/zGWOVHZjxy+TuG4oUPpDNl1lWynZh3RIvJ1MijeEC5uDago/ZNXOjTs4ogd3Jh6SkJEISZQjyoU0nSg/oyMYurSGlciW8PSZSCiZrVHaIvznZOJizs2zEKaE2YZY2sif1xaTsZRckMdL9hWWSua4HcPv173n8uWy8P3azDdOBqqGJVn71skl96/dgJ8eiLPbOPEyUCm5TNSVCB3fr7A0RjaHLc+9hDcefQLjbpoABBfjbNqMWRePx6Dxl6HnmJHG9jXOeh2v3j4Nw6dNReeBR1hhyrYgu7cJyNQa454J1uIa9yJTX4dMfS1yu4O/q0FNpwY3oxWsNr46G3P//CeMu+py60DE1fi2qVJY8lo323CpHlMNwvo2l6El6Yp1gunsToGOSxxZ3IYX8z37Si7jsbTeMIBx5f/8CmioQ8MJx6HngMNR29yEv0+5BWdNvhENHTti9s23o+85ZwCH9kXf44YhX2fJl7jVF+kPw/6pilgWIUpyZCRqn80Z2BApUTLJBg8wqS5nDMkGT+c4wiFbtVCFtEjyJgbWMjfGECXpSI+nYGOJdJKJkmTboUCp6KpQCv2EulKmnJl1TRNaUMIQcSYJZHQKyxsF3p9RZUUmdDkQIxIfIkoRnLgvaBymT4RVdSxNMk+tkqLEH25osziWdMkRFbqsLjkCr2QsqV2UWi4ptnYF3tRy6Z3JJMCuee22QWJ0hcuAFSGdStLxZCyl8hgplyEseTNIdIVY4fhaXU9XFOFQCrksC0ulK+aIe5sx+457MeCD56PXicehZeNmzLp0PIaMvxQ9Th6F7LYdWHDv/WhctxYjbr8ZNZ07mxbD3tXrMPe/f4yGYUMx4qMfxbK//h1r//p31B/WF/1PHoElf/oLco05nDnleuQ72F347PbdePqa6zHqkq+hx9FHIVMTOAeicqT+jctNna6UZnd8LIVKX4JksstRdickl+wDBG9KFq34q7ketcERq+PWwCi7k17Hk0mnKFXlM8kZpbZHfBRUdSqQy6QzFcEy7A9zwO43FuHV//0lhn7k/egzYjh2LFmJ5S88jxM++THz9Tf+41ksef5FDP7IB3DQMUPpngfXGNbbg3H+kCKKqmBZQJQkvUV1Q6GYKZpElWtOlXLLkI4hX0hBlBQesKNIVCJa1c93/U41FMO3e+kzkVDYqQpLWsMdEX/IULOi0nBRwbnDBCmaipI6l5EkKlyAU/3H1FgyMVncmWLImxKxTCZK4saN6y6p70lkPvsSS6PuPERKA4Zy9wY75ki5LAdLbnElk/uklktyir5cRt1uWl253C+wDE3PFMhlNbEMbFA+j6ZV6/H8d/8Lp04cb65qnj1xImoPPhi9zz4b65csx5ChQ7DoZ/+Lgz/yfmzYshMjPvYB1GRzeP3Oe3DIe96Jg0eMwLa31iDz1ltY8ItfY8DnP4mDBw3CzCnTMXryDUCvrkA2hzWPPYXt27dg2CcvdDv1ASFOlC2UOnNxoqRW2XCxlxWWS9UniSadsrpWHR2Ps+G8EVdlLI08WSpmy9BJ3zX4c+ogmX5F8FCt3VxhCi8bO8WR9PH8TyFRksaSA7dkf8iJWrS9NAECB3+OK4AiGHa4apjEleUlRec8lCpTKlLTK5vml0g923VtvPahV4BVJEtu7oGjJTdQQ59JrQWd1eihG7+dwOfgUho5BL2eyUGx20i2oi4rX2oWg59h4qiIZ+RlpcDS7TdVAMukM1EU3yosGUKelZQssgJYSg/PbQHabKN0uUzE0nxcCXJZDpay0O4PqurupbfzTvJn/0etDZcql22IpW5IFj13O8SSwn5DlbvqsSewozmLYR96HxpXr8LCh36H/EEH4dgPXICGDp3wxn//CLk+B+OYD3wINR3rkNuxGzNvnYHhV16G+t49DTPiqof/gNUL5mH0VVeiee1GvHLbDJx69+2mjLxn2Qq89vNfY+zEy5DpQJfwmOFM5ttnW6iDVW9mzW3BJ9od+VbeELPo0z6QS8l4pRLGbd60Oq5wKMnutD2WPEkjewjiEykU4EIKT/1p2oAUvqfq/jCeKMk5J3v2EBmJGCrFtKgIFrRBNz+u+vmUW7v6Og3zGJWQuMP1wShRdIEIG09/RUCijzBhiThAV8W1Xyl8JglgnCNyGYy22Fyfo0yfz03ZjYskXCDiDZSUiSVXo8kuqLU9PrcibyootcWfqfDcYfIXEnOugIXmLFxpXA+uVgFLogithFzuF1iK6O3HWHL5tSo6XoJcFmCpdYWcaWCDskDjtq1o6NXLzBOYYxN1rpkvCi5pCtiRKADbNXcBFvz6tzgpuHWPdG7hPd9HtzNOQb/RJ2PzP1/Csif+hlE32dsA87v3Yu+u3ejUt7fzl+QkzCmUiSmwl2EsS7A7EjBLYF+GjidiGbaX7NQL/UqkvSxBx5PsThhLTl9Un1z8Cnc9okmnos7NDk8lvtJG9vk37CtTRH+e76FgUC4II7+iZg28yX2VlIX9SslYqhw5yh8WIUri6QdXCnCkREXIfRLIKmwQwM0Ey1DF/SgX5joJdgqiNMcEFfS6yYvLQIeKwngeQWucLeH55JA2ECVKUhMP+WeyZ0g4U4iswqiHXHSlMmE6t5RtuLSXRJRUKpYGFrVblXRuFbnaM1PuRwZKkzcdwJLlz8ld6wm8FFESle5i5VJ2n9uvXGr9dUG10nGpIMbIJbWJWA91xlVMLjVREvdsK4Kl1l/22BF2JzjfhsefxLo5c3Hslz+P5toadKgBXp4yHSMnjEfDQb2w9BcPYc/2HRj4wfehrlc3dOhsCXDsP8l2p8BehrHkbIc+zSfSYeeVzl4mY6mIsOh3cs5Vrr0M2x2Bm5NH5ekLCLx4s6UqNlyT9P07YKnydlPtNmsM3P3gUqa6utZJAFVjpZHidvFDJEiyoKTJfeKeccGXCm7VBTZqfIvVyV02xBXi+HOzAZfmRZozxTzDvRw7MS4mzAVtFCHSVUJkM9sIyxAPghkRIxITOzOih3QktlKXfrRHLDmsa2O53F+wNK7FMeMly+UBLO3kPoX6qproKt0p7Y7E+65rvPXVOVjwu0fQY8SJGHLeuWjetBVzHvw9xl76NeRrarHuH//C8r8/je6jT8KQ97wTdR0abJLknUkP+nFmb//Mbapog8ktT03yo9pRugirEhAJTBR5k8FABWn2R/U8GWXE8kyFsJR57fQ67mbcks7UXrDUOBU5k96qo1yEk+NK2XBLfmbbluZXFPGHliiJdpQlR6ZKpu0skEp56bnsVUhRTDJsNVDGmwc22OTyHQudHcKQ7QSTJdtj21um3LiGVMn5GX3pjUkveCJVCkjuchXOpGOesYrhFMHON1LhJuFMrhyV9twlYKnoQe12gTuTDZJ9nOwMydsXS6nctEYuS8WSev5pZGB/lMsCLGlvPqy/LoPjQJh2xmN0JVIu9wGWHnlTpN3x9ckGB9F2J1rHeTtK253gE/KGZ7+mrs6RxwWtiZoaZIJWRDaHXDb4+3qrz0Z4gr+jAKCYju/nWApXjod3FJaVteH7j1yWYcPVxpbLVov76DQ6ngmolk0czD0vGgLgNrNH7kPOiRv44sK93gkPflF5kUmJpB9AAiC/z05RegV8Ffn6SsrtPUeiYv2+ixgoDFEZvqt4cPnSEZbwIAJX+twVpSWfiVsK7R7LeBKV9oqldcTu3Cb+jZQ5+z7bTi7bCku3iVKuXJaDpR3aidMVpcHF9Nd2scSWWR3fn7G02w+Bw3f/MFDcRPBmtGkdlp6Xq5XZFpaGpb0zIqUN56iWWgTJumLT2Hh7WUm5LMGGh3S8knLZZlhW0h+GfE9J/rAIlmYGwZWvuKDhBg+dmNOlFZSxi53QN0pxAMHPqKDD3yLggcd0JBvG6POerqd3vMrIZTg+txoGCZ+J7ZsqudtaC1ssjuTo9sLIYZnCc1NFSJUC47FkJiy2kGEsZdIhJWGJHcKsBJYEDhFhFQzWFMNStaNsv0ifSa+J6qHX1mCp3y/NisTIZVWxpFVbHu7RzsENh9MiKWWI3p6Ofr9huawglpKTFSHw2qdyWUksE+xOuXKZFksOB6wOMbEcVSr0NFOU3aki6VTJclkhLIva8ARiudLlUtnwNsSSwil/9yClDS9FLtsSS7vmaD2VR7QgTlNIY9Qz+nbqiOE8ntY0xlkiVm/n0U6O0mfr8hPPzPlnUlPxBb+vSud2Ht817D2c9tWZqI8lns++l/RYqnsc9gWWIhNa5g5gKaX/KH2i98tdPl0adPOnrlTt9CksK9XUlfYgl9wO0VXDaLsjWLqoTun5/oJlGe/Xmz+I+pz0WHrz0Iyn2Kf2iSW3bquvK7Yy4tXIE3S8vWGZCQoINki0ZVvREsXUZ3v0IRYpasHZyqB08dyaIn+q28Xj9NQEItG3I7JUubFJ86wInRrG4TNxvOYxoqnPLzh3KKtlaysVCho80tS1KjCwtW31jKqg6CpC+8GSh9P43Jyqti8smfNaBqiE2Y1XgJzRlxmVMuVSz+dwgJwslyVgKRPwcecOMRjSUCmvbsrWTSvkUmNJhQuqwrZPLN3FY6qypIIitw0UjSX3mzhb5wHd1mApY4ek422FpQyhye21bPTYeae1OypzSGXD6XNT2XBuPFuPZ31CvL0swJI3EnjwvEo6nnQmxwicxoZXE0v9fiOw9PxKMX/oVlWltpraH2o230I/bgMEJYM0JUhrcpSdCrkPRULa6pDz5DK3/Qm1tiNhAQcgVBtQiuDaYmTAuCwXR0rE9Lk8FCq7pyTA9IGOAIicYcHaKoV2csYQIY30dlxYzENQvElBc+S0sUDbDWUSJRXF0vQc3T98Y57HEJyCvMmg8jbHkkt3Ipdqtsz8WVthWUBII9My0kJ17zQkl0m6Ykt92u6pe0CopK1/Xmx8cV1RfOU0NECj7qzj/25YhnSFRqfKIPBSMlAGlp7+h95vWMfdtkLBZJu121RQjrLhkgqzvSxHLsuwO7roI7tk+tyJWIZ0hQuZPKiaoCvtBUvto8u14QVYqha+lQez5agmhlRpyCdhcAWAgulH6ZcqwhLOutmVFSMl8ioS9NbM/3DW4IIVYxKNIkSdu5D4wzuKa6gUJ0oqOBNLEzfmpPbiyE7izqS6LeLdVUDO31iXkfVX9JYqi2HJs2RRpFNc5tCzIyVgKY9ykBjqHUvBSASNv6SOVEPZEacjrTxT0vvlllUcljKcK1wT6myKq0OO6E3XuZcqswUaIPfV7REjSFSkxCn7QCkIvBJ1xf2SwjOFLGfEmQ5gqWxKO5FLMeLmaI7B1v9PfW5fLjkB07z+OsNoG7lM0pXy5DKRoC3ShvOQbEhXeJxJ2/CQvXRYhvwh/2eb6HjbYUk8CFwwoIEqMWxUcuByaeAMOPFQz5gMhvdj5d+VQeT5Blk7cjcAcPuCo1MbudoPd0VwR2rkBt/s2zSFoogzGeMYcW7P0MswHv0+NQhpfQP3j/SZ9MmcVAjPOAkU318hWQY7v32ApWMoDr1fGSLcl1h6oY8MNvJ6rbxjCQpVoFgMy1Tvl4cIWeYct0CUDFQGS177dbKbKJesDTwwGyuXB7Dk5MW9u9LeL+1TSA7k8iVuTZIjpiqn9IxV1TLK7mg7IDcpsp2LtDspz82t0Di7k1LHo2x4W2Fp7ikowYb/+2LJrYYYf2j8a4WxNFsMlA26qyGsEeYLmFwJU60XktGSXqmarrAkhG6egDy5ypF4PcY9Y9SOMjYODfwbHF307CXpzNPAmaxMOWqJK/x90k0mMiHJ8ELndgUMFSzRM1wglHNLy8P+bi6sRGJpeqwU4JSIpT5T1LkPYOlKMy7gjJaBA1i68h+vucbJZXlY2jmnNDrOTHkVsTuKMKw96XhFsVRBQIENlxUbdcEPWScdEktoSca1NTac35eNVapnL21a1lodDxyo1Mbpk5RcKhu+L/1hpbDkVJzxMjdCcuUwopTN5HqiK4YHQdabCRLC3goJEyVxthxPSmTcnZrQlJ1SqRwUkiCVS0hjK7rqTFx+jzm3dyYiWYglSjLlKQbUJ2+KPjeVhw1UlcOyGFGSDVTKJ0oqjiU5E8L73w/LhPeruRkk7m2lrhSTy0RyHzJ+EYQ0LCe6TFqOjpcnl/s/lqXYHelMifMkG0H2cr/EUm7UjZK50uxlaVj61T5r+qLJ7myyVCEbXkkdl0AsDU5FiANVq7C4DQ/78WQsLZOibvVzcECfI0yKapaA60E2+yLSGk1PW0D8IQV3Xg+W2THzEeHhwXAbUD0j0amuUqihSc7qjd6F9o3dNdXu3D7JhiP+iDuTDPlEnJuvb5CfLYolD6PxVaD7I5bkdsx31UQ6lcNSJwwkGo7hU+SyHWCpqlkcs0UTPIU2c2hTRwhpJOBjJSyOpSM6K9QnLZflYJlMSFNhHW/vWJL+6xkX64tcldW+Rk5JeZyKRr4SSadKw1JfG0OxpdjU6DORR2FyJXF8SXJZ2pkKibAS5DISyzgyNBt9a99TSbl8+2AZRSznv1+e70vCsmBI0WTMQmpFswX8tmW7gIXcGjBeK7GtBCZBsk6Y7bfcSa2bdsbas8nX5BbhAUS3S8rCYAMLF0nwufXvk/KKBCyqfxhxbqdVSedWUy98elL2uDNZ39mesQyRDZEMlIqlhGTcJOT3Sxm1zIWodpRQeJaEpZY5Lp5Y2XP9ydbKpf9+rTGygU/4/bKiSEuHKm6ucmdZ6BLPxOt0bCRJLmOxlMBUV4xURE3K658pWlckpgudwWVjPAx1AMtiduftiWWJNpw2E1x1df+XS+0PnQyUaC9lC7AEf1ghLAttuLOXctEc22exA9qPE1OSpWfUV/qo6NdnWPU5CDXpg1xW5BUKZKLClTMdT4Gyi5bSU+5hoD1VahK7qi0R/UjVIfncNoCRiQNX+ufSnjcOGT439U3DvAcRZ7Lnlk5PVbG0fpe3jIth6c7kBWncPuF2Ac9BJMhAu8VSvd9IwqEEudxnWAp5CskYV7ui5NJtF1KQUkW5fNtjyZdbSe7i7I6aV7C64j/DZXApyhazl+0AS6lgpLRNmuTOq4VEyuV+iKW6wC7a98Tby32GZYjPoi3lki5rsganKGFJASmRuwGMujxuCydElOQqatoyxpFVFCOGcLS9pRNDlECU5Nc35M5Lds66YsKlW/s9S8fSrduVSjpFViwFeVPppFPq/UaSEr29sJRqcBtgyZNCUeQ+UcRjHvlLSXLJQXeMXGrSshLJ0PSZZGaMFCGMZQERFostJSayLRBF7pNkd2T+iKjgC+xOoT75WDrabq7aGMcYlU1p8qYoYrkKYam6EqqF65KCtyWWrm9gq9DVwlI2HKllQnvlmllGltd5gpmq1eKVYkn6fHuZRODVfvxhEaIkU0AogSjJC6tth8FNlMaRVZjPp4kA5tzmaz6ZCdXEDQlESbrCoQcX+AhqL9+mWf4AAP2XSwnME+WeiTch+Z4KG6YzmZKMi5qSuj2TI2+ig4tlrBaWEWdiLPmiKx6aaI9YchYX8X4riqXGhN8hiZGTyzKwVERJMoAjmzcqVa2mXCZg6TWtdYoiGq51Re3laP1lHa8QlpHvV5b2w3bHzWtLi6cdYMmtBzGVBWf6d8JSVXuVDfdss9sjboUNt+1AXdS2oqjafHQ7bsEzRBrHehBlw2XLRxEHij9MIZcekd1+4w+DCEG1VLyCpyLkUaMCLn+hMEiUQGYKnNfTQLvMWkTChhfCPKjWKL0zuaUWPTwYee4SziQrbqnPrdVcn0lCDWlncOBkv6m1oh4hiRdcuQG/tsFSTR3rHWx1Jp6boJV7Tlqc0rLjUIEeBdqxz9h3F6qu+CGmm2FRraECLPk3yB4pyxPPmJAjJ1it7MbJnD5TklzS2mqBXBbH0hqR9GdKJ5ekK8z1oETTGdwUcpmIpdvC0MatOliqgrYmAgvZplKx9AaGY2WgvWMZsjuevYySy/aOpZOgWN8TK5cqsXLznzSOlkbHK4NlZfwhj9EV8YeJOl5dLM11zxwFWXtrIzCd8dqthdJIGHj9Np6wRK+esJcgg2ZKTPYMBWfSxB+c6ZD1SkNK5FaxeU/XJ60RLn6uQvA2hEfexENbXCdVZUw6UxJRUvlY0nuKOpMMa7Q3LK3H5/1v7/3yfRtUJZB2VUWwDL/fMIHXfoAlz8kIUVJ7wVLd0EmRZCHRGa+gtRMdLwdL4RRwbT09cy010FT2sgy7E9JxmZxKYS9LJdLR9tIsvWtCvANYlkTwVDEstY8u0R9an5pEphSSy0SipDDJRhnkPlIpoNArTMQhU9dqaDCeKInGhFTZmZPJMDGEBDpR5E3yxmwAVEgOQhPsPMBngI0m2ZB4gs5UlLCkzbAk86HOTd/WZLWWe53vkpd6B+VaOjNXbZIKYOltNEgVwZYzZGB2v8eSlFHJj8T7SYQ0Rcl9fLksC0sKwVkGzJhyHIGX8IDHEI/pQbgIffJ1PL1cJp5JbcREkvsUwbIku6NaJ+wZpIgVRSynsOQqGKc8qiQXYXeo4ihyU4RYLoHcJ6zj+wOWheQ+xMfTKrvDK+T2M6LsvCcDbYYlVc7TnKkI6VSBDMAUAAAgAElEQVTYXjIHD1l2mfaRjLsUuWSiJFuEVeQ+XInRg0tG6e20vjTbqa7st2CItYsb8uoZc3hexVLOwJYo6CsJhW7oTBwQmJVB7vvHnSn4c/eMXO8ZcSbD3Bbuy3t1XvX7jAA5JyaKHz7TASxt6yiEt81CeKAshGXc+9V8FtRFsC0bXwZsdOzXHdufXKpbHClqjsLJnrsMuSwDy2Rd4WguSceJMDFKV4rpuDXh5gOK63iVsBRbqIZRSJCiz+S6rmG5LAdLcWYiBiG7cwBLGmgUgk67PRZpd/wWb4EN30dYtk9/6HRciJJMecw4PifshUMZLttUFATu1gTV65W5Ap4x0IabjAAPlHCLI5ydy5nYKZjP4gI0tUI41+W+nPp9bsgp/txyGVTM5+gqBgcD3rnV0JH7zgewlIyU3p1miuPYM/L9UpiqsTTOwl/lTy1zRWWAex1yKHp34UBET76xruwPculh58hTWqW/Mswao0/FsNQDenF4t2cdb6dYug52SHYPYEnzbX6PP9HuyLxwW9twNYtHPiy17wnLpbrdVVfui9pCz0dTNTkfzCBIT8sRu5i/1uQ+9IzZD05D/iIZDLvVGGIXky3Y6I6vV7RDfcqzRJK/hEgnPIInRezCaywx55YahWJ/tBlMinNzLEWtGB7MtfFP+8SyGPGHfr/ulYRWgvY5lvr90nvaB3JZCpaFhCVERpICS7dhUA25LANLyfZT6EoRHd9XWCbaHS7/muomk2WltTslymVZWHqEDTK1L6XzEIFXWhseZee1vQzL5b7CsiwbXiCXbYQlOb0CX1d1f5gslwVY0hKD6/vqjSu1CyIxmKwjkgdNSZTkiEf0oJr9DBef8P6x68+US1giU/iUvXB/hndhuE9jh6soUFHrYHonmstSUWcqhygpfCZej+SWj0pmZUfY4tZ+sCx8v0lYJr/f/QFLuZFPqnElEnglECVVEsuSyX2oUhNFkuPJZYGuaNKc0uSyOJbUAdTk6bF2x83R8D69ryutl8uSsCSDaXMb/0xUA1dDu+EzqQHqIuRNzG2iy+o6X7aBl55pqCKWVLEIn6lcGy4DzQewNC3+sM+spFyG/WFGLnPk9TM37cemTxddaEwg6vIEd4UzZ9DeN/E+za0VeZVbbj3ITYhOuP0NJbW+xYQljsYw+txca9HoeqN4umLhiuD8b6x0sqYXgZNz6PHn5nDIfo46DEdJcWfyzs0ZGwcJ6sIq7+hhnPxLrfhT/HO7bMm9G6+ISW0oDhB9hNxgjPR6QmC25kzR596fsbTSRsU7mXc5gGWszEk5S2cwWtr2BZYpdKWd6HiBrsTYy30nl/9uWO4fNjxjKghSNaPI1VQ/9aAQ3yNg0wtbouKBMJrLVqV8udHRRL/uvhK+AJkvTeL1HPeMm/33n1FXlfLkvbQ/QmcSsiYa8pJ7JULsi+q+CRPj8/Al/7ycO+WZOCxJiaXx922Cpbrox5uz4H4lv2cyIfpMxbDU75daUpXBkgx/CiylQlQVLO2Wh8zmyGS+de7GJZGu2LmUBCxlDZDl0mXZfB+F6EFbYin75pqnwem4CWIidUXGvZWOx+kKE9j8+2LpGFbT2svKYWl62XH2MiyXYguj3q+bjy/fXhbR8QS5TMaS+77a9xzAkkcGwvayGJahAIENHwlCAWGJzqNtxOeMh3sxrmkQQYJkp9V0GlBIlBRJDMGENMrRxxE8iXCFz+QPV9ngnol7ip8pXFeQXNjQw9JKWwrSKRuQtRGWvLusDu+dWyiUvbemi6L232Wfy51bDyKWiqWPNrtb6ssXw1K9332LpSakKSKXiURJ5cnlASyt3bISfABLr6khtMU6UVB2fp/JZRGCpwQdL8fuFPU9BfYyvY4n+0NfLu28b3rfk6zj6bG0YzXpdSUTDClyFSzoZXgUk3r/kibwdD/IJ1MqJKRxcYCKFtOS+5BDKyAciiCGiD938pns/ngSkQ6VgeQZBW0EuY+dCbB26gCWMnNKa7HtB0u3+lg9ueQ7FqL1qUS5ZNdHrJe2O6H6/KIr0QRe1ZTLsrAkO1WgKyEdLwdLu1ar8C4HS6oSpdFxYZuLJXErQuBVcO4EYrmUdsdWLaPpwuNsYbINpxZnHIFXklyWgKVdqy+B3Eez1nLA6MlA+VjymXjwv5Ckr1r+kMYIxcfzfTi2OVSK75Gkj1YXI2UgIEpyU4Jc/pKaIq8XUHpJWRIdxBgpRbZj2w/2L00sz+VX/hOOmox9U7cfUimbvp0SKx6o4Yyb+1RsWSgS5sENtfutqRhND0VuyyPjKnSlYj7pghZ3boW4nIkNostc5a3w5B0dmmoEusQi0ZU7t2w+pMTSnYkjwWJYynCDpXqg4UYrTDLC671fI4L0d/77tdwDlcKSixrVwZIXYew2CUduWi41ljwTIsOqprhESidbNRFYFnm/8Vj6uiIDgK2UyzbB0qxTFcdSWodedSqEpXA3Kx1vJ1gq2yvkOmKbFOe0DIxFnDufydkWFCcSpHcuYNzPsOSaL8uAMT++nY+yl2nl0mHJfbxo2+TbS6bOSYMly5+yl1LJjbLhVZTLkD+0AX9KLMM2nG1TpFxGY1mSDWeqZWs4efjQ8eXz/rrEBBxNSGmeb4Nyt6lJhM3hlflhd0OX67kWEg5pml0+ky0cunKMPad94fbv3EYF30gpe/fkEcQ8qavSuNvBMxOR51abArT15IiS1F541LmtN47Dknm9op+RrIllV2PpnYnQiSBvOoClVZDiWObRsnMPcnv2Il9biw4H9SQyL9mvIRlTMlegK34kX0m5JPvhk0AlyKUVO9Ea7rNR0F5Mx8uVS25HRctlHjmvvRhtd8rAMkSSE9bxNFhyFda8YrIfxgWVYHe0bTLvo1R7WYaO+3antHMn6kqBDVdsgDxo621WkX3mK5a1XJaMpZNLN+OW0vck2fDQuTm4rbZcluIP7ayaxrL1/pDT97T+0G4xkEYYBbD+ioOayhHShBycVVQmO6Lfp9eY7AkKyZvo1q00pA9pnkkiSrKrqj61spzJBaQsfq49w8akSlj6BBr2ILHkTWKO918sq0mUZAPNLPas2YhF3/k+dnfvhnETryQWQ18uObNkGfB0ZT+Ry1gsA7+t/6lxuikrdCog9vvAXFUAMjkgt7cRNZ07GIvGSYfUXnLBA3mgJQc01AI1QYUnZHfaEktOPtQ6ldH5LJ2xQy2djwb9RKepFhdF0BYAtncvMg31QE0N2QX7HYthyc+UpONyBgoGtN3Zx1jG2ksTp+4Lsrsi9nKfYdk+/aGZQVBEBJJtWEHm7QVpFtIGA0028/ZZ1N3pEoarmIydLTdsij5DGmUGBTSZErUcyOp45D5xZ6JUQkpU1OYgMRWaZxnioESLf3FxQgv/TFwlcUahmliGcOLaiof3fo6l0HNTJB2WOUU4xNU2uwmjZNczSNJ1APJZZLI5LJw6HdmBA3DM5z5rqw5lykC7lcsoLPN5bF60FJsXL8eQ955tA07KoG3nLhnLoDCwe/kqvP7on9FtyGAMfc9ZQG3wM7aSwPrbtHkLFj/wU2zbuANjb56Emk716rPdhL+0ndR2FBP3xL7f4C+4YqRtAyceRewOWTy07N6NBd//Ida/uRxn3j0NNZ06SBXKyJMUlnjVyXUXGad1s+Zi9TMvo9+Ykeg7ejgyHCgUwzKtzHk6rooyMgRePpaSs7cCy1bZyxJ0nN9BolxWEsuwPyxRLguwJIVwOPFhSVfKsOEeSV+SPyxGeGjsZVBCsJN6dqWLkLff3/239FKpEuBlU0QyxKUtDpVd15EHqrg9T1m5DCOFBtqYECPiTDqj1+fmKQWK0933CJVEks9tDYxkPXrYhe8VpxercXJrojQ/XA0sxc5WHkuKqWXuoBQsbcnKP5Mb0KoclnFnKl0uLV236flJPy+LfFMWr028Bn0+8iH0P+MM5Gt4gDXE4R6jK9zX45oDz3C0FZbGuYX0N04uI8+UB1b++UmsePJfOGPaDcjXBpZFrYfF6bgpGQA7FyzG6w8+iKM/8XH0GDzIVAbEplA7xuhmLouVP/wxNm/cihGTrkS+LurcTkv1DEcxLPNZYN1zz6DDEUeg54CBJctlgJeR5Fweq3/xP1g7fxFOnnqzCXRKwtJ8BtC0YQtm//BnOPTs0TjsjNNNNSFaV2zwLu2QkD5ZevkY20RVnzgbHimXMTac2yK6hBxnw1PpeKyuqBhLPROv4zzwRzjpqmisXFJcqrY47NdWWCpfl8aGVwvLxPdLdj/p/Wot9S7nCuHEBULToqHMtZgfz+TzObMwyoxbPNBlIxt1IY5a0nZ9Pfo9NF1toVcDjtQmcLU1XrALEyWFLtihTM9jAdO3EdJ9DOFIycoa9T5l4lsQpvIe/bee3+Bzu3SfKimuXxtFguS1HzTo1G+sGJb0LrgWw70Mxlt6zsYCl4gllSDbHEtWVkoH2wpL7gejJY/G9ZuxfvEy5LKN6NezF57/7r04ZcoN6NDvMO+iJBvMk+zKuanCYAJ+FZbyzAtTf3NgF5JLrStcraPw0ibcXIJVQ4H215T2fkVmxDXpP1EDnAEwjU3IN7Yg072zncnjeqIrAtgcQFQqeCiHTGMOL940Ff3e8w4cfvaZQKbGcnxQz1nmgYJ/yeWx6NZbUTPoKAz+9CeQr2GSL3eLpP2WanYkLZYtecy7bQa6nDEWR55zllQtPCzDOu71oK09y7TksPDWW4ABR2Do5z/vrgor0HHugZMMqF6xcXb5PLIbtuD5Kbdh+PhvoftRA10QkPR+5Yzp7KUY+yi701os5Z4qZy+5GCeyG4dlga4oX6Lmxfxzx2ApJV/rV6wbcn0dGRrXvqcMe1kelvH+0HGp6P59uvfLrZg4f+gFdGFdoSFGt20U8odFsEwkSuKhHLlDnIZtmCjJRPetJVGhCoWVsTAhjdqW4Ll7RUjDbQGJ+hJJcjgD5M9UBBrm+3BA4W6ZVPqpSHLCZyqd/EUTlhhDpHeUq4ZlMlFSxbCkEpwx7WZ63fWlJbbUGalMd+ueYAyRToi8iYcvo+TSOoMkucwD2Tw2PfUsFj3/LIZ95P1o6NIZy+/6HrZ3BMZMnYLaDh2oLiLe3VWVZbOBCtKtlkuHE5dJbccthwxqnBfnsD/0vyb45DaAwjLf1IJNr8xCZvcudBk1ArWZWqx/8UU09OqF3iNPMIn9toWLsWf5CvQ6aRQa+vYxn9y8aRt2zl+IXL4Fvc861WC05dX5yG7biE4nHI9OnTpi0yuvobahAb3HnYx8XZANB7KVw6ann8Pix5/EmBsnItPR9t3ZEwbPZHc2Yv2c2di7fSv6Dj4WC+68Hf0/+wn0OfVUW8khJ2DlxA3VxdkdTkJssKL0N5vH/NvuMAHCgHPOoqFMDuAS5DL4Hk3N2DRrDnZv3Iheh/fDou//AP0/+UkcevbpMtwpnQXuMhSQikl9gDqVeRNsLP3Bj7GnUwOO+8J/2spUpN2h71GUoK243XHzIcWxTLLhIpdxZHdV1HGpS9JFRDZodjZY391RaMMrh2WYDC3OhnPwHucPC7EMkTeVhGWIOJBsQxp/6AZw02FpAgSezmcb5Ih0uIKg+iMur5ALTHRWQZ0vMWcSoKiMIt0zvkWMIiWKPTfn/xL86pKlrD7405gcHjPYsm6mqh1hI616m/Y3+KVIyYS8akwYS8oKeT9ZZWjpcPK/WwHerpHu3knEuX0sFTlIu8UyirwpjCWva9Kfm/eTReOby/HCtBkYNWE8uh89GPnmZrx+7U3AkQNx3Ne/YsvjasFNpmiIjY7yBMpZFIEXyUAklmneL/Jo3rIdSx5/HPXNzfxrSE6D91xj3kYuk0PNkYNw1FmBE2S3Ra8324L1f38Gy37yc/T74AewO59F3e7dWPfXp3DYeeeipVNnoDmHltcXYcvGjRhx7dXo2Kcvcrt3Y8lP/w/r3piPM+69w0SVm158DUu//1849CPnY+eeXejYksfGp59D/YgTMOKbX0a+tgaZ5hbMvfFmdB4+HEd97EO2NWHOlDGl+h1vLsW8XzyIvqePRZd+fbD2F7/FnlUrcOItN6DT4YebYIgluLiOk1zGYZnN4PVbp6PzmeMw4JyzVV3HBQmuuE3ZaC6P3ctWYuZP/weHjTsZPQYcgfWPPIrNc17HcTffYNol3CdO0nHzG0ItSROq5oBdL7yE1375IMbdOgW1XTrZai1vwaSyO1XU8TRyGWkLi5xJKjPOaEa9X13aL7SXcTrubLiuNLWJveQqNfdebMmBKmvWtu8rf1gNLM0MQmhtQTkSUidbK3RTW+x4lUIwGYlMpqrKlBsokZhCrWzR51JZisurfjndD11MBC5nktFgd25uL9AzUWfil+hKVO4rehwKyud4ZzKHcCJtzi0HiziTezwlliRoznra70f+wDu3lJ3dF3ekF+wcw2dS8yb7OZYF77dALhWW2SyWfv+HWLdjB8ZOGA/U1iG/ayfmXH0ten/4Qzjs3HMoo82jadN2LHj8SRx/0QeRaaijADCPHQuXYuUbb+C4D5yHjAkmKoNl8CnN27Zh2VNPoa65xbUTTNkw+FtTj7cG6PABGHTaODP85stlDk0rV2H+xBvR8d3vwrBPXWR+dtHtd2DNkjcxfMIE9Bg2GPnN2/DalZPQ+/OfxRFnn24+Yu3jT2DpY3/EaffdbYKklk3b8PplVyJ38gkY/q1vIFNTiw2/eRhz//QkTv/uDFN5yW7fiTnjr0a/L3wGfU871bQMOHVv2bAFL980FQM/fiH6nzHOnHv1D36EtUuWY9TN15vhPyPHwVaDke2M/XkKahP1KfiRXB4tu3Yjj6z98ZYaLL7nLnQaOwb9zzxDAqx8fS0aOnf2XTHlRbmt2zDrltvR59xzcfh7zjEDq5sffRxzf/8oTr/vbtR17SrtpVi7wzNTehVN2bOW1avx2o234ehrrka3Iw+3tMeUCGjTGm93SIfZ6aa2O1FyyW1T5bi5pcVZOg/zhrsLWq+0PWNk9Zwdt8PM0clo6XOXa8OTdFyq09Ta8Gx4eVjK1wr7Q4LT48lRrRadVxe14dwWYD0IYyk5QWXsjh0l8OcAWS4pQNDCwr0/lmB24I4kx5SlSHhcCyOekEb3jVyJw35LexAOx9TOkMqMOPiwmZmKTpSzjDuT/fLKy0o7o3BxQbIAPpP5VfZMnD24UIVyTD4T8yuohM701eW4soYhsx38XYpiKaMQ3B5xZ7IBVRKWfob5dsAyjrypuFwCme078fwl38agr3wJfc441QSazWvWYNbE6zD4mgnodczR1K3PY+9ba7H0xVdx7IfPty0TMnYrX5qJXC6HAeNGKwrq0uRSkzcZLTByGZDrcCBu35ui7XBKypWKQC6ltUNDxcH3Wb0Gs6+aiKE3XYceQ4YCuRw2/PqXePOlWThl6lTUdOmATHMz5n77KnT70Acx4N3vMEdY95c/Y9nv/4Bx373PlMKzW7fgtcuuRN+vfxGHnXq6OcvW51/E7O8/gLHfuQMNPXugacMmzLniKhx56SU4ePTJTldyeWz885NY8PBDGHvnDNR16YJ8Noc3pk4D+vXDMV/9gs24cxlkmhvx+m8eRf+zT0f3/n3d/If0kpn2RNmdAI3GDJ6ccB3QuB0Z5FCXq0PPnRuwu0NH7K2vR11NDYIwq3b4cTjrG9+iGIR0xUwk5rHxb3/H4ocewZg7ppnVzExzFkv/+4fYunkzRk6aZAOwGB23ZovGlXNZLH38L8j0PQQDTx4djGGQ3QHymzZj9sTr0e/rX0Wfk0bQhkyI3KcUHec0lRwJCYHIh2d3SrSX0XLp2rJSkCxid0q1l4JlhF8J23BH4hZDlJSEJeuOTJk54i9RtjgbXlEs09vwtsWSxJ1kXqiW7XvhSK81REk0aUr3KNiEQA9UuVmAYkRJBcQQeqCtRMISj/gjdCY3bGnPKZOikpFbA2DZ9fQMg1w75RHSMCdj1bEsgUQlGUtHNOJCr3gZqCyWnGhGYyll/WJySUNLUvErIKTx5bJl1VrMnHAtRk6ehA6DB5t9/NW//DUW/OUJnH7vXajv1dMY2uaNm7FnxVtAz+7oEQyXBX+Yy2PXyreQXbsenY45GvU9eiQQYSXrUzSWQHb3XuxevAzI2QqCS+KCf7N9fyOVPbui64AjTAVDSFQofG5avRZzrp6IITdcg+5DjzYrnBt+9xsseWEmRt88xWTuaGrE/CsnoMv5F2Dge99llHPdk3/Giof/gFO+812Tyee2bsWs8Veh3ze/gn6jTzH2c9uLL2P2d+/H6O/MQMdePdC8fhNmXzkBR116KQ46eaQrr2bzWDDtdrR064jjLr7EzCXktu7ArPET0O+zn0L/c86wzxrehN1Y8pe/4ch3vRO1nTvJgKa3OhCyTeZnszns2bjZZP0Gq2wOy753HzqePBp9x42zKVEAWIcGdDqoN7WNKBgLfns2j8Xfux/btm3FqEkTkamtQX7PXrw2/nL0Ov98DDz/Akp+aSyPewiS2cjbQKYliyVPPIU+I09El379aMiTltu2bMWcSdej92f/E4edeoqtkjD1b5y9LEXHXVgpfCgy0MYJfCpiudJseHF7qXS8DBtu46AkoqTQuc1rV77nAJbkcm2JqxQsM8FVDDYBlQ5RqLrvprc5wlKDj0L84cq85GxVMaCAHET2XRVREg+XmUTIDbnJ9KckcGQ05S4EGbdt1bm5nBn13Wy0TMZBFDpEaFFw7upjaR2H27CwulAES3I3frVq/8DS9VUkifcJvCgQLS6XQHbdFrx8+QQcO/5r6DZqFDbMnIO9L76AZW/Mx+lTb8aWdRtx8OBBaNq2HXOm34le7zwLg957rjjqrXPm46Xb78ap06ag2+H9lczJ6KRrf8nCfrpzByK+d91GzP3JT1Hbsse1DiQ3rEFNLoNsTQ1qjhmKURd+BHnaGLBJpUnJ0bxmHeZePQmDb7gGPY4OKgh5bPjNg1jy4kyMuXkKMh0bgOZmzL/yKnQ5//048r3nGl+8/qknsOLhRzD6O981LYbcli14LWgffPPLOFQChFcw577vYfR9d6JDECBs3Iy5V07CgG9+Hb3HBBUEcpotWcy56hp0GDcKR1/0cWRyOWx79kW8/sADOH7y9eg6aICR4dzeZmxZ8DrQqRN6Dx6MzW8uR12wTdG9K7of3g/bFi5CU6YGhwTfQ3gVqPKoHaMJEPKYN3Uaupx5Go585zsoWPG3Prx1wpZmzL1lBpp6dMFJl11int/+4itYdO+9OO7myeg8aJDBbvMbC1AT2JuDeqDrQQdh+5uL0FJXj97DhpoKQ/DdtsxbiJYMcMjxw1xVh+Qyu3ETXpt4HQ67+BsmgOChTCqfyoqjJqhjHdcVv7J0XNoGbWEvI2y4KhJzYVxu7NXVV1eoS63jSTbcdjdKteH2ELy5ZrMDXpGkP+cavL6/SLq46Xymf+4UNpztvASorrlZLSwtUVLwKihVsUQg7q5By4VAQz7sXaiBxtONbp/cZZ/cdyKaRjdMpQRA9+3lZfCXl8iXosGkM7m+BZkMKs2qcpKsW5jvag/BdLTigEJTsjar5j6GM/KR5+YzEJb2V6TE0jsTe4N9hKU5Np+bcWKDrM9k0fGwdOkutVE4g6DPqRiWtPIUJZcJWBq1bcpjwXe+ix2rl6PjcSPQcEhf9DukJ+b++CfoccppaBg8GEPecRrQlMUrU27G0V/+AroOGkiRN7Br4RK8cM89OHP6rajr3tX1kwk3X1dKxNJsX9jSt/0nDKgONIKCgmnYk/GieCKfQ9OqNZgzcRKGXn8dugeONZ/Hhl/+Pyx9ZQ5GT7UVBNNiGH8Vul1wAQYEFQQA6574E9565FGcfJ9tMeS3bsWrl12Jwy7+Cg4dPZZaDC9h7v3/hdH33oEOB/UAdu3BvPET0fPCD+Hwd73Lri0G5w4ChEk3oWboIBz3xc9h96rVWP3Q77Dh1VkYPWMa9jQ3oduhhwJNzZhzz33IHNwbJ37p89g8cx7e/NFP0ef8d+PId5+D56bNQI8ThuP4D7/fnMkMAosndSgZCc0Cc6dOR5czT8WR7zxb3plXouV+a/Cj2RbMn34PdtfkcfJV49G4fhNW/OpBbJ71Gk664zbs3rMX3fv2wfqZL+PN//4FBn7mE+g/ehT+Mek6DLzgfRj0nneaCk4wQ7H4Rz/Hlg0bMXrSFWT6+Ia9PJqWrMSr06bhxMk3onP/Pqp56vSJDXzr7KX9hpW34el1vKANW2Dnw7ZQpaQi5u4Z44aFp4QqQaq1UhUbzravLbAM2UKZA7COyW9pl4VlhA3XfryIPzQVBNcDJUGj8QN5H9YEuVv5dLlHD2jRl2OLFUf84XbKE4h0pC9LQqOGKMQq8jNUTqK4xSN4Mlh4+8vktyPJfXguLAVJDpO/hAY82j2WzC3IIxHOxRAxDrdbeIJYDcLsKywT3m9JchkISPB/Tc3Ys3Il6g86CHU9ewDZLHYsXYZOh/RBXY/uxrFk12zEi/fdh7HXTECma2chkdr0z+ex6Nl/YewVlwP1tTZEqSCWHIq5dqfVSTdFxGGDvmOCZxjyJuPd9PxLWHr//ejxgQ9h8AfPR7D6uGjabVizYjVOvulGdDvyMOxZshyv33IbGsaMxvFf/qKRgsAxb3z5BQy76mr0HjIYW2fPx6K7v4O600/G8C99EWjOYuUvfoPV//gHhlx9MQ454QRz3BV33YPtnbvjhK99CfmguhEoXS6L1b//Mxb//mH0OnkUGhvqMeyMcZh7xwzUnTACOKwfRn/io+bn5824D11OGomB77abBxv+9jSWPPlXHP/pi7D2zaUYcsH7aDsiwCLgWKB5CzKy9p6EoOWQxfxbZ6DzGeMwkLYYXKglo/hiH4LMf/VjT2Lhgw+i1yknobEli2PecRbm3HUvuo4chZaDDsLJn/mEwWbNHx7H2nlzccQ7zsX2HVsxKJjbMMRHNhha/pOfYU99PU6dNucAAAx+SURBVIZ97jMyem9nLPLY/thfsfCfT2P0LTcAdYHMqMRDBTuOlprbmjKkRbTE0faS+/cFJDkRcskrgbalygFWa3Xc/oJYYjllw6Oe8c5dio6rZNa2fx1O5KoUxff+gaWtwKfD0iTw4aFClZByeyXKHxbYyyJYFiFKIvIS8yG8DKsvMKFoJ4LYRV6cq884shn3FsnakREUB0TrIkL8YQ1CFHlTNMGTOjdb2laRbLgyfhRRkkwd8/chnIqeKQpLbvNUHUuKB2kAzA00xZFlVR5LrtgY1ZUyvJIBLtHEEngVkcs0WIYGY4WylQbntv3reax46QUMv/wSsqJB1JDHoh/+BLWDDsOg//gPKVNVXS5NfK6yKN1eon9ndsjgjNtXrECucQ9aahrQc8BhxrHvXPWW0cTaHj3Rve/B2LZyJfJ7diNbW4cehx+Ompo6bFu+HJlcC3KduuKgw/ph5+oNyO7aiZY6mPW/YF5j54pVyGRyyHaqx0EDA7ZCoHHpSrx053cw9qbrUH9wT8p+gNyeRmxfvBiZ+hp0PWIAamrrsG3uQmS6dEK3owagpr4OaGzBKzdMxpCvfQXdBweflzGcBMt++HNsWjQHo26ZjNou3ZEzvA+26idrhyFdyedyWPLQw+g8bBj6nXic1cqwPjGWpLO5vU3YsXQlcrkWdDtyAGob6rFtwZsm0DErjh3q7fvf24KF996HPXt3YcSkCUBDvbUswf9rbsGcW2/HQWedjsOCwITtQIBEY5OpanQdNxqDzj/Pr6zRbBO3h7jVywmWJFIl20ut40m6wpVh94xH4GUSRVXFkoFtpt0OyaVsK3BQS2V5KcNXRseLESUV8z2xdqco2V05/jAJS5uAezpeBMuCuzrS+p4S/aHlQWBFYtX2ZhLcS3X9MFsaE6PE9JUeSY4VrFgSJBlgTHqGDsZlezcRwEs2ZABC7HI8w0AZhn9utwkgFJcVO7e1JXZojHDb51hqqmBXivQpXeh9qsEpm+YocplELFm26Z3LDEk5MqCw9DZEip2pTLmkgHbVb/+ArSuWoeu4U9Hv+GFo6NEd+R278fLkW3H0N7+CHoMGSFm3dVhG3W7qthZkdLMkLLk7obeBOEukU8q8itUD/keZfJl9kBshXYrGqRp1aG2ZOGClXPjAT9DcUIsTPvdp5OvqRD9Vmir5Kg9uBBlT87rNePnOe3DKjZNQE1RqAOxe9hZW/PkpNK9eiYPOPA39z32H6wLyqqen48pwm46pvQDKZmScrUfg7b6+HdxiB+E1d+zn7Fi0FGueeQZ7li7Hoe97D/qMDTZYAkwzZuDz5QnX4+hLvm5ppmngORia3PLSTCz80+MYedklaOjVU1ok7OTcvFV5usKLWnYjjIh0UthLoR3ntb1EW5iAZRzZnUcAZKXMaydLEFeKDdeBh0rdStKVOLxdh6+1NtxuPFXSFoZJvsLv1wly2EcXt+HJWApRkiPYcU7Z+gQ1cOGV5XnnXj9ji1byyjjpkQhYfRHq7uvEKFTokqKFxZrbH7a0GrX7rveI487NGQW5n9D/kFn2Wl6y2+EUT96/OpNxqFz5iOZUqBSWlpZYYUkDipFYJp2JMvX2iCUPZJUrl5KyxchlFJYBLM2r1+LV3/8WA8eejr4nDTfOoHHFKrxyx10YN2MaMh0apNQtswJaLtmVsuzy8F6MPuncyk0+sniWIJeka7L/YASF7p3gcqLSp6I6TpUmaX1Q5cWZZbumnNu1G7Mf+DE6HzUIg95xNuq6BfwBrgLn3+pgzxTgvGPJcsx+4EcY9plPIVufQa9evTH7Z/+L4V/8HLC7CS9OnoJh3/gyDj5phI1ZzWYCS3+0bSrAkmvpYRnQNkWFSm7YNSA6yqNp/XrM/K8fYfRlF6Np1Sq8MOMunHTdJPQYfJSBr2X1Krx6z/dw0k3XmSDHJIN792DTa3Mx//ePYPQl30SX/v3sdyab2hq5DMXJrrlbio6XK5dxWFrDH244p7Lhpeu4iz+L6opxHVWyl6VgqYstVfSHFccynigptNUQRQwRZo1Sg/W+U48gYeCSimTaFB5I3KEmM8QbRp0pjDxHWy7ZMQajwKlHE0O4iIGrJPZzCsp/8ofq3JR12/evo6PCc3tOWZRLMYclYMlVIrG/VcPSv6goXNl2QVsKLOn7VARLpuelF1sSlqyczJSonCaHe8hxdmHX55CvNet4ax5/AqsXvYGTLrvU7seXJJdvXyy5/RkwNG6YNQuvvvgS3vX1L6OmrpbTABFsu2mhmky7mzDvf/4XPYcNRb9Tx2Lxw48iu3MH+v/Hu02AsOHv/8CuTp1x3IfOR33XTsQmWQaWpGt61kO1b6V6YvQ3HxAx7cWi3z+CXEsjBpx/HhrXrse2557Fts6dMfxjH0NtfR02/+UprHh9PkZdcgld7JTHG3/8CxpyeTOrUBNsjbATV/Ndnj6lkUu3ly2Jm2CpVyAS5ZINC0VEZdlwhourpQk2PGQvXZwUY+dL0HHXRnLjZvx+zadH6fh+jSUHSJXwh8rj+aNOxmfSdc8uH/WIdAhYF/lqwhIeUOGXEiJKUmQV0qyj6UwbE3ARlYiSzO+KIUqyuTsFix4xuFUr0vCCSqhtWtoqpwqtpPSoZNM+RANnJqAgKyZ9NzVYJLFH+Eys/QS6Wo1kIa06lqGZD3sS9X49LDltcsFMUSxZ4yjiqh6WXvlJtZJ0/Tf0fs0gbQXkkjIhCXJ3NWHOQw+jQ0MNjnz3O9FwUG+XHItcVhHLBF2xpjnu/RbqCuuL3JXh6bjSlRKxlHMEZf0gYwu2ILQ+heWSbIBRM2kFcHtOzWVy5ZmUO+r92jIqyXmBXPqENEl2pwBLPhtrkNqAsKYjh/zuJsyaNh2HX3AeDjnlFFfdtHfgqYHF1stl5PvVNo2wZAn0bLiqjLCYOB1PPhNnVU7Hy8CyUja8RLkM+57iupJgw8vCkiwxy7ryK8X8Yak6XtSGK9mx6/KKCIu3GtgfBmuO0q9z8b700CXx5luiIp6R0jlFsda3ujIgO0URXLrpLMwjL3MZXKiiEqDYMN5n1XaPrrjlZ9yCpiM4YhuefCY2Tv65o87kyqXkelUw1GZYssIdwJLWoVTAyVUpTZAisyERcpmApXGZWQpQDameC1y4b88yJ7OnRj5ddC+VCe5L8nBa0pk4uIx5ppJyKY6lEjpeply2Ryy5aWrfL02a5/LY8uYirH9+JjKdOmHo+9+LjLnkywUqek2vVTKQFks6U5zMObnk1cEydCVWLikpIvXiWQM9TGeDKhqDVFjG6wp/ZmjlkT5H+vxp9KlSWHJ+UgldaQWWbgqkClhKBYHeVHC+XC7HGyguF6GowFZwaSdT7CoZSM6+CXj7n0xwxDu5MhMrVLUylMNjTno7gZnjaNhEPtNiQW1LfVMf6aNMwqvMQ0hUQllU6Nw2gIo+ty0BKjIhrkZQ1CXT6/KMa7tKiFQFLAOPaNvIdO5qYakqJRLFRpGasPJVCUuPi0IHYzrY1zKgz02VKWb1tJVFJ5dhLEk8qAxOq2BiDJz9L3y/ReSyzbDUQSvLiRoHkDQyQleK6HiSrtiEoxRdIXZSthul6HgRLPnqcHHKrZbLBCyDD5fqh70jQ/+j1wld9VAVvhPO1G6xlASwNfayiFwm2XAuDcfo+H4plwVYWqIkb1svrT/kJEJso/LRUvXSfEYRZFkxNtwGCDHEEFbnQ6QNEhYzsTBve6l6gGwo0ES5LoOyHulyHZcFJZVR0Sj3K3XrTJ3JyoxrpEmUqkk2yHhxG8GRbJCHkTP5V2B6xVsOLLifRYkCV1iMfWPHI89o4o/WY1kaiYrEUgTi/o+l7VcmkKjo92smyym0LGCYDL9f9YYj3q/L0jkQTY+lDKNR+bc8uXSldyu7StdKlMtysJS+CuHdVnLZnrG0a8IUSMrqrHpDMfaykljqbqidSXC6wu/bkxrvTJSJprGXXB2phA0P2cuS5DJMhsbDWBWQy+phyTNtnPYqB8L/Kl3tNtTxIliay5pMlixsL+6mMd1etULnMnaye450hJ273iWVhKuQrIKneB2BRni4kCeUSdgVMYSL1NVlSIoAyLI/2sOa/590Ju/c3I+hQSpZ8+OUxZ0pTPzBv6u1WNqfD60ApSR4KiTZeLtjqd9voVz+O2MZJlEpLpdtj6XWS5bdqHPze9TzO2G7U00dT8aSB/S0vZTQlJy0by8rK5d6Hc/aOMEyhgytmA1vf1iyDS9Dx1tpw4uRTlUES+mLc5lZEyWVZsPtR6Xxh6Vh+f8BWZ0mHc4+TL0AAAAASUVORK5CYII=;" vertex="1" parent="1">
                    <mxGeometry x="30" width="520" height="281" as="geometry"/>
                </mxCell>
            </root>
        </mxGraphModel>
    </diagram>
</mxfile>